<?xml version="1.0" encoding="UTF-8"?>
<svg version="1.1" xmlns="http://www.w3.org/2000/svg" width="688" height="363">
<path d="M0 0 C1.1240625 0.63292969 2.248125 1.26585937 3.40625 1.91796875 C10.25320288 5.78094554 17.00568711 9.78767822 23.73681641 13.84838867 C29.21141546 17.14449666 34.7592934 20.26315071 40.390625 23.28125 C45.95713603 26.28116612 51.43341111 29.40601414 56.875 32.625 C63.68221899 36.65007038 70.51594171 40.62635598 77.375 44.5625 C78.28491699 45.08730957 79.19483398 45.61211914 80.13232422 46.15283203 C80.9832666 46.63993652 81.83420898 47.12704102 82.7109375 47.62890625 C83.46681152 48.06275635 84.22268555 48.49660645 85.00146484 48.94360352 C87.10853087 50.12715587 87.10853087 50.12715587 90 51 C90.33 51.66 90.66 52.32 91 53 C92.46714361 53.88990678 93.97639021 54.71065999 95.5 55.5 C101.28644092 58.57404674 106.9203296 61.86313849 112.54492188 65.22070312 C116.43655958 67.53194268 120.36167498 69.75400633 124.34375 71.90625 C130.92200869 75.47118298 137.32957114 79.30504183 143.75 83.14453125 C149.27533156 86.43304535 154.84826005 89.59314115 160.51660156 92.62915039 C172.95544307 99.49545938 182.63993879 108.4098563 187.3125 122.125 C192.13927328 139.48515937 188.82840034 152.44757799 181 168 C180.34 168 179.68 168 179 168 C178.773125 168.556875 178.54625 169.11375 178.3125 169.6875 C174.79587097 175.88346544 168.23200196 180.71999897 162 184 C161.01 184 160.02 184 159 184 C159 184.66 159 185.32 159 186 C157.34677734 186.90878906 157.34677734 186.90878906 155.66015625 187.8359375 C144.99903521 193.71597312 134.46879516 199.78527504 124 206 C106.9483242 216.10859089 106.9483242 216.10859089 98.63671875 220.55078125 C94.53104199 222.80738285 90.5341586 225.24634043 86.53125 227.6796875 C84 229 84 229 81 229 C81 229.66 81 230.32 81 231 C67.80124911 238.59169029 67.80124911 238.59169029 61.6875 241.875 C54.00328206 246.0377535 46.51740238 250.54572683 39 255 C21.97415096 265.0882963 21.97415096 265.0882963 13.734375 269.5078125 C11.08745775 270.95227305 8.47368822 272.44750222 5.86401367 273.95800781 C-10.71809998 283.54907179 -25.45634037 291.1137555 -45 286 C-56.97526456 282.03803436 -68.98403178 274.68957569 -75.02734375 263.15234375 C-81.69167019 248.40517961 -84.29812018 235.53753547 -78.96484375 219.98046875 C-73.38647653 205.72065543 -63.95741724 196.78091032 -50.37890625 189.76953125 C-45.87749035 187.41214234 -41.47296208 184.89760821 -37.0625 182.375 C-36.16305664 181.86138916 -35.26361328 181.34777832 -34.33691406 180.81860352 C-27.10600629 176.67214182 -19.95869548 172.39523036 -12.82519531 168.08398438 C-7.89115935 165.10977507 -2.91839415 162.26207437 2.16796875 159.5546875 C5.99547598 157.45351801 9.74391728 155.22572094 13.5 153 C19.17651175 149.63685905 24.88035037 146.36000418 30.703125 143.25390625 C33.17843309 141.9025901 35.59068506 140.46523941 38 139 C35.7476513 136.49579122 33.60434301 135.16852777 30.5625 133.75 C25.78681493 131.43057702 21.23664752 128.85336082 16.66796875 126.15234375 C11.97456792 123.38402821 7.23415004 120.69779534 2.5 118 C-3.92596536 114.33482806 -10.33668741 110.6474591 -16.71875 106.90625 C-21.2982324 104.2457888 -25.8997059 101.62426689 -30.5 99 C-44.38250888 91.0779493 -44.38250888 91.0779493 -50.4375 87.5 C-52.15244346 86.49613066 -53.88207383 85.51695957 -55.625 84.5625 C-68.69634767 77.22979277 -76.67492845 66.35046781 -81 52 C-84.10972722 35.51844571 -79.8428915 21.82095632 -71 8 C-70.34 8 -69.68 8 -69 8 C-68.78730469 7.43410156 -68.57460938 6.86820313 -68.35546875 6.28515625 C-64.45664644 -0.28778625 -55.16148582 -5.65874502 -48 -8 C-46.845 -8.391875 -45.69 -8.78375 -44.5 -9.1875 C-28.08045172 -12.94235794 -14.01079514 -8.16750792 0 0 Z " fill="#129D59" transform="translate(461,40)"/>
<path d="M0 0 C0 0.66 0 1.32 0 2 C0.556875 2.226875 1.11375 2.45375 1.6875 2.6875 C11.21897166 8.09725419 16.68087322 19.73106951 19.53271484 29.89941406 C22.14706049 41.65167632 20.41623248 55.54056323 14.31640625 65.84375 C12.62940031 68.31076944 10.85612 70.65890803 9 73 C8.401875 73.886875 7.80375 74.77375 7.1875 75.6875 C1.29374297 81.91804315 -6.52304274 85.96668867 -14 90 C-24.55346433 95.8966348 -34.93447447 102.08738624 -45.31787109 108.27661133 C-50.74496228 111.50542174 -56.18372098 114.68796627 -61.71850586 117.72827148 C-67.5183778 120.9611803 -73.21756264 124.37519766 -78.94140625 127.74023438 C-84.86859508 131.21230722 -90.83272813 134.56045686 -96.92236328 137.74047852 C-99.13759789 138.83101488 -99.13759789 138.83101488 -100 141 C-99.13761719 141.25265625 -98.27523437 141.5053125 -97.38671875 141.765625 C-93.8254297 143.06362655 -91.00001551 144.70682236 -87.8125 146.75 C-83.93271586 149.19842875 -80.04536846 151.58214705 -76 153.75 C-63.50746031 160.45420752 -51.15080346 167.48688128 -39.1796875 175.0859375 C-35.53121584 177.28219194 -31.80717502 179.30649382 -28.06396484 181.3359375 C-22.64080268 184.28129792 -17.25025847 187.28070404 -11.875 190.3125 C-10.75996094 190.92544922 -9.64492188 191.53839844 -8.49609375 192.16992188 C5.1962318 199.93535739 14.64540901 210.32398235 19.3046875 225.53515625 C22.20008761 239.96335792 20.11334356 253.86794962 12.25 266.375 C8.69599067 271.37035756 4.941274 275.38158676 0 279 C-0.61359375 279.45890625 -1.2271875 279.9178125 -1.859375 280.390625 C-13.22477047 288.18672272 -26.3635547 290.1375784 -39.703125 287.7890625 C-51.64553983 284.93080682 -62.53166313 278.45502296 -72.57983398 271.57617188 C-74.97593595 270.0156721 -77.40344976 268.63829335 -79.921875 267.28515625 C-81.37013672 266.50229248 -81.37013672 266.50229248 -82.84765625 265.70361328 C-83.88792969 265.1414209 -84.92820313 264.57922852 -86 264 C-89.99871272 261.81357281 -93.99185848 259.61724887 -97.98095703 257.41333008 C-99.1665681 256.7593296 -100.35310339 256.10700197 -101.54052734 255.45629883 C-112.72206055 249.32681067 -112.72206055 249.32681067 -116.8984375 246.25 C-120.10847807 243.92130558 -123.29408931 242.2555156 -126.875 240.5625 C-131.73493044 238.21427085 -136.24555712 235.65495352 -140.66162109 232.54907227 C-143.07344967 230.95134285 -145.52886327 229.58219047 -148.08203125 228.22265625 C-154.7522647 224.62074129 -161.24511704 220.74546268 -167.75 216.85546875 C-173.20395012 213.60943878 -178.70701927 210.49207056 -184.29003906 207.47363281 C-188.68551794 205.08344268 -193.03141116 202.60792457 -197.375 200.125 C-198.28475586 199.60542725 -199.19451172 199.08585449 -200.13183594 198.55053711 C-206.26060737 195.03525048 -212.30171602 191.41418929 -218.28515625 187.65625 C-220.71121658 186.17617866 -223.16060458 184.85879297 -225.6875 183.5625 C-237.25408399 177.17434994 -245.63733734 166.78162404 -249.4921875 154.16796875 C-253.06388256 138.91957831 -250.85022454 125.54339124 -243.3125 112 C-235.74558476 99.83430576 -221.56655151 92.90486036 -209.265625 86.23046875 C-197.9459713 80.08272579 -186.91378931 73.41679378 -175.85791016 66.8112793 C-169.85600369 63.23718357 -163.81701405 59.78056044 -157.66870117 56.46533203 C-153.04430321 53.92616484 -148.52728929 51.20737044 -144 48.5 C-137.58903258 44.66616863 -131.13868921 40.95490528 -124.56738281 37.40234375 C-120.95587108 35.42968082 -117.41230203 33.35202076 -113.875 31.25 C-112.41406909 30.3867076 -110.95313138 29.52342671 -109.4921875 28.66015625 C-108.75452148 28.2233252 -108.01685547 27.78649414 -107.25683594 27.33642578 C-88.17265554 16.03538689 -88.17265554 16.03538689 -81.4296875 12.3359375 C-77.96348822 10.43008516 -74.5122955 8.49785747 -71.0625 6.5625 C-70.36640625 6.17231689 -69.6703125 5.78213379 -68.953125 5.38012695 C-65.07099751 3.19505685 -61.23583588 0.95394906 -57.4375 -1.375 C-38.97182994 -12.49741691 -18.11328421 -11.42026188 0 0 Z " fill="#4386F4" transform="translate(289,39)"/>
<path d="M0 0 C3.7984804 1.43351347 7.07858821 3.76623543 10.46875 5.96484375 C13.34510095 7.79342881 15.84791691 9.3146089 19.24609375 9.84765625 C19.24609375 10.50765625 19.24609375 11.16765625 19.24609375 11.84765625 C21.55609375 12.50765625 23.86609375 13.16765625 26.24609375 13.84765625 C26.24609375 14.50765625 26.24609375 15.16765625 26.24609375 15.84765625 C26.96796875 16.13640625 27.68984375 16.42515625 28.43359375 16.72265625 C31.03776042 17.76432292 33.64192708 18.80598958 36.24609375 19.84765625 C36.24609375 20.50765625 36.24609375 21.16765625 36.24609375 21.84765625 C36.81714844 21.96496094 37.38820313 22.08226562 37.9765625 22.203125 C40.43331759 22.90082653 42.34552756 23.89049305 44.55859375 25.16015625 C45.74195313 25.83498047 45.74195313 25.83498047 46.94921875 26.5234375 C47.7071875 26.96042969 48.46515625 27.39742187 49.24609375 27.84765625 C49.8596875 28.19183594 50.47328125 28.53601563 51.10546875 28.890625 C54.24378332 30.65412745 57.28892664 32.51673551 60.30859375 34.47265625 C62.78321055 36.04741239 64.66469754 36.98450749 67.49609375 37.91015625 C70.24609375 38.84765625 70.24609375 38.84765625 71.99609375 40.72265625 C78.86075345 47.20594597 88.87930043 48.04265722 97.87109375 48.03515625 C99.0629126 48.03612305 99.0629126 48.03612305 100.27880859 48.03710938 C106.4256199 47.9821937 112.26483522 47.32320901 118.24609375 45.84765625 C118.24609375 46.50765625 118.24609375 47.16765625 118.24609375 47.84765625 C116.59287109 48.75644531 116.59287109 48.75644531 114.90625 49.68359375 C104.24512896 55.56362937 93.71488891 61.63293129 83.24609375 67.84765625 C66.19441795 77.95624714 66.19441795 77.95624714 57.8828125 82.3984375 C53.77713574 84.6550391 49.78025235 87.09399668 45.77734375 89.52734375 C43.24609375 90.84765625 43.24609375 90.84765625 40.24609375 90.84765625 C40.24609375 91.50765625 40.24609375 92.16765625 40.24609375 92.84765625 C27.04734286 100.43934654 27.04734286 100.43934654 20.93359375 103.72265625 C13.24937581 107.88540975 5.76349613 112.39338308 -1.75390625 116.84765625 C-18.77975529 126.93595255 -18.77975529 126.93595255 -27.01953125 131.35546875 C-29.6664485 132.7999293 -32.28021803 134.29515847 -34.88989258 135.80566406 C-51.47200623 145.39672804 -66.21024662 152.96141175 -85.75390625 147.84765625 C-97.72917081 143.88569061 -109.73793803 136.53723194 -115.78125 125 C-122.44557644 110.25283586 -125.05202643 97.38519172 -119.71875 81.828125 C-114.14038278 67.56831168 -104.71132349 58.62856657 -91.1328125 51.6171875 C-86.6313966 49.25979859 -82.22686833 46.74526446 -77.81640625 44.22265625 C-76.91696289 43.70904541 -76.01751953 43.19543457 -75.09082031 42.66625977 C-67.85991254 38.51979807 -60.71260173 34.24288661 -53.57910156 29.93164062 C-48.6450656 26.95743132 -43.6723004 24.10973062 -38.5859375 21.40234375 C-34.00551526 18.88784989 -29.52944374 16.19675352 -25.03515625 13.53222656 C-20.07979389 10.60304693 -15.07119517 7.80474854 -9.98828125 5.1015625 C-7.98495318 3.9773172 -6.16893164 2.76286662 -4.31640625 1.41015625 C-1.75390625 -0.15234375 -1.75390625 -0.15234375 0 0 Z " fill="#F9BD06" transform="translate(501.75390625,178.15234375)"/>
<path d="M0 0 C0 0.66 0 1.32 0 2 C0.556875 2.226875 1.11375 2.45375 1.6875 2.6875 C11.21897166 8.09725419 16.68087322 19.73106951 19.53271484 29.89941406 C22.14706049 41.65167632 20.41623248 55.54056323 14.31640625 65.84375 C12.62940031 68.31076944 10.85612 70.65890803 9 73 C8.401875 73.886875 7.80375 74.77375 7.1875 75.6875 C1.29374297 81.91804315 -6.52304274 85.96668867 -14 90 C-24.55346433 95.8966348 -34.93447447 102.08738624 -45.31787109 108.27661133 C-50.74861575 111.50759534 -56.19236926 114.68755981 -61.73168945 117.72827148 C-64.39427203 119.22104865 -67.01498911 120.77644709 -69.63671875 122.33984375 C-98.26953939 139.39894232 -98.26953939 139.39894232 -104.08203125 138.77734375 C-106.3095996 137.87452073 -108.35048914 136.81861107 -110.4375 135.625 C-111.22511719 135.17769531 -112.01273437 134.73039063 -112.82421875 134.26953125 C-114.47830601 133.30439955 -116.11774437 132.31411141 -117.75 131.3125 C-119.94990549 129.94600104 -119.94990549 129.94600104 -122.3125 129.125 C-125.4648764 127.80540058 -128.17495867 126.07646248 -131.03515625 124.21875 C-132.9746601 123.01571779 -134.94439291 121.98888894 -137 121 C-137 120.34 -137 119.68 -137 119 C-138.98 118.505 -138.98 118.505 -141 118 C-141 117.34 -141 116.68 -141 116 C-141.84304687 115.92652344 -142.68609375 115.85304688 -143.5546875 115.77734375 C-147.79054006 114.82163552 -150.58658074 112.99373646 -154.125 110.5625 C-159.38521612 106.97866475 -159.38521612 106.97866475 -165 104 C-165 103.34 -165 102.68 -165 102 C-165.84820312 101.89429688 -166.69640625 101.78859375 -167.5703125 101.6796875 C-171.31662197 100.93725259 -174.39199867 99.6842055 -177.875 98.125 C-179.12480683 97.58288778 -180.37480522 97.04121694 -181.625 96.5 C-183.47323029 95.67856431 -185.31597555 94.84201222 -187.125 93.9375 C-193.83442805 90.8224084 -201.76282961 91.5694132 -209 92 C-209.99 92.495 -209.99 92.495 -211 93 C-212.99960012 93.039992 -215.00047242 93.04346799 -217 93 C-212.48306148 89.11041405 -212.48306148 89.11041405 -209.8125 88.5 C-209.214375 88.335 -208.61625 88.17 -208 88 C-207.71237793 87.37867187 -207.42475586 86.75734375 -207.12841797 86.1171875 C-205.76937784 83.56729655 -204.67359982 82.94422122 -202.1328125 81.625 C-201.33931396 81.20307373 -200.54581543 80.78114746 -199.72827148 80.34643555 C-198.86919189 79.90211182 -198.0101123 79.45778809 -197.125 79 C-188.94896789 74.64791749 -180.96602147 70.0690118 -173.06494141 65.23632812 C-168.05370318 62.18463283 -162.96699442 59.33062569 -157.80493164 56.54223633 C-153.13606113 53.97514998 -148.57230028 51.23428752 -144 48.5 C-137.58903258 44.66616863 -131.13868921 40.95490528 -124.56738281 37.40234375 C-120.95587108 35.42968082 -117.41230203 33.35202076 -113.875 31.25 C-112.41406909 30.3867076 -110.95313138 29.52342671 -109.4921875 28.66015625 C-108.75452148 28.2233252 -108.01685547 27.78649414 -107.25683594 27.33642578 C-88.17265554 16.03538689 -88.17265554 16.03538689 -81.4296875 12.3359375 C-77.96348822 10.43008516 -74.5122955 8.49785747 -71.0625 6.5625 C-70.36640625 6.17231689 -69.6703125 5.78213379 -68.953125 5.38012695 C-65.07099751 3.19505685 -61.23583588 0.95394906 -57.4375 -1.375 C-38.97182994 -12.49741691 -18.11328421 -11.42026188 0 0 Z " fill="#E94336" transform="translate(289,39)"/>
<path d="M0 0 C0.99 0.33 1.98 0.66 3 1 C-2.75 6 -2.75 6 -5 6 C-5.37125 6.9590625 -5.37125 6.9590625 -5.75 7.9375 C-7 10 -7 10 -8.9375 10.5625 C-9.618125 10.706875 -10.29875 10.85125 -11 11 C-11.44730469 11.48210937 -11.89460938 11.96421875 -12.35546875 12.4609375 C-14.35804666 14.33508404 -15.69735521 14.59185595 -18.375 15.0625 C-21.78096979 15.72369152 -24.82115907 16.56439442 -28 18 C-27.505 19.485 -27.505 19.485 -27 21 C-27.763125 21.45375 -28.52625 21.9075 -29.3125 22.375 C-31.23632814 23.53824492 -33.12941224 24.7529415 -35 26 C-37.6875 26.125 -37.6875 26.125 -40 26 C-40 26.66 -40 27.32 -40 28 C-40.99 28 -41.98 28 -43 28 C-43 28.66 -43 29.32 -43 30 C-43.9075 30.185625 -44.815 30.37125 -45.75 30.5625 C-50.77952039 31.95672023 -55.01359346 34.82642509 -59.42578125 37.5390625 C-62 39 -62 39 -64 39 C-64.0928125 40.1446875 -64.0928125 40.1446875 -64.1875 41.3125 C-65 44 -65 44 -67.1875 45.75 C-70 47 -70 47 -73.1875 47.5 C-74.115625 47.665 -75.04375 47.83 -76 48 C-76.66 48.99 -77.32 49.98 -78 51 C-79.98828125 51.66015625 -79.98828125 51.66015625 -82.3125 52.0625 C-85.74378214 52.7210848 -88.79851946 53.55417008 -92 55 C-88.54055558 51.03605327 -84.57404418 48.92883571 -80 46.5 C-72.25736172 42.30119647 -64.68358196 37.87607204 -57.16601562 33.28710938 C-52.1186684 30.22010121 -46.99659645 27.3470481 -41.80053711 24.54003906 C-37.13326741 21.97346795 -32.57088501 19.23344118 -28 16.5 C-21.52555733 12.62820971 -15.01837186 8.87272888 -8.36132812 5.32202148 C-6.30172368 4.16892408 -4.41349267 2.93862993 -2.5 1.5625 C-1.2625 0.7890625 -1.2625 0.7890625 0 0 Z " fill="#F3AFA9" transform="translate(173,71)"/>
<path d="M0 0 C0.66 0.33 1.32 0.66 2 1 C0.68 2.32 -0.64 3.64 -2 5 C-0.70642578 5.37898437 -0.70642578 5.37898437 0.61328125 5.765625 C4.1745703 7.06362655 6.99998449 8.70682236 10.1875 10.75 C14.06728414 13.19842875 17.95463154 15.58214705 22 17.75 C35.58750716 25.04182936 48.95740821 32.77276213 62 41 C61.01 41.495 61.01 41.495 60 42 C58.4840625 41.071875 58.4840625 41.071875 56.9375 40.125 C52.77370055 37.57752776 48.80395306 37.21786635 44 37 C44.33 36.01 44.66 35.02 45 34 C40.44508386 31.79600832 35.97093824 31.41153737 31 31 C31.33 29.68 31.66 28.36 32 27 C30.02 27.99 30.02 27.99 28 29 C28 27.35 28 25.7 28 24 C25.69 23.34 23.38 22.68 21 22 C21 21.34 21 20.68 21 20 C19.68 20 18.36 20 17 20 C17 19.34 17 18.68 17 18 C16.01 18 15.02 18 14 18 C14 17.34 14 16.68 14 16 C13.01 16 12.02 16 11 16 C11 15.34 11 14.68 11 14 C10.34 14 9.68 14 9 14 C8.57074219 13.566875 8.14148438 13.13375 7.69921875 12.6875 C4.93832469 9.94564659 1.47295552 8.36282535 -1.91796875 6.5 C-2.60503906 6.005 -3.29210937 5.51 -4 5 C-4 4.01 -4 3.02 -4 2 C-2.125 0.9375 -2.125 0.9375 0 0 Z " fill="#94B4EC" transform="translate(191,175)"/>
<path d="M0 0 C0 0.66 0 1.32 0 2 C-1.10214844 2.60585937 -2.20429687 3.21171875 -3.33984375 3.8359375 C-11.1340203 8.13473831 -18.89640265 12.47605613 -26.5625 17 C-27.24836182 17.40371826 -27.93422363 17.80743652 -28.64086914 18.22338867 C-32.35702557 20.417306 -36.05436567 22.63907154 -39.73828125 24.88671875 C-40.90218384 25.58958008 -40.90218384 25.58958008 -42.08959961 26.30664062 C-43.58391301 27.20951816 -45.07326877 28.12066572 -46.55688477 29.04101562 C-48.32646457 30.10561664 -50.15967313 31.06299147 -52 32 C-52.99 31.67 -53.98 31.34 -55 31 C-52.963006 29.70043409 -50.92092385 28.4103739 -48.875 27.125 C-48.30523438 26.76019531 -47.73546875 26.39539063 -47.1484375 26.01953125 C-43.53527295 23.7613034 -40.09113959 22.1813321 -36 21 C-36 20.34 -36 19.68 -36 19 C-35.0409375 18.566875 -35.0409375 18.566875 -34.0625 18.125 C-31.84793921 17.17176549 -31.84793921 17.17176549 -31 15 C-29.02111039 14.27306096 -27.02045442 13.60183749 -25 13 C-25 12.34 -25 11.68 -25 11 C-24.01 11 -23.02 11 -22 11 C-21.67 10.01 -21.34 9.02 -21 8 C-20.34 7.34 -19.68 6.68 -19 6 C-21.97 5.67 -24.94 5.34 -28 5 C-28 4.34 -28 3.68 -28 3 C-26.31583984 2.92652344 -26.31583984 2.92652344 -24.59765625 2.8515625 C-16.46397151 2.45845105 -7.91752936 0 0 0 Z " fill="#F0BF1F" transform="translate(620,224)"/>
<path d="M0 0 C2.64 0 5.28 0 8 0 C5.34360512 3.05343611 2.05028841 4.86383034 -1.4375 6.8125 C-2.05496094 7.16070801 -2.67242187 7.50891602 -3.30859375 7.86767578 C-19.02085459 16.65350196 -32.79735326 22.81353688 -51 18 C-62.50349162 13.99301676 -62.50349162 13.99301676 -64 11 C-61.1875 10.8125 -61.1875 10.8125 -58 11 C-56.98668621 11.98650655 -55.98726268 12.98742289 -55 14 C-48.95990702 16.01336433 -43.12459364 16.20216661 -36.8125 16.25 C-35.65415649 16.26389771 -35.65415649 16.26389771 -34.47241211 16.27807617 C-29.90761004 16.25298673 -26.31470884 15.64993419 -22 14 C-21.34 14 -20.68 14 -20 14 C-20 13.34 -20 12.68 -20 12 C-19.443125 11.91363281 -18.88625 11.82726562 -18.3125 11.73828125 C-12.41571025 10.65255476 -7.72118276 8.75767608 -3 5 C-2.67 4.34 -2.34 3.68 -2 3 C-1.34 3 -0.68 3 0 3 C0 2.01 0 1.02 0 0 Z " fill="#F9E192" transform="translate(467,308)"/>
<path d="M0 0 C0.33 0.66 0.66 1.32 1 2 C0.29296875 3.84765625 0.29296875 3.84765625 -0.8125 6.0625 C-5.48016213 16.28613367 -5.22826349 25.95458319 -5 37 C-4.34 37.33 -3.68 37.66 -3 38 C-2.27306096 39.97888961 -1.60183749 41.97954558 -1 44 C-0.01 43.505 -0.01 43.505 1 43 C0.95875 43.9075 0.9175 44.815 0.875 45.75 C0.99989713 48.99732532 1.4141033 50.26873346 3 53 C3.268125 53.77601562 3.53625 54.55203125 3.8125 55.3515625 C5.16405826 58.3658931 6.74141716 60.04425182 9.125 62.3125 C9.84945313 63.00988281 10.57390625 63.70726562 11.3203125 64.42578125 C11.87460937 64.94527344 12.42890625 65.46476562 13 66 C9.3107679 66 8.83641539 65.32132293 6.25 62.8125 C-3.37962785 52.84530217 -8.42675303 39.42644716 -8.21484375 25.65234375 C-7.45517672 16.27390897 -5.2516412 7.84632559 0 0 Z " fill="#A0DABE" transform="translate(387,53)"/>
<path d="M0 0 C0.33 0.66 0.66 1.32 1 2 C0.41261827 3.64703018 -0.24615119 5.26883609 -0.9375 6.875 C-5.06323458 17.90560981 -2.83283185 28.88884089 0 40 C0.33 40.33 0.66 40.66 1 41 C1.04063832 42.66617115 1.042721 44.33388095 1 46 C1.66 46.33 2.32 46.66 3 47 C3.73075648 49.3140622 4.40138258 51.64828869 5 54 C-2.69630699 46.8344728 -5.61072105 37.21524001 -6.16796875 26.88671875 C-6.22606931 17.36984637 -5.11788444 9.59384579 -1 1 C-0.67 0.67 -0.34 0.34 0 0 Z " fill="#A7C5F2" transform="translate(44,155)"/>
<path d="M0 0 C0.99 0.33 1.98 0.66 3 1 C-1.95 3.97 -1.95 3.97 -7 7 C-5.68 7.33 -4.36 7.66 -3 8 C-4 9 -4 9 -7.0625 9.0625 C-8.031875 9.041875 -9.00125 9.02125 -10 9 C-10.33 9.99 -10.66 10.98 -11 12 C-12.98 12.33 -14.96 12.66 -17 13 C-17 13.66 -17 14.32 -17 15 C-18.44495231 15.94089918 -19.8920679 16.8786953 -21.3515625 17.796875 C-24.04133062 19.7600233 -25.91045098 22.42824736 -28 25 C-29.63072616 26.37705764 -31.2866438 27.72722111 -33 29 C-32.05964985 22.28984707 -27.9704994 18.41185214 -22.83984375 14.24609375 C-20.27782478 12.40263769 -17.66628555 10.68970138 -15 9 C-14.38398926 8.60538574 -13.76797852 8.21077148 -13.13330078 7.80419922 C-11.1188068 6.52091012 -9.09330644 5.25729375 -7.0625 4 C-6.41152344 3.58951416 -5.76054688 3.17902832 -5.08984375 2.75610352 C-3.43963516 1.75644133 -1.72275788 0.86868761 0 0 Z " fill="#A2C2F1" transform="translate(78,126)"/>
<path d="M0 0 C7.45937249 0.61142397 7.45937249 0.61142397 10 2.4375 C11 4 11 4 11 6 C13.31 6 15.62 6 18 6 C18.33 6.99 18.66 7.98 19 9 C20.62948064 10.22445284 20.62948064 10.22445284 22.5625 11.1875 C24.2640625 12.0846875 24.2640625 12.0846875 26 13 C26 13.66 26 14.32 26 15 C31.94 15.99 31.94 15.99 38 17 C38 18.32 38 19.64 38 21 C38.66 21.66 39.32 22.32 40 23 C36.76148647 22.34805551 34.29024968 21.17481298 31.4375 19.5234375 C30.56335449 19.02062256 29.68920898 18.51780762 28.78857422 17.99975586 C27.86834473 17.46358643 26.94811523 16.92741699 26 16.375 C25.06043457 15.83174072 24.12086914 15.28848145 23.15283203 14.72875977 C21.28465638 13.64782 19.41760434 12.56493567 17.55175781 11.47998047 C15.39186741 10.2272771 13.22627483 8.98616385 11.0546875 7.75390625 C10.00539063 7.15449219 8.95609375 6.55507812 7.875 5.9375 C6.98554688 5.43089844 6.09609375 4.92429687 5.1796875 4.40234375 C3.15329636 3.09862615 1.61416423 1.77769067 0 0 Z " fill="#9AD6B9" transform="translate(405,123)"/>
<path d="M0 0 C0 0.99 0 1.98 0 3 C-1.65 3.33 -3.3 3.66 -5 4 C-5 4.66 -5 5.32 -5 6 C-5.66 6.66 -6.32 7.32 -7 8 C-7 8.66 -7 9.32 -7 10 C-8.41396902 10.50757862 -9.83131729 11.00574925 -11.25 11.5 C-12.03890625 11.7784375 -12.8278125 12.056875 -13.640625 12.34375 C-16 13 -16 13 -20 13 C-20 13.66 -20 14.32 -20 15 C-22.70879335 16.35439668 -25.00933268 16.06501451 -28 16 C-24.11064654 11.72922762 -18.92942324 9.21419493 -14 6.3125 C-12.989375 5.70599609 -11.97875 5.09949219 -10.9375 4.47460938 C-9.968125 3.90162109 -8.99875 3.32863281 -8 2.73828125 C-7.113125 2.21274658 -6.22625 1.68721191 -5.3125 1.14575195 C-3 0 -3 0 0 0 Z " fill="#F3C229" transform="translate(458,204)"/>
<path d="M0 0 C0.66 0.99 1.32 1.98 2 3 C2.99 2.34 3.98 1.68 5 1 C2.18506935 9.53368449 -6.37724519 14.85429124 -14 19 C-18.24489796 21.12244898 -18.24489796 21.12244898 -21.3125 20.625 C-22.1478125 20.315625 -22.1478125 20.315625 -23 20 C-22.01 20 -21.02 20 -20 20 C-20 19.01 -20 18.02 -20 17 C-16.62902617 15.50178941 -14.79557881 15 -11 15 C-10.67 13.68 -10.34 12.36 -10 11 C-9.01 11 -8.02 11 -7 11 C-6.87625 10.360625 -6.7525 9.72125 -6.625 9.0625 C-6.41875 8.381875 -6.2125 7.70125 -6 7 C-5.34 6.67 -4.68 6.34 -4 6 C-3.34 6.33 -2.68 6.66 -2 7 C-2 6.34 -2 5.68 -2 5 C-1.34 5 -0.68 5 0 5 C0 3.35 0 1.7 0 0 Z " fill="#84ACED" transform="translate(295,304)"/>
<path d="M0 0 C5.01522238 1.44729411 9.07863755 3.62927048 13.5 6.3125 C14.99732897 7.20714317 16.49472856 8.10166814 17.9921875 8.99609375 C18.79237305 9.47675293 19.59255859 9.95741211 20.41699219 10.45263672 C25.14001429 13.28198588 29.88422256 16.07554393 34.625 18.875 C35.54861328 19.42196533 36.47222656 19.96893066 37.42382812 20.5324707 C42.26066515 23.39497154 47.1110632 26.22737009 52 29 C51.01 29.495 51.01 29.495 50 30 C49.05125 29.67 48.1025 29.34 47.125 29 C44.04285618 28.01371398 42.93422189 27.87145312 40 29 C39.979375 28.236875 39.95875 27.47375 39.9375 26.6875 C39.20339051 23.58610882 39.20339051 23.58610882 35.4375 22.1875 C34.303125 21.795625 33.16875 21.40375 32 21 C32 20.34 32 19.68 32 19 C31.30132813 18.74734375 30.60265625 18.4946875 29.8828125 18.234375 C26.64869318 16.84957594 23.84617089 15.13344493 20.875 13.25 C15.77490913 10.04178396 10.59605719 7.09647472 5.2421875 4.32421875 C3.12412038 3.07330455 1.63483601 1.82182706 0 0 Z " fill="#B7E6CF" transform="translate(568,103)"/>
<path d="M0 0 C5.17078221 7.75617331 3.89892598 19.83929844 2.3515625 28.72265625 C0.30411614 36.06371391 -2.99544786 42.23120591 -8 48 C-8.99 48.495 -8.99 48.495 -10 49 C-9.53980469 48.17242187 -9.53980469 48.17242187 -9.0703125 47.328125 C-7.90557059 44.79459879 -7.37942044 42.48828238 -6.875 39.75 C-6.70742188 38.85796875 -6.53984375 37.9659375 -6.3671875 37.046875 C-6.24601562 36.37140625 -6.12484375 35.6959375 -6 35 C-5.01 35 -4.02 35 -3 35 C-3 33.68 -3 32.36 -3 31 C-2.34 30.67 -1.68 30.34 -1 30 C1.00146365 25.3790769 1.28147072 21.08665415 1.1875 16.125 C1.18105469 15.42117187 1.17460937 14.71734375 1.16796875 13.9921875 C1.09775598 9.25282521 0.77857646 4.67145875 0 0 Z " fill="#F1B0A8" transform="translate(306,64)"/>
<path d="M0 0 C0.66 0.33 1.32 0.66 2 1 C1.34 2.32 0.68 3.64 0 5 C-1.32 5 -2.64 5 -4 5 C-4 5.66 -4 6.32 -4 7 C-5.0725 7.4125 -6.145 7.825 -7.25 8.25 C-9.79800529 9.32525823 -11.03160358 10.0325912 -13 12.0625 C-15.75572235 14.73210602 -18.27760665 15.26881559 -22 16 C-24.21875 15.54296875 -24.21875 15.54296875 -26 15 C-22.6149237 13.0160725 -19.22470153 11.04122074 -15.83203125 9.0703125 C-13.93479774 7.96190742 -12.04543407 6.84081084 -10.15625 5.71875 C-8.89599029 4.97889925 -7.6355768 4.23931037 -6.375 3.5 C-5.77155762 3.13777344 -5.16811523 2.77554688 -4.54638672 2.40234375 C-3.06522105 1.5397751 -1.53559896 0.76145403 0 0 Z " fill="#F1CB4F" transform="translate(428,220)"/>
<path d="M0 0 C-0.66 0 -1.32 0 -2 0 C-2 0.99 -2 1.98 -2 3 C-2.99 3 -3.98 3 -5 3 C-5 3.66 -5 4.32 -5 5 C-5.93972656 5.50660156 -5.93972656 5.50660156 -6.8984375 6.0234375 C-7.71570313 6.46945313 -8.53296875 6.91546875 -9.375 7.375 C-10.18710938 7.81585938 -10.99921875 8.25671875 -11.8359375 8.7109375 C-14.10814302 9.9443893 -14.10814302 9.9443893 -16 12 C-18.625 12.125 -18.625 12.125 -21 12 C-21 12.66 -21 13.32 -21 14 C-23.97 14.66 -26.94 15.32 -30 16 C-27.22634268 13.00162507 -24.62226584 11.05792596 -21 9.1875 C-15.70319945 6.41095132 -10.61389592 3.37255918 -5.53125 0.22265625 C-3 -1 -3 -1 0 0 Z " fill="#DA574F" transform="translate(239,36)"/>
<path d="M0 0 C0 0.66 0 1.32 0 2 C-0.51385254 2.28198242 -1.02770508 2.56396484 -1.55712891 2.85449219 C-3.91461527 4.15023418 -6.26981334 5.45008302 -8.625 6.75 C-9.43324219 7.1934375 -10.24148438 7.636875 -11.07421875 8.09375 C-14.63366326 10.06157298 -18.09354711 12.01568212 -21.3984375 14.390625 C-22.25695312 14.92171875 -23.11546875 15.4528125 -24 16 C-24.99 15.67 -25.98 15.34 -27 15 C-26.07316406 14.44570312 -25.14632812 13.89140625 -24.19140625 13.3203125 C-22.98160991 12.58880774 -21.77198324 11.85702232 -20.5625 11.125 C-19.95083984 10.76019531 -19.33917969 10.39539063 -18.70898438 10.01953125 C-15.28457343 8.07848134 -15.28457343 8.07848134 -13 5 C-17.95 4.67 -22.9 4.34 -28 4 C-28 3.67 -28 3.34 -28 3 C-26.31583984 2.92652344 -26.31583984 2.92652344 -24.59765625 2.8515625 C-16.46397151 2.45845105 -7.91752936 0 0 0 Z " fill="#DBD87F" transform="translate(620,224)"/>
<path d="M0 0 C-0.1875 1.8125 -0.1875 1.8125 -1 4 C-3.76935615 6.13636046 -5.71973785 6.95603731 -9.1875 7.5 C-10.115625 7.665 -11.04375 7.83 -12 8 C-12.99 9.485 -12.99 9.485 -14 11 C-15.98828125 11.66015625 -15.98828125 11.66015625 -18.3125 12.0625 C-21.74378214 12.7210848 -24.79851946 13.55417008 -28 15 C-24.5592754 11.0957581 -20.62267825 8.85078619 -16.125 6.375 C-15.43019531 5.98054688 -14.73539063 5.58609375 -14.01953125 5.1796875 C-4.72759185 0 -4.72759185 0 0 0 Z " fill="#E5483E" transform="translate(109,111)"/>
<path d="M0 0 C3.40402707 0.66966084 6.02538862 1.98854555 9.03515625 3.6953125 C10.01033203 4.24703125 10.98550781 4.79875 11.99023438 5.3671875 C13.00408203 5.94726562 14.01792969 6.52734375 15.0625 7.125 C16.54266602 7.9603125 16.54266602 7.9603125 18.05273438 8.8125 C24.01521465 12.20178152 29.84602716 15.74700933 35.60449219 19.47241211 C38.67712535 21.43179508 41.81494566 23.23052537 45 25 C43 26 43 26 40.8359375 25.44140625 C40.02382813 25.15136719 39.21171875 24.86132812 38.375 24.5625 C37.55773437 24.27503906 36.74046875 23.98757812 35.8984375 23.69140625 C35.27195312 23.46324219 34.64546875 23.23507813 34 23 C34 22.34 34 21.68 34 21 C33.34 21 32.68 21 32 21 C30.99509155 20.00493267 29.99615347 19.00383179 29 18 C25.50651679 15.66658682 21.86731724 13.57265673 18.25 11.4375 C17.27289063 10.84775391 16.29578125 10.25800781 15.2890625 9.65039062 C10.2558437 6.66912423 5.73739398 4.22600737 0 3 C0 2.01 0 1.02 0 0 Z " fill="#B4E3CC" transform="translate(462,42)"/>
<path d="M0 0 C0 0.66 0 1.32 0 2 C0.57967529 1.98428955 1.15935059 1.9685791 1.7565918 1.95239258 C4.40012739 1.88977209 7.04350655 1.85092482 9.6875 1.8125 C11.05551758 1.77479492 11.05551758 1.77479492 12.45117188 1.73632812 C17.57601449 1.68042075 20.74976327 1.84452121 25 5 C28.19395026 5.71401232 28.19395026 5.71401232 31 6 C31 6.66 31 7.32 31 8 C31.928125 8.1546875 31.928125 8.1546875 32.875 8.3125 C35 9 35 9 37 12 C28.8073197 9.36167922 28.8073197 9.36167922 25.0703125 7.6875 C16.20007037 3.7943264 8.5214512 3.19601739 -1 4 C-1.99 4.495 -1.99 4.495 -3 5 C-4.99960012 5.039992 -7.00047242 5.04346799 -9 5 C-2.87096774 0 -2.87096774 0 0 0 Z " fill="#AF5977" transform="translate(81,127)"/>
<path d="M0 0 C4.98961424 1.43547364 9.00478453 3.60315552 13.375 6.3125 C14.03185791 6.71331787 14.68871582 7.11413574 15.36547852 7.52709961 C17.24783293 8.67811266 19.12487989 9.83724809 21 11 C21.90878906 11.56203125 22.81757813 12.1240625 23.75390625 12.703125 C25.50725169 13.79465311 27.25461986 14.89577991 29 16 C28.34 16.33 27.68 16.66 27 17 C25.989375 16.38125 24.97875 15.7625 23.9375 15.125 C19.77370055 12.57752776 15.80395306 12.21786635 11 12 C11.33 11.01 11.66 10.02 12 9 C10.88625 8.566875 10.88625 8.566875 9.75 8.125 C7.43260203 7.17697356 5.22082885 6.15154089 3 5 C3 4.01 3 3.02 3 2 C2.01 1.67 1.02 1.34 0 1 C0 0.67 0 0.34 0 0 Z " fill="#9CBEF1" transform="translate(224,200)"/>
<path d="M0 0 C4.04025717 4.04025717 4.27029165 9.88906375 4.37988281 15.35644531 C4.37827148 16.10506836 4.37666016 16.85369141 4.375 17.625 C4.37338867 18.4097168 4.37177734 19.19443359 4.37011719 20.00292969 C4.17355473 29.45719828 1.99023464 38.5122067 -4 46 C-4.33 45.34 -4.66 44.68 -5 44 C-4.07421875 41.6796875 -4.07421875 41.6796875 -2.6875 38.875 C1.3647847 30.2203975 2.3968824 22.52290942 3 13 C2.34 13 1.68 13 1 13 C0.67 8.71 0.34 4.42 0 0 Z " fill="#C4DDF9" transform="translate(305,259)"/>
<path d="M0 0 C0.99 0.33 1.98 0.66 3 1 C-2.75 6 -2.75 6 -5 6 C-5.2475 6.639375 -5.495 7.27875 -5.75 7.9375 C-7 10 -7 10 -8.9375 10.5625 C-9.618125 10.706875 -10.29875 10.85125 -11 11 C-11.7115625 11.7734375 -11.7115625 11.7734375 -12.4375 12.5625 C-14 14 -14 14 -16.6875 14.1875 C-17.450625 14.125625 -18.21375 14.06375 -19 14 C-17.52077069 10.00952093 -15.48207714 8.8762355 -11.75 7 C-8.51431105 5.33556838 -5.43987392 3.70801405 -2.5 1.5625 C-1.675 1.046875 -0.85 0.53125 0 0 Z " fill="#DF6960" transform="translate(173,71)"/>
<path d="M0 0 C1.98203709 0.61583656 3.9605772 1.24293834 5.9375 1.875 C7.59072266 2.39707031 7.59072266 2.39707031 9.27734375 2.9296875 C12 4 12 4 13 6 C14.38424504 6.86658316 15.80788439 7.67107763 17.25 8.4375 C20.5514972 10.21725447 23.80103658 12.039345 27 14 C24.3333581 15.33332095 22.83319697 14.67102033 20 14 C20 13.34 20 12.68 20 12 C19.071875 12.103125 18.14375 12.20625 17.1875 12.3125 C15.6096875 12.1578125 15.6096875 12.1578125 14 12 C12.375 9.5625 12.375 9.5625 11 7 C8.91466367 6.12177688 8.91466367 6.12177688 7 6 C7 5.34 7 4.68 7 4 C5.68 4 4.36 4 3 4 C3 3.34 3 2.68 3 2 C2.01 2 1.02 2 0 2 C0 1.34 0 0.68 0 0 Z " fill="#7D6DB7" transform="translate(112,137)"/>
<path d="M0 0 C0.66 0 1.32 0 2 0 C2 0.66 2 1.32 2 2 C4.31 2.66 6.62 3.32 9 4 C9 4.66 9 5.32 9 6 C9.721875 6.28875 10.44375 6.5775 11.1875 6.875 C13.79166667 7.91666667 16.39583333 8.95833333 19 10 C19 10.66 19 11.32 19 12 C19.5775 12.12375 20.155 12.2475 20.75 12.375 C23.02335767 13.00648824 24.9253529 13.88858191 27 15 C25 16 25 16 23.0546875 15.44140625 C22.33539062 15.15136719 21.61609375 14.86132812 20.875 14.5625 C20.15054688 14.27503906 19.42609375 13.98757812 18.6796875 13.69140625 C17.84824219 13.34916016 17.84824219 13.34916016 17 13 C17 12.34 17 11.68 17 11 C15.35 11.33 13.7 11.66 12 12 C12 11.01 12 10.02 12 9 C9.69 9 7.38 9 5 9 C4.731875 8.236875 4.46375 7.47375 4.1875 6.6875 C3.04879949 4.11044096 2.04475081 2.85886437 0 1 C0 0.67 0 0.34 0 0 Z " fill="#EBBF11" transform="translate(519,188)"/>
<path d="M0 0 C0.66 0.33 1.32 0.66 2 1 C-14.55037954 12.52396797 -14.55037954 12.52396797 -22 14 C-22 13.34 -22 12.68 -22 12 C-16.25 9 -16.25 9 -14 9 C-13.34 7.68 -12.68 6.36 -12 5 C-11.34 5 -10.68 5 -10 5 C-10 4.01 -10 3.02 -10 2 C-8.63875 2.061875 -8.63875 2.061875 -7.25 2.125 C-4.06287624 2.00241832 -2.72251062 1.45848783 0 0 Z " fill="#F7D984" transform="translate(518,282)"/>
<path d="M0 0 C15.05464481 4.75409836 15.05464481 4.75409836 21 10 C22.31138904 10.70885894 23.63777017 11.39456452 25 12 C24.67 12.66 24.34 13.32 24 14 C18.25605213 12.44783286 13.6257016 9.55197205 8.625 6.4375 C7.37783203 5.67663086 7.37783203 5.67663086 6.10546875 4.90039062 C1.60927064 2.12810427 1.60927064 2.12810427 0 1 C0 0.67 0 0.34 0 0 Z " fill="#96B8F1" transform="translate(125,257)"/>
<path d="M0 0 C-1.24136719 0.04898438 -2.48273438 0.09796875 -3.76171875 0.1484375 C-5.40366694 0.22349799 -7.04559297 0.29904439 -8.6875 0.375 C-9.50412109 0.4059375 -10.32074219 0.436875 -11.16210938 0.46875 C-15.57156447 0.68297454 -18.92310647 1.19451858 -23 3 C-25.23828125 3.1953125 -25.23828125 3.1953125 -27.3125 3.125 C-28.529375 3.08375 -29.74625 3.0425 -31 3 C-23.80852597 -2.93866068 -7.80799627 -5.20533085 0 0 Z " fill="#F5CAC8" transform="translate(270,32)"/>
<path d="M0 0 C-4.89824726 5.36094814 -12.34927697 9.17344271 -19 12 C-19.66 11.67 -20.32 11.34 -21 11 C-20.01 10.34 -19.02 9.68 -18 9 C-18 8.01 -18 7.02 -18 6 C-14.535 5.505 -14.535 5.505 -11 5 C-10.67 3.68 -10.34 2.36 -10 1 C-6.59437148 0.22157062 -3.49234244 -0.09978121 0 0 Z " fill="#F4AAA7" transform="translate(214,163)"/>
<path d="M0 0 C1.69141656 0.08963062 3.37959602 0.24577676 5.0625 0.4375 C6.44115234 0.59025391 6.44115234 0.59025391 7.84765625 0.74609375 C8.55792969 0.82988281 9.26820313 0.91367188 10 1 C7.76036124 4.35945814 6.14134109 5.2489896 2.625 7.125 C1.66851562 7.64320313 0.71203125 8.16140625 -0.2734375 8.6953125 C-2.56181248 9.79032288 -4.52509808 10.51909489 -7 11 C-5.625 9.5 -5.625 9.5 -4 8 C-3.34 8 -2.68 8 -2 8 C-1.855625 6.865625 -1.71125 5.73125 -1.5625 4.5625 C-1 1 -1 1 0 0 Z " fill="#E87870" transform="translate(221,152)"/>
<path d="M0 0 C0.66 0.33 1.32 0.66 2 1 C0.9054851 2.65226769 -0.2009517 4.29664298 -1.3125 5.9375 C-1.92738281 6.85402344 -2.54226563 7.77054688 -3.17578125 8.71484375 C-5 11 -5 11 -8 12 C-8.33 12.66 -8.66 13.32 -9 14 C-9.99 14 -10.98 14 -12 14 C-11.34 12.35 -10.68 10.7 -10 9 C-9.34 9 -8.68 9 -8 9 C-7.79375 8.443125 -7.5875 7.88625 -7.375 7.3125 C-5.44999226 4.07498698 -2.96149098 2.31768859 0 0 Z " fill="#63B991" transform="translate(400,39)"/>
<path d="M0 0 C1.98 0 3.96 0 6 0 C6.33 0.66 6.66 1.32 7 2 C9.53934695 3.3358023 12.13683282 4.49950237 14.75 5.68359375 C17 7 17 7 18 10 C18.99 10.33 19.98 10.66 21 11 C20.01 11.495 20.01 11.495 19 12 C16.93359375 10.9609375 16.93359375 10.9609375 14.4375 9.375 C9.70309196 6.42547068 4.89520941 3.67226408 0 1 C0 0.67 0 0.34 0 0 Z " fill="#98BDED" transform="translate(104,245)"/>
<path d="M0 0 C4.85745385 0.59237242 8.66821752 1.79164031 13 4 C13.33 4.99 13.66 5.98 14 7 C15.95597184 8.39712274 17.95436401 9.73779907 20 11 C13.06297508 11 5.53364639 5.03806629 0 1 C0 0.67 0 0.34 0 0 Z " fill="#ABC7F4" transform="translate(214,308)"/>
<path d="M0 0 C0.66 0.33 1.32 0.66 2 1 C0.865625 1.66386719 -0.26875 2.32773438 -1.4375 3.01171875 C-2.95836841 3.90358603 -4.47919976 4.7955165 -6 5.6875 C-6.74378906 6.12255859 -7.48757813 6.55761719 -8.25390625 7.00585938 C-8.99511719 7.44091797 -9.73632812 7.87597656 -10.5 8.32421875 C-11.24507812 8.76040527 -11.99015625 9.1965918 -12.7578125 9.64599609 C-15.66031291 11.39874732 -18.47339388 13.27896709 -21.2734375 15.19067383 C-23 16 -23 16 -26 15 C-23.963006 13.70043409 -21.92092385 12.4103739 -19.875 11.125 C-19.30523438 10.76019531 -18.73546875 10.39539063 -18.1484375 10.01953125 C-14.53527295 7.7613034 -11.09113959 6.1813321 -7 5 C-7 4.34 -7 3.68 -7 3 C-4.69631264 1.93347808 -2.35981813 0.93578995 0 0 Z " fill="#FBE4A5" transform="translate(591,240)"/>
<path d="M0 0 C1.98 0 3.96 0 6 0 C3.76036124 3.35945814 2.14134109 4.2489896 -1.375 6.125 C-2.33148438 6.64320313 -3.28796875 7.16140625 -4.2734375 7.6953125 C-6.56181248 8.79032288 -8.52509808 9.51909489 -11 10 C-10.67 8.35 -10.34 6.7 -10 5 C-7.69 5 -5.38 5 -3 5 C-3 4.01 -3 3.02 -3 2 C-2.01 2 -1.02 2 0 2 C0 1.34 0 0.68 0 0 Z " fill="#E99791" transform="translate(270,127)"/>
<path d="M0 0 C-4.95 2.97 -4.95 2.97 -10 6 C-8.68 6.33 -7.36 6.66 -6 7 C-7 8 -7 8 -10.0625 8.0625 C-11.031875 8.041875 -12.00125 8.02125 -13 8 C-13.33 8.99 -13.66 9.98 -14 11 C-15.98 11.33 -17.96 11.66 -20 12 C-16.07465925 6.25217962 -7.24275608 -2.41425203 0 0 Z " fill="#A3B3E5" transform="translate(81,127)"/>
<path d="M0 0 C0 3.19313396 -0.49628306 5.88379546 -1.1875 9 C-1.51814453 10.5778125 -1.51814453 10.5778125 -1.85546875 12.1875 C-3.25573609 15.62842997 -4.70017161 16.44459807 -8 18 C-6.55707191 10.7501662 -5.38542339 5.23987141 0 0 Z " fill="#F4CD58" transform="translate(391,245)"/>
<path d="M0 0 C2.375 0.3125 2.375 0.3125 5 1 C5.66 1.99 6.32 2.98 7 4 C7 3.34 7 2.68 7 2 C7.66 2 8.32 2 9 2 C9.79953138 5.28696233 10.09658936 6.71023192 9 10 C5.17647894 8.4422692 2.70794407 6.08404742 0 3 C0 2.01 0 1.02 0 0 Z " fill="#81ADEF" transform="translate(49,208)"/>
<path d="M0 0 C-1 3 -1 3 -4 5 C-5.90234375 5.66796875 -5.90234375 5.66796875 -7.9375 6.1875 C-8.60652344 6.36667969 -9.27554687 6.54585937 -9.96484375 6.73046875 C-12.24680888 7.03268678 -13.82026659 6.68756692 -16 6 C-14.27121286 5.0026228 -12.54143106 4.0068947 -10.8046875 3.0234375 C-9.48831881 2.27692538 -8.17937359 1.51727858 -6.875 0.75 C-4.50572363 -0.19771055 -2.52693627 -0.14038535 0 0 Z " fill="#79C4A1" transform="translate(418,32)"/>
<path d="M0 0 C0.66 0.33 1.32 0.66 2 1 C1.54625 1.433125 1.0925 1.86625 0.625 2.3125 C-1.20024334 4.10798342 -1.20024334 4.10798342 -3 7 C-4.32 7 -5.64 7 -7 7 C-7 7.66 -7 8.32 -7 9 C-9.70879335 10.35439668 -12.00933268 10.06501451 -15 10 C-12.38221206 7.0447272 -9.32416665 5.24167273 -5.9375 3.25 C-4.87402344 2.61578125 -3.81054688 1.9815625 -2.71484375 1.328125 C-1.81894531 0.88984375 -0.92304688 0.4515625 0 0 Z " fill="#F8DB7B" transform="translate(445,210)"/>
<path d="M0 0 C1.32 0 2.64 0 4 0 C4 0.99 4 1.98 4 3 C5.65 3.33 7.3 3.66 9 4 C9.33 5.32 9.66 6.64 10 8 C11.32 8.33 12.64 8.66 14 9 C14 10.32 14 11.64 14 13 C9.7548938 12.52400411 8.02531723 10.18784481 5.3125 7.0625 C4.52488281 6.16660156 3.73726563 5.27070312 2.92578125 4.34765625 C1 2 1 2 0 0 Z " fill="#48AC7E" transform="translate(391,110)"/>
<path d="M0 0 C2.62349813 0.97444216 4.91463522 1.94309015 7.25 3.5 C11.00040071 5.54567312 14.82621052 6.22707602 19 7 C19.33 8.65 19.66 10.3 20 12 C15.28914613 10.62749022 11.3165464 8.59889808 7.1875 6 C6.60291016 5.64421875 6.01832031 5.2884375 5.41601562 4.921875 C1.12991071 2.25982143 1.12991071 2.25982143 0 0 Z " fill="#ABC9F5" transform="translate(169,282)"/>
<path d="M0 0 C3.3 0.33 6.6 0.66 10 1 C10.33 1.99 10.66 2.98 11 4 C11.825 4.309375 12.65 4.61875 13.5 4.9375 C14.7375 5.4634375 14.7375 5.4634375 16 6 C16.8125 8.125 16.8125 8.125 17 10 C12.97683781 8.51463956 9.38707358 6.60123107 5.6875 4.4375 C4.61886719 3.81746094 3.55023438 3.19742188 2.44921875 2.55859375 C1.64097656 2.04425781 0.83273438 1.52992188 0 1 C0 0.67 0 0.34 0 0 Z " fill="#A9C9F2" transform="translate(68,224)"/>
<path d="M0 0 C0.66 0.33 1.32 0.66 2 1 C1.030625 1.61875 0.06125 2.2375 -0.9375 2.875 C-4.02835362 4.65678846 -4.02835362 4.65678846 -5 7 C-5.66 7 -6.32 7 -7 7 C-7.66 8.32 -8.32 9.64 -9 11 C-11.64 11 -14.28 11 -17 11 C-14.21503399 7.75258576 -10.60463249 5.83910905 -6.9375 3.75 C-6.30005859 3.37359375 -5.66261719 2.9971875 -5.00585938 2.609375 C-3.3733501 1.67356357 -1.68928489 0.82894277 0 0 Z " fill="#EFA8A1" transform="translate(193,60)"/>
<path d="M0 0 C0.66 0.33 1.32 0.66 2 1 C1.5 2.875 1.5 2.875 0 5 C-1.95873239 5.52232864 -3.92261942 6.03464874 -5.91015625 6.43359375 C-9.03193301 7.27968278 -11.35751643 9.17962243 -14 11 C-16.875 11.75 -16.875 11.75 -19 12 C-17.58323053 9.16646105 -15.66123174 8.59023903 -12.875 7.125 C-9.50901944 5.34352525 -6.19310516 3.53788833 -2.9375 1.5625 C-1.968125 1.046875 -0.99875 0.53125 0 0 Z " fill="#FBE4AF" transform="translate(428,220)"/>
<path d="M0 0 C4.54464201 1.72660612 8.88860115 3.79994391 13.25 5.9375 C13.9821875 6.28490234 14.714375 6.63230469 15.46875 6.99023438 C17.35241813 7.91637121 19.18150329 8.95166571 21 10 C21.33 10.99 21.66 11.98 22 13 C18.64236474 11.80858104 15.64389914 10.26451741 12.5625 8.5 C9.82976533 6.93778668 7.59856527 5.87592017 4.5625 4.9375 C2 4 2 4 0.625 1.875 C0.41875 1.25625 0.2125 0.6375 0 0 Z " fill="#ADE2C8" transform="translate(530,81)"/>
<path d="M0 0 C2.96175123 0.61277612 4.38058783 1.25372522 7 3 C8.134375 3.12375 9.26875 3.2475 10.4375 3.375 C14.38670615 4.06784318 15.61587595 4.85295626 18 8 C18 8.66 18 9.32 18 10 C18.66 10.33 19.32 10.66 20 11 C16.08642595 10.28844108 12.91761466 8.50164886 9.4375 6.625 C8.30183594 6.01914062 7.16617188 5.41328125 5.99609375 4.7890625 C3.55530039 3.33158746 1.83424962 2.12799067 0 0 Z " fill="#B0D0F4" transform="translate(149,271)"/>
<path d="M0 0 C4.00660357 0.55647272 6.07665236 2.55838114 9 5.25 C10.2684375 6.40242187 10.2684375 6.40242187 11.5625 7.578125 C13.92414747 9.92463371 15.97729625 12.35924788 18 15 C17.67 15.66 17.34 16.32 17 17 C16.01 16.67 15.02 16.34 14 16 C14 15.34 14 14.68 14 14 C13.34 14 12.68 14 12 14 C11.92652344 13.42507812 11.85304688 12.85015625 11.77734375 12.2578125 C10.72431305 9.19926102 9.02178182 7.94473158 6.5625 5.875 C5.75941406 5.19179687 4.95632813 4.50859375 4.12890625 3.8046875 C3.42636719 3.20914063 2.72382812 2.61359375 2 2 C1.34 1.34 0.68 0.68 0 0 Z " fill="#ABE0C9" transform="translate(625,136)"/>
<path d="M0 0 C-0.75 2.4375 -0.75 2.4375 -2 5 C-3.82421875 5.5625 -3.82421875 5.5625 -6 6 C-8.04765151 6.75853501 -10.07108556 7.56594411 -12.09765625 8.37890625 C-14 9 -14 9 -17 9 C-5 0 -5 0 0 0 Z " fill="#EFA69E" transform="translate(98,116)"/>
<path d="M0 0 C4.61394066 1.26883368 8.09326468 3.24950246 12.04296875 5.83984375 C14.1376794 7.17984793 14.1376794 7.17984793 17.3125 8.0625 C20.39929697 9.13928964 21.34387634 10.23979389 23 13 C18.09631288 12.14361445 14.24949489 9.25128907 10.0703125 6.69140625 C7.05003969 4.89419343 7.05003969 4.89419343 3.6796875 3.96484375 C2.79539062 3.64644531 1.91109375 3.32804688 1 3 C0.67 2.01 0.34 1.02 0 0 Z " fill="#C7BE25" transform="translate(552,208)"/>
<path d="M0 0 C1.98 0 3.96 0 6 0 C6.33 1.32 6.66 2.64 7 4 C8.98 4 10.96 4 13 4 C13.12375 4.639375 13.2475 5.27875 13.375 5.9375 C13.58125 6.618125 13.7875 7.29875 14 8 C14.66 8.33 15.32 8.66 16 9 C12.10830371 8.31989774 9.12818084 6.49100513 5.75 4.5 C4.67234375 3.8709375 3.5946875 3.241875 2.484375 2.59375 C1.66453125 2.0678125 0.8446875 1.541875 0 1 C0 0.67 0 0.34 0 0 Z " fill="#A5C5F2" transform="translate(198,299)"/>
<path d="M0 0 C3.96 1.98 3.96 1.98 8 4 C8 4.66 8 5.32 8 6 C10.97 6.495 10.97 6.495 14 7 C14 7.99 14 8.98 14 10 C13.34 10 12.68 10 12 10 C12 9.34 12 8.68 12 8 C9.36 8 6.72 8 4 8 C4.33 6.68 4.66 5.36 5 4 C4.01 4 3.02 4 2 4 C2 3.34 2 2.68 2 2 C1.34 2 0.68 2 0 2 C0 1.34 0 0.68 0 0 Z " fill="#4E86E6" transform="translate(272,229)"/>
<path d="M0 0 C8.13734658 0.34774985 8.13734658 0.34774985 11.5625 2.9375 C13 5 13 5 13 7 C7.83572624 5.7605743 4.24563172 4.21011179 0 1 C0 0.67 0 0.34 0 0 Z " fill="#4F86E8" transform="translate(227,314)"/>
<path d="M0 0 C0.33 0 0.66 0 1 0 C1.58974578 9.09191414 0.08745074 16.45437743 -3 25 C-3.33 25 -3.66 25 -4 25 C-4.042721 23.33388095 -4.04063832 21.66617115 -4 20 C-3.67 19.67 -3.34 19.34 -3 19 C-2.79395915 17.67218122 -2.6337041 16.33704105 -2.5 15 C-2.11111111 11.11111111 -2.11111111 11.11111111 -1 10 C-0.76712992 8.31816052 -0.58735834 6.6287584 -0.4375 4.9375 C-0.31181641 3.55884766 -0.31181641 3.55884766 -0.18359375 2.15234375 C-0.12300781 1.44207031 -0.06242187 0.73179687 0 0 Z " fill="#598EE2" transform="translate(307,272)"/>
<path d="M0 0 C-9.05263158 6.31578947 -9.05263158 6.31578947 -13.3125 5.625 C-13.869375 5.41875 -14.42625 5.2125 -15 5 C-14.01 5 -13.02 5 -12 5 C-12 4.01 -12 3.02 -12 2 C-10.37787941 1.47026689 -8.75218416 0.95146893 -7.125 0.4375 C-6.22007812 0.14746094 -5.31515625 -0.14257812 -4.3828125 -0.44140625 C-2 -1 -2 -1 0 0 Z " fill="#9FC1F1" transform="translate(287,319)"/>
<path d="M0 0 C-0.6171875 1.890625 -0.6171875 1.890625 -2 4 C-4.8203125 5.046875 -4.8203125 5.046875 -8.125 5.75 C-9.76855469 6.11351562 -9.76855469 6.11351562 -11.4453125 6.484375 C-12.70988281 6.73960938 -12.70988281 6.73960938 -14 7 C-11.84767979 4.71315977 -9.63943055 2.94963331 -7 1.25 C-6.319375 0.80140625 -5.63875 0.3528125 -4.9375 -0.109375 C-3 -1 -3 -1 0 0 Z " fill="#F0ADA2" transform="translate(209,53)"/>
<path d="M0 0 C-0.66 0 -1.32 0 -2 0 C-2 0.99 -2 1.98 -2 3 C-3.19625 3.433125 -4.3925 3.86625 -5.625 4.3125 C-8.3501696 5.32235895 -10.77939773 6.40413216 -13.375 7.75 C-14.674375 8.36875 -14.674375 8.36875 -16 9 C-16.66 8.67 -17.32 8.34 -18 8 C-15.56969216 6.46648472 -13.13194897 4.94816498 -10.6875 3.4375 C-9.65206055 2.78104492 -9.65206055 2.78104492 -8.59570312 2.11132812 C-7.92861328 1.70205078 -7.26152344 1.29277344 -6.57421875 0.87109375 C-5.96151123 0.48880615 -5.34880371 0.10651855 -4.7175293 -0.28735352 C-3 -1 -3 -1 0 0 Z " fill="#F5BFBA" transform="translate(239,36)"/>
<path d="M0 0 C7.16707877 0.32577631 12.76927124 3.65443628 19 7 C18.67 7.66 18.34 8.32 18 9 C15.525 8.505 15.525 8.505 13 8 C13 7.01 13 6.02 13 5 C12.34 4.896875 11.68 4.79375 11 4.6875 C7.16158991 3.80786436 3.66903309 2.43030104 0 1 C0 0.67 0 0.34 0 0 Z " fill="#F6BBB7" transform="translate(270,32)"/>
<path d="M0 0 C7.77449624 -0.31732638 15.32992235 0.88144701 23 2 C23 2.33 23 2.66 23 3 C20.47886908 3.05447822 17.9589415 3.09389852 15.4375 3.125 C14.73302734 3.14175781 14.02855469 3.15851563 13.30273438 3.17578125 C8.48108178 3.22022044 4.57702562 2.52768004 0 1 C0 0.67 0 0.34 0 0 Z " fill="#6292E6" transform="translate(244,323)"/>
<path d="M0 0 C2.475 0.495 2.475 0.495 5 1 C5 1.66 5 2.32 5 3 C5.721875 2.87625 6.44375 2.7525 7.1875 2.625 C10.45013736 3.06001831 10.8041996 3.55561151 12.8125 6 C13.534375 6.99 14.25625 7.98 15 9 C9.26800429 7.53025751 4.66416601 4.55513098 0 1 C0 0.67 0 0.34 0 0 Z " fill="#489B37" transform="translate(545,202)"/>
<path d="M0 0 C0.99 0.33 1.98 0.66 3 1 C1.42652824 2.035969 -0.15921546 3.05331732 -1.75 4.0625 C-2.63171875 4.63097656 -3.5134375 5.19945312 -4.421875 5.78515625 C-7 7 -7 7 -9.1875 6.75 C-11.18128172 5.92498687 -13.09798144 5.01893851 -15 4 C-13 3 -13 3 -10.75 3.5 C-7.5717402 4.07786542 -5.14100338 3.65741931 -2 3 C-2 2.34 -2 1.68 -2 1 C-1.34 0.67 -0.68 0.34 0 0 Z " fill="#D25050" transform="translate(194,171)"/>
<path d="M0 0 C5.63743552 1.62859248 5.63743552 1.62859248 7.44140625 3.4765625 C9.25693609 5.25114054 10.72472877 5.78750468 13.125 6.5625 C15.2578125 7.25390625 15.2578125 7.25390625 17 8 C17.33 8.66 17.66 9.32 18 10 C14.37 9.01 10.74 8.02 7 7 C7 6.34 7 5.68 7 5 C6.01 5 5.02 5 4 5 C4 4.34 4 3.68 4 3 C3.01 3 2.02 3 1 3 C0.67 2.01 0.34 1.02 0 0 Z " fill="#7372BB" transform="translate(156,162)"/>
<path d="M0 0 C-0.66 1.98 -1.32 3.96 -2 6 C-2.99 5.67 -3.98 5.34 -5 5 C-5.33 5.99 -5.66 6.98 -6 8 C-6.99 7.67 -7.98 7.34 -9 7 C-9 6.01 -9 5.02 -9 4 C-2.25 0 -2.25 0 0 0 Z " fill="#E04F43" transform="translate(154,85)"/>
<path d="M0 0 C0.99 0.33 1.98 0.66 3 1 C-2.15970723 5.65632116 -7.05818947 8.61163789 -14 10 C-10.83738854 6.28736916 -7.17202588 4.29552268 -2.92578125 2.05078125 C-1.05163632 1.14564631 -1.05163632 1.14564631 0 0 Z " fill="#F5BBB7" transform="translate(173,71)"/>
<path d="M0 0 C0.33 0 0.66 0 1 0 C1.05434116 2.5419589 1.0938339 5.08273682 1.125 7.625 C1.15013672 8.69427734 1.15013672 8.69427734 1.17578125 9.78515625 C1.21684602 14.2612164 0.69086567 17.77949278 -1 22 C-1.33 22 -1.66 22 -2 22 C-2.02689216 20.52093108 -2.04634621 19.04172517 -2.0625 17.5625 C-2.07410156 16.73878906 -2.08570313 15.91507813 -2.09765625 15.06640625 C-2 13 -2 13 -1 12 C-0.76572222 9.98405418 -0.58663876 7.961526 -0.4375 5.9375 C-0.35371094 4.83277344 -0.26992188 3.72804688 -0.18359375 2.58984375 C-0.12300781 1.73519531 -0.06242187 0.88054687 0 0 Z " fill="#DE6258" transform="translate(307,72)"/>
<path d="M0 0 C0.33 0.66 0.66 1.32 1 2 C0.07421875 3.91015625 0.07421875 3.91015625 -1.3125 6.0625 C-1.76238281 6.77535156 -2.21226562 7.48820312 -2.67578125 8.22265625 C-4 10 -4 10 -6 11 C-6.125 8.125 -6.125 8.125 -6 5 C-5.34 4.34 -4.68 3.68 -4 3 C-3.01 3 -2.02 3 -1 3 C-0.67 2.01 -0.34 1.02 0 0 Z " fill="#4E86E7" transform="translate(302,297)"/>
<path d="M0 0 C0.33 0 0.66 0 1 0 C1.6319296 6.00333124 -0.62455877 10.63404795 -3 16 C-3.33 16 -3.66 16 -4 16 C-4.14285714 8.57142857 -4.14285714 8.57142857 -3 5 C-2.01 5 -1.02 5 0 5 C0 3.35 0 1.7 0 0 Z " fill="#249B62" transform="translate(647,186)"/>
<path d="M0 0 C1.98 0 3.96 0 6 0 C6 0.66 6 1.32 6 2 C6.78375 2.0825 7.5675 2.165 8.375 2.25 C11 3 11 3 12.3125 5.0625 C12.6528125 6.0215625 12.6528125 6.0215625 13 7 C11.32986582 6.34206835 9.6642135 5.67276716 8 5 C7.08154297 4.63841797 7.08154297 4.63841797 6.14453125 4.26953125 C1.11287193 2.22574386 1.11287193 2.22574386 0 0 Z " fill="#53AC66" transform="translate(496,175)"/>
<path d="M0 0 C2.87525669 -0.05425013 5.74947646 -0.09379277 8.625 -0.125 C9.43324219 -0.14175781 10.24148438 -0.15851562 11.07421875 -0.17578125 C15.80093815 -0.21420986 19.55387702 0.17262906 24 2 C24 2.33 24 2.66 24 3 C21.66705225 3.04241723 19.33297433 3.04092937 17 3 C16.67 2.67 16.34 2.34 16 2 C13.30764224 1.76321284 10.63501844 1.57801975 7.9375 1.4375 C7.17888672 1.39431641 6.42027344 1.35113281 5.63867188 1.30664062 C3.75934562 1.20026367 1.87969756 1.09960066 0 1 C0 0.67 0 0.34 0 0 Z " fill="#D7544B" transform="translate(252,32)"/>
<path d="M0 0 C2.64 0.33 5.28 0.66 8 1 C8 2.32 8 3.64 8 5 C8.66 5.66 9.32 6.32 10 7 C6.50841798 6.35341074 3.9025144 5.03960471 1 3 C0.67 2.01 0.34 1.02 0 0 Z " fill="#6FC19A" transform="translate(435,139)"/>
<path d="M0 0 C1.32 0.33 2.64 0.66 4 1 C-2.93 4.465 -2.93 4.465 -10 8 C-10 7.01 -10 6.02 -10 5 C-9.2575 4.71125 -8.515 4.4225 -7.75 4.125 C-3.57356155 2.55533605 -3.57356155 2.55533605 0 0 Z " fill="#F0BF23" transform="translate(533,271)"/>
<path d="M0 0 C0 0.66 0 1.32 0 2 C-1.65 2.66 -3.3 3.32 -5 4 C-4.67 5.32 -4.34 6.64 -4 8 C-8.875 6.25 -8.875 6.25 -10 4 C-6.58908673 0.88145073 -4.68377325 -0.53528837 0 0 Z " fill="#DA4842" transform="translate(148,146)"/>
<path d="M0 0 C-1.96330577 1.2325468 -3.92836817 2.46187231 -5.8984375 3.68359375 C-7.5536658 4.72041891 -9.18738263 5.79158842 -10.8125 6.875 C-11.534375 7.24625 -12.25625 7.6175 -13 8 C-13.99 7.67 -14.98 7.34 -16 7 C-14.58531689 6.03874097 -13.1681636 5.08111675 -11.75 4.125 C-10.96109375 3.59132813 -10.1721875 3.05765625 -9.359375 2.5078125 C-3.57207719 -1.1906924 -3.57207719 -1.1906924 0 0 Z " fill="#FBE7A7" transform="translate(558,261)"/>
<path d="M0 0 C3.98175544 2.10148204 6.35039045 4.36905358 9 8 C5.25 9.125 5.25 9.125 3 8 C2.66666667 6.33333333 2.33333333 4.66666667 2 3 C1.34 2.67 0.68 2.34 0 2 C0 1.34 0 0.68 0 0 Z " fill="#4D87E2" transform="translate(287,238)"/>
<path d="M0 0 C4.49797113 1.68673918 8.72886302 3.81673892 13 6 C13 6.66 13 7.32 13 8 C10.03 7.505 10.03 7.505 7 7 C7 6.34 7 5.68 7 5 C4.69 4.34 2.38 3.68 0 3 C0 2.01 0 1.02 0 0 Z " fill="#7677C0" transform="translate(174,172)"/>
<path d="M0 0 C1.48199902 0.44909061 2.96055236 0.90956564 4.4375 1.375 C5.26121094 1.63023437 6.08492187 1.88546875 6.93359375 2.1484375 C9 3 9 3 10 5 C10.99 5.33 11.98 5.66 13 6 C13 6.66 13 7.32 13 8 C12.34 7.731875 11.68 7.46375 11 7.1875 C7.35060933 5.74294953 3.67754567 4.37128822 0 3 C0 2.01 0 1.02 0 0 Z " fill="#7A6FB7" transform="translate(139,152)"/>
<path d="M0 0 C1.32 0 2.64 0 4 0 C4 0.66 4 1.32 4 2 C5.65 1.67 7.3 1.34 9 1 C9 2.32 9 3.64 9 5 C10.32 5.33 11.64 5.66 13 6 C11.375 6.75 11.375 6.75 9 7 C5.75 5.1875 5.75 5.1875 3 3 C3 2.34 3 1.68 3 1 C2.01 0.67 1.02 0.34 0 0 Z " fill="#449C3B" transform="translate(525,191)"/>
<path d="M0 0 C2.97 0 5.94 0 9 0 C9.33 1.98 9.66 3.96 10 6 C6.00499382 4.6302836 3.19990508 2.74277578 0 0 Z " fill="#439D3D" transform="translate(509,182)"/>
<path d="M0 0 C10.55808656 2.89066059 10.55808656 2.89066059 15 6 C12.3333581 7.33332095 10.83319697 6.67102033 8 6 C8 5.34 8 4.68 8 4 C6.02 4 4.04 4 2 4 C1.34 2.68 0.68 1.36 0 0 Z " fill="#6279D2" transform="translate(124,145)"/>
<path d="M0 0 C-0.99 0.33 -1.98 0.66 -3 1 C-3 1.99 -3 2.98 -3 4 C-5.97 4.66 -8.94 5.32 -12 6 C-4.89473684 -1.63157895 -4.89473684 -1.63157895 0 0 Z " fill="#F2BBB3" transform="translate(221,46)"/>
<path d="M0 0 C2.8125 -0.1875 2.8125 -0.1875 6 0 C7.5625 1.375 7.5625 1.375 9 3 C11.59915538 4.19027984 11.59915538 4.19027984 14 5 C11.26980214 6.06528748 10.20701188 6.07998186 7.421875 5.00390625 C6.54015625 4.52824219 5.6584375 4.05257813 4.75 3.5625 C3.85796875 3.08941406 2.9659375 2.61632812 2.046875 2.12890625 C1.37140625 1.75636719 0.6959375 1.38382812 0 1 C0 0.67 0 0.34 0 0 Z " fill="#FBE295" transform="translate(403,319)"/>
<path d="M0 0 C1.32 0 2.64 0 4 0 C4 0.66 4 1.32 4 2 C7.65079826 3.61064629 11.0507432 4.44894091 15 5 C14.67 5.99 14.34 6.98 14 8 C8.76481294 6.56032356 4.36973991 4.18303389 0 1 C0 0.67 0 0.34 0 0 Z " fill="#C2D8F9" transform="translate(135,263)"/>
<path d="M0 0 C0 0.66 0 1.32 0 2 C0.99 2.33 1.98 2.66 3 3 C-1.17737474 4.59138085 -4.53160785 5.21278058 -9 5 C-2.87096774 0 -2.87096774 0 0 0 Z " fill="#BC606F" transform="translate(81,127)"/>
<path d="M0 0 C0.66 0.33 1.32 0.66 2 1 C1.01 1.33 0.02 1.66 -1 2 C-1 2.99 -1 3.98 -1 5 C-1.99 5 -2.98 5 -4 5 C-4 5.66 -4 6.32 -4 7 C-5.32 7 -6.64 7 -8 7 C-6.89300099 3.78970286 -5.98396175 2.99031023 -3 1.1875 C-1.515 0.5996875 -1.515 0.5996875 0 0 Z " fill="#EFA49F" transform="translate(134,94)"/>
<path d="M0 0 C0.66 0.33 1.32 0.66 2 1 C-0.10515339 4.72450216 -1.24267224 6.6795921 -5.25 8.375 C-6.61125 8.684375 -6.61125 8.684375 -8 9 C-6.4169423 4.7257442 -3.49431596 2.73468206 0 0 Z " fill="#94D4B6" transform="translate(400,39)"/>
<path d="M0 0 C1.46067199 0.45082469 2.91848032 0.91093537 4.375 1.375 C5.18710937 1.63023438 5.99921875 1.88546875 6.8359375 2.1484375 C9 3 9 3 11 5 C8.03 4.505 8.03 4.505 5 4 C5 4.66 5 5.32 5 6 C3 5 3 5 0 3 C0 2.01 0 1.02 0 0 Z " fill="#279B64" transform="translate(442,33)"/>
<path d="M0 0 C3.515562 2.343708 4.42274025 4.13571362 6 8 C5.67 8.99 5.34 9.98 5 11 C4.67 10.01 4.34 9.02 4 8 C3.34 8 2.68 8 2 8 C0.23537317 4.91190305 0 3.76687864 0 0 Z " fill="#A6C3F2" transform="translate(299,248)"/>
<path d="M0 0 C1.44096586 0.42594588 2.87768712 0.86626633 4.3125 1.3125 C5.11300781 1.55613281 5.91351562 1.79976562 6.73828125 2.05078125 C9.09964573 3.04182023 10.33879993 4.08074943 12 6 C9.0703125 5.16992188 9.0703125 5.16992188 6.140625 4.33984375 C3.78041204 3.96513841 2.25580949 4.27346676 0 5 C0 3.35 0 1.7 0 0 Z " fill="#6DC199" transform="translate(608,127)"/>
<path d="M0 0 C7.50769231 0.61538462 7.50769231 0.61538462 10 2.5625 C10.33 3.036875 10.66 3.51125 11 4 C9 5 9 5 6.0625 4.25 C3.25169164 3.10273128 1.8842594 2.30298372 0 0 Z " fill="#73C19C" transform="translate(405,123)"/>
<path d="M0 0 C1.42122098 0.4008572 2.83686706 0.82150163 4.25 1.25 C5.43335938 1.59804688 5.43335938 1.59804688 6.640625 1.953125 C9 3 9 3 13 7 C9.37 6.01 5.74 5.02 2 4 C2 3.34 2 2.68 2 2 C1.34 2 0.68 2 0 2 C0 1.34 0 0.68 0 0 Z " fill="#88CBAB" transform="translate(494,61)"/>
<path d="M0 0 C2.64 0 5.28 0 8 0 C5.3401439 3.44216672 2.09711714 3.99504674 -2 5 C-2 4.34 -2 3.68 -2 3 C-1.34 3 -0.68 3 0 3 C0 2.01 0 1.02 0 0 Z " fill="#F9D569" transform="translate(467,308)"/>
<path d="M0 0 C4.455 0.99 4.455 0.99 9 2 C9.33 3.32 9.66 4.64 10 6 C6.00452264 5.38531118 3.22493358 3.34540624 0 1 C0 0.67 0 0.34 0 0 Z " fill="#AAC9F4" transform="translate(58,218)"/>
<path d="M0 0 C0.79921875 0.02707031 1.5984375 0.05414062 2.421875 0.08203125 C3.02515625 0.11683594 3.6284375 0.15164062 4.25 0.1875 C2.47555028 2.43356427 1.66647515 3.13831002 -1.23046875 3.48046875 C-2.12378906 3.44566406 -3.01710937 3.41085938 -3.9375 3.375 C-4.83855469 3.34792969 -5.73960937 3.32085937 -6.66796875 3.29296875 C-7.69857422 3.24076172 -7.69857422 3.24076172 -8.75 3.1875 C-5.74754796 0.56379764 -3.97853212 -0.17552348 0 0 Z " fill="#EC9B93" transform="translate(247.75,31.8125)"/>
<path d="M0 0 C0 0.99 0 1.98 0 3 C-5.445 4.485 -5.445 4.485 -11 6 C-7.57669246 2.57669246 -4.96703212 0 0 0 Z " fill="#FBE6A3" transform="translate(458,204)"/>
<path d="M0 0 C-2.6598561 3.44216672 -5.90288286 3.99504674 -10 5 C-10 3.68 -10 2.36 -10 1 C-6.59437148 0.22157062 -3.49234244 -0.09978121 0 0 Z " fill="#E37F78" transform="translate(214,163)"/>
<path d="M0 0 C1.98 0 3.96 0 6 0 C3.86889399 3.19665902 2.40670513 4.33819262 -1 6 C-1.99 5.67 -2.98 5.34 -4 5 C-3.01 4.34 -2.02 3.68 -1 3 C-0.67 2.01 -0.34 1.02 0 0 Z " fill="#F3AEAA" transform="translate(225,153)"/>
<path d="M0 0 C0.66 0.33 1.32 0.66 2 1 C2 1.99 2 2.98 2 4 C3.32 4.33 4.64 4.66 6 5 C3.03 5 0.06 5 -3 5 C-3 4.01 -3 3.02 -3 2 C-2.01 1.34 -1.02 0.68 0 0 Z " fill="#DF4D45" transform="translate(84,124)"/>
<path d="M0 0 C-0.309375 0.598125 -0.61875 1.19625 -0.9375 1.8125 C-2.10209704 4.08956772 -2.10209704 4.08956772 -3 7 C-3.99 6.67 -4.98 6.34 -6 6 C-5.6875 4.125 -5.6875 4.125 -5 2 C-2 0 -2 0 0 0 Z " fill="#E24D41" transform="translate(194,62)"/>
<path d="M0 0 C0.66 0 1.32 0 2 0 C2 0.66 2 1.32 2 2 C4.31 2.66 6.62 3.32 9 4 C9 4.66 9 5.32 9 6 C9.66 6.33 10.32 6.66 11 7 C9.35 7 7.7 7 6 7 C6 6.34 6 5.68 6 5 C5.195625 4.731875 4.39125 4.46375 3.5625 4.1875 C2.716875 3.795625 1.87125 3.40375 1 3 C0.67 2.01 0.34 1.02 0 0 Z " fill="#C8BD1F" transform="translate(519,188)"/>
<path d="M0 0 C1.98 0 3.96 0 6 0 C5.67 0.99 5.34 1.98 5 3 C1.9375 4.1875 1.9375 4.1875 -1 5 C-0.67 3.35 -0.34 1.7 0 0 Z " fill="#E98983" transform="translate(260,132)"/>
<path d="M0 0 C1.65 0 3.3 0 5 0 C3.6875 2.5 3.6875 2.5 2 5 C1.01 5 0.02 5 -1 5 C-0.67 3.35 -0.34 1.7 0 0 Z " fill="#F4D060" transform="translate(476,303)"/>
<path d="M0 0 C1.32 0 2.64 0 4 0 C4 0.66 4 1.32 4 2 C5.65 2 7.3 2 9 2 C9.33 3.32 9.66 4.64 10 6 C6.40992874 4.66654496 3.20429093 3.1056769 0 1 C0 0.67 0 0.34 0 0 Z " fill="#5B8DE1" transform="translate(124,255)"/>
<path d="M0 0 C2.8125 -0.3125 2.8125 -0.3125 6 0 C7.875 2.5 7.875 2.5 9 5 C5.51694958 4.35499066 2.93797836 2.95865224 0 1 C0 0.67 0 0.34 0 0 Z " fill="#AFC9F3" transform="translate(104,245)"/>
<path d="M0 0 C6.625 0.75 6.625 0.75 10 3 C10 3.66 10 4.32 10 5 C2.42857143 3.14285714 2.42857143 3.14285714 0 0 Z " fill="#409C35" transform="translate(572,218)"/>
<path d="M0 0 C3.73487777 0.4979837 5.81237635 0.87491756 9 3 C9 3.66 9 4.32 9 5 C9.66 5.33 10.32 5.66 11 6 C6.80639551 5.32902328 3.59665648 3.1441606 0 1 C0 0.67 0 0.34 0 0 Z " fill="#AFE1C8" transform="translate(462,156)"/>
<path d="M0 0 C0 0.66 0 1.32 0 2 C-2.90092502 3.93395001 -3.89674737 4.30131941 -7.1875 4.625 C-8.445625 4.74875 -9.70375 4.8725 -11 5 C-8.19602214 1.57291595 -4.43232801 0 0 0 Z " fill="#E5837C" transform="translate(109,111)"/>
<path d="M0 0 C3.4375 0.8125 3.4375 0.8125 7 2 C7.33 2.99 7.66 3.98 8 5 C5.03 4.505 5.03 4.505 2 4 C2 3.34 2 2.68 2 2 C1.34 2 0.68 2 0 2 C0 1.34 0 0.68 0 0 Z " fill="#83ACE8" transform="translate(200,187)"/>
<path d="M0 0 C0.33 0.66 0.66 1.32 1 2 C0.01 3.485 0.01 3.485 -1 5 C-2.65 4.67 -4.3 4.34 -6 4 C-4 1 -4 1 -1.875 0.3125 C-1.25625 0.209375 -0.6375 0.10625 0 0 Z " fill="#F8BA19" transform="translate(493,185)"/>
<path d="M0 0 C-1.75 1.5625 -1.75 1.5625 -4 3 C-6.25 2.6875 -6.25 2.6875 -8 2 C-8 1.34 -8 0.68 -8 0 C-4.94736336 -0.98120464 -3.05263664 -0.98120464 0 0 Z " fill="#F7DD79" transform="translate(565,257)"/>
<path d="M0 0 C3.3 0.33 6.6 0.66 10 1 C10.33 2.32 10.66 3.64 11 5 C9.35153231 4.55123384 7.70626545 4.09069512 6.0625 3.625 C5.14597656 3.36976563 4.22945313 3.11453125 3.28515625 2.8515625 C1 2 1 2 0 0 Z " fill="#85AEF0" transform="translate(68,224)"/>
<path d="M0 0 C0.66 0 1.32 0 2 0 C2 0.66 2 1.32 2 2 C2.5775 2.12375 3.155 2.2475 3.75 2.375 C6.02335767 3.00648824 7.9253529 3.88858191 10 5 C8 6 8 6 6.0546875 5.44140625 C5.33539062 5.15136719 4.61609375 4.86132812 3.875 4.5625 C3.15054688 4.27503906 2.42609375 3.98757812 1.6796875 3.69140625 C0.84824219 3.34916016 0.84824219 3.34916016 0 3 C0 2.01 0 1.02 0 0 Z " fill="#C5BC25" transform="translate(536,198)"/>
<path d="M0 0 C1.32 0 2.64 0 4 0 C4 0.66 4 1.32 4 2 C4.928125 2.1546875 4.928125 2.1546875 5.875 2.3125 C8 3 8 3 10 6 C7.0625 5.1875 7.0625 5.1875 4 4 C3.67 3.01 3.34 2.02 3 1 C2.01 0.67 1.02 0.34 0 0 Z " fill="#C15261" transform="translate(108,133)"/>
<path d="M0 0 C2.50298434 2.93828597 3.46930939 5.17902761 4 9 C3.01 9 2.02 9 1 9 C0.67 6.03 0.34 3.06 0 0 Z " fill="#ECA9A1" transform="translate(302,55)"/>
<path d="M0 0 C2.5 2.3125 2.5 2.3125 5 5 C5 5.99 5 6.98 5 8 C4.01 7.67 3.02 7.34 2 7 C0.8125 3.4375 0.8125 3.4375 0 0 Z " fill="#F0ADA5" transform="translate(296,47)"/>
<path d="M0 0 C0.66 0.33 1.32 0.66 2 1 C1.34 2.32 0.68 3.64 0 5 C-1.32 4.67 -2.64 4.34 -4 4 C-2.68 2.68 -1.36 1.36 0 0 Z " fill="#F3D364" transform="translate(428,220)"/>
<path d="M0 0 C-5.75 4 -5.75 4 -8 4 C-8 3.34 -8 2.68 -8 2 C-7.34 2 -6.68 2 -6 2 C-6 1.34 -6 0.68 -6 0 C-3.50907189 -1.24546405 -2.58919267 -0.7767578 0 0 Z " fill="#2A9A64" transform="translate(630,218)"/>
</svg>
