<?xml version="1.0" encoding="UTF-8"?>
<svg version="1.1" xmlns="http://www.w3.org/2000/svg" width="400" height="400">
<path d="M0 0 C132 0 264 0 400 0 C400 132 400 264 400 400 C268 400 136 400 0 400 C0 268 0 136 0 0 Z " fill="#034E84" transform="translate(0,0)"/>
<path d="M0 0 C4.42551256 3.43893333 7.49834786 7.23719022 9.02734375 12.6796875 C10.10009952 21.7249691 8.95332593 29.19487259 3.33984375 36.4296875 C-0.90584044 41.07871169 -7.05464341 44.28788622 -13.35546875 44.91796875 C-21.60825553 45.14133477 -27.63263416 43.33592254 -34.28515625 38.4296875 C-39.34254748 33.25468252 -42.07687458 26.85538993 -42.34765625 19.6171875 C-42.24185965 12.33645763 -40.04786669 6.7322861 -34.84765625 1.5703125 C-23.91132557 -7.37087677 -11.71098367 -7.83824254 0 0 Z " fill="#F4FAFA" transform="translate(218.97265625,180.3203125)"/>
<path d="M0 0 C4.62 0 9.24 0 14 0 C14.06058594 2.10761719 14.12117188 4.21523437 14.18359375 6.38671875 C14.24548699 8.43875343 14.3088315 10.49073857 14.37231445 12.54272461 C14.41549804 13.96357775 14.45718408 15.38447726 14.49731445 16.80541992 C14.55542095 18.8534947 14.61899638 20.90133965 14.68359375 22.94921875 C14.72025146 24.17987061 14.75690918 25.41052246 14.79467773 26.6784668 C14.97269423 29.55826984 15.34609105 32.19587088 16 35 C17.41543415 35.19658808 18.83244031 35.38187546 20.25 35.5625 C21.03890625 35.66691406 21.8278125 35.77132812 22.640625 35.87890625 C25.00532874 36.00027349 26.7511037 35.69633257 29 35 C29.94252553 30.95820902 30.19295494 27.09365556 30.31640625 22.94921875 C30.33718735 22.29041214 30.35796844 21.63160553 30.37937927 20.95283508 C30.44435489 18.86448815 30.50351575 16.77602388 30.5625 14.6875 C30.60573479 13.2649622 30.6493506 11.84243594 30.69335938 10.41992188 C30.80069409 6.94673266 30.90015174 3.47344467 31 0 C35.62 0 40.24 0 45 0 C45.09244233 4.39357848 45.17187966 8.78370961 45.21972656 13.17749023 C45.23969458 14.66816718 45.2668792 16.1587673 45.30175781 17.64916992 C45.53155651 27.72989803 45.11851424 35.58709558 38.8125 43.875 C32.82558507 48.39844683 26.20752787 49.64352614 18.78125 49.4140625 C12.52128996 48.48210216 7.5867547 45.86443677 3.5 41.0625 C0.7074265 35.36099577 -0.24622821 30.77852682 -0.1953125 24.4140625 C-0.19106766 23.36138687 -0.19106766 23.36138687 -0.18673706 22.28744507 C-0.17562512 20.06644972 -0.15053834 17.84587155 -0.125 15.625 C-0.11495854 14.11068295 -0.10583473 12.59635951 -0.09765625 11.08203125 C-0.07742461 7.38773444 -0.03826118 3.69432905 0 0 Z " fill="#E8F3F6" transform="translate(285,176)"/>
<path d="M0 0 C0.66 1.32 1.32 2.64 2 4 C0.02 6.64 -1.96 9.28 -4 12 C-4.94875 11.505 -5.8975 11.01 -6.875 10.5 C-11.51587433 8.47021308 -16.02390572 8.72966892 -21 9 C-20.78205817 10.97571524 -20.78205817 10.97571524 -20 13 C-17.21134074 14.02929054 -14.62292085 14.81144872 -11.75 15.5 C-5.54467675 17.01732187 -0.40800992 18.2891762 3.28515625 23.98046875 C4.80689556 28.27959019 4.90863182 32.74165295 3.1953125 37 C0.02638697 42.07028085 -4.27980242 44.53970787 -10 46 C-18.2002125 47.07199543 -24.65823261 45.64428309 -32 42 C-32.7321875 41.70867187 -33.464375 41.41734375 -34.21875 41.1171875 C-36 40 -36 40 -36.93359375 38.109375 C-37 36 -37 36 -35.78515625 34.078125 C-35.21667969 33.47484375 -34.64820313 32.8715625 -34.0625 32.25 C-33.49660156 31.63640625 -32.93070312 31.0228125 -32.34765625 30.390625 C-31.68056641 29.70226562 -31.68056641 29.70226562 -31 29 C-26.2815534 30.83495146 -26.2815534 30.83495146 -24.1875 32.0625 C-21.4171872 33.24977691 -19.25171013 33.19646929 -16.25 33.125 C-15.26515625 33.10695312 -14.2803125 33.08890625 -13.265625 33.0703125 C-12.51796875 33.04710937 -11.7703125 33.02390625 -11 33 C-10.67 31.68 -10.34 30.36 -10 29 C-11.08539063 28.75765625 -12.17078125 28.5153125 -13.2890625 28.265625 C-14.73452507 27.92772466 -16.17982939 27.58914687 -17.625 27.25 C-18.69427734 27.01410156 -18.69427734 27.01410156 -19.78515625 26.7734375 C-25.4602237 25.41975169 -29.92555018 23.35104313 -33.875 18.875 C-35.59088874 14.489951 -35.98284333 10.62638397 -35 6 C-32.54915331 1.75327427 -29.5427707 -1.15848871 -25.25 -3.5 C-16.39329379 -4.86257019 -7.97090021 -4.55480012 0 0 Z " fill="#F6FBFA" transform="translate(372,179)"/>
<path d="M0 0 C1.96589802 1.55596861 3.38526619 3.06231943 5 5 C3.77946141 8.66161578 2.63217696 9.16270474 -0.5625 11.1875 C-1.38878906 11.71730469 -2.21507812 12.24710938 -3.06640625 12.79296875 C-3.70449219 13.19128906 -4.34257812 13.58960938 -5 14 C-5.78375 13.360625 -6.5675 12.72125 -7.375 12.0625 C-11.17193249 9.0791959 -13.1673928 8.61339142 -18 9 C-20.22743787 10.41977909 -20.22743787 10.41977909 -22 12 C-22.66 12 -23.32 12 -24 12 C-25.60353166 17.59942911 -26.00949835 23.57720395 -23.75 29 C-21.04445141 32.09205554 -19.18221086 32.84579858 -15.125 33.375 C-11.21731236 32.90607748 -9.19537196 31.22286745 -6 29 C-1.86356447 29 -1.30197567 29.15232641 1.75 31.5 C2.36359375 31.9640625 2.9771875 32.428125 3.609375 32.90625 C4.06828125 33.2671875 4.5271875 33.628125 5 34 C4.61712558 36.56359397 4.2228978 37.77763418 2.36328125 39.6328125 C-5.15584069 45.10386885 -11.63041275 47.22046184 -21 46 C-28.7017806 43.5248223 -34.20077955 39.20463422 -38.02734375 32.08984375 C-41.0600663 25.06007673 -40.72538678 18.60503438 -38.5 11.375 C-35.91765078 4.90553563 -32.01947814 0.98835887 -25.796875 -2.08984375 C-16.67313789 -5.55112164 -8.53373764 -4.65341443 0 0 Z " fill="#F7FCFA" transform="translate(274,179)"/>
<path d="M0 0 C12.54 0 25.08 0 38 0 C38 3.96 38 7.92 38 12 C29.75 12 21.5 12 13 12 C13 14.64 13 17.28 13 20 C20.59 20 28.18 20 36 20 C36 23.63 36 27.26 36 31 C28.41 31 20.82 31 13 31 C13 36.61 13 42.22 13 48 C8.71 48 4.42 48 0 48 C0 32.16 0 16.32 0 0 Z " fill="#F3FBFC" transform="translate(134,176)"/>
<path d="M0 0 C5.26021057 2.63010528 10.4099175 5.452178 15.56274414 8.28491211 C16.80894535 8.96797773 18.05699068 9.64769001 19.30688477 10.32397461 C21.12460707 11.3079849 22.93579622 12.30319119 24.74609375 13.30078125 C26.36535767 14.18503784 26.36535767 14.18503784 28.01733398 15.0871582 C31.13118924 17.08413422 33.48772 19.29753235 36 22 C28.69199979 26.62378212 21.24769222 30.99740086 13.78125 35.359375 C12.36585937 36.19082031 12.36585937 36.19082031 10.921875 37.0390625 C10.07206055 37.53615723 9.22224609 38.03325195 8.34667969 38.54541016 C5.97362286 39.96091845 5.97362286 39.96091845 3.81738281 41.68505859 C2 43 2 43 0 43 C0 28.81 0 14.62 0 0 Z " fill="#F8D00A" transform="translate(69,200)"/>
<path d="M0 0 C16.06046512 8.03023256 16.06046512 8.03023256 21.9375 11.6875 C23.13366614 12.42130442 24.33027888 13.15438135 25.52734375 13.88671875 C26.09308105 14.23395996 26.65881836 14.58120117 27.24169922 14.93896484 C30.1297686 16.6817515 33.06424706 18.33903123 36 20 C34.86002828 23.41991515 34.51004405 23.56619862 31.4921875 25.1640625 C30.75935547 25.55996582 30.02652344 25.95586914 29.27148438 26.36376953 C28.48064453 26.77997559 27.68980469 27.19618164 26.875 27.625 C25.23571382 28.50807177 23.59771357 29.39353438 21.9609375 30.28125 C21.13303711 30.72984375 20.30513672 31.1784375 19.45214844 31.640625 C15.08617409 34.06095008 10.83685907 36.67323305 6.59716797 39.30712891 C2.20765363 42 2.20765363 42 0 42 C0 28.14 0 14.28 0 0 Z " fill="#F7FCFB" transform="translate(24,194)"/>
<path d="M0 0 C4.4973774 1.4991258 7.6533586 2.78056583 11.625 5.1171875 C12.66140625 5.72433594 13.6978125 6.33148438 14.765625 6.95703125 C16.36664063 7.90642578 16.36664063 7.90642578 18 8.875 C19.06734375 9.50019531 20.1346875 10.12539062 21.234375 10.76953125 C26.24919729 13.71979362 31.21249955 16.69197018 36 20 C33.00903203 23.25429833 29.96392273 25.37818491 26.1328125 27.56640625 C24.43318359 28.5419043 24.43318359 28.5419043 22.69921875 29.53710938 C21.5078125 30.21223958 20.31640625 30.88736979 19.125 31.5625 C17.9410912 32.24098702 16.7574944 32.92001876 15.57421875 33.59960938 C10.43036797 36.53936972 5.30326633 39.34836684 0 42 C0 28.14 0 14.28 0 0 Z " fill="#FCFDFC" transform="translate(52,158)"/>
<path d="M0 0 C0.33 0 0.66 0 1 0 C1.33 12.87 1.66 25.74 2 39 C6.95 36.03 11.9 33.06 17 30 C17.66 30 18.32 30 19 30 C19.495 32.97 19.495 32.97 20 36 C19.34 36 18.68 36 18 36 C18 36.66 18 37.32 18 38 C17.01 38.33 16.02 38.66 15 39 C16.175625 38.938125 17.35125 38.87625 18.5625 38.8125 C23.03960301 38.78855827 26.0241888 40.0120944 30 42 C30 42.66 30 43.32 30 44 C30.639375 44.268125 31.27875 44.53625 31.9375 44.8125 C34 46 34 46 35 49 C29 47 29 47 18 40 C18 54.19 18 68.38 18 83 C20.64 81.35 23.28 79.7 26 78 C26.66 78 27.32 78 28 78 C28 78.66 28 79.32 28 80 C21.64645433 84.11111779 21.64645433 84.11111779 18.3737793 83.54858398 C17.19875854 83.27703491 17.19875854 83.27703491 16 83 C15.970271 81.43318481 15.970271 81.43318481 15.93994141 79.8347168 C15.86387886 75.9599595 15.77516272 72.08557743 15.68261719 68.21118164 C15.64433007 66.53417366 15.60947669 64.85708362 15.578125 63.17993164 C15.53246821 60.76939568 15.4744759 58.35942443 15.4140625 55.94921875 C15.40251129 55.19912033 15.39096008 54.44902191 15.37905884 53.67619324 C15.27304541 49.93872287 15.12380918 48.18571377 13 45 C13.05800781 45.73605469 13.11601563 46.47210938 13.17578125 47.23046875 C13.54455446 55.20650636 13.54455446 55.20650636 10.8125 59.1875 C7.82363158 61.11365965 6.47219276 61.49602754 3 61 C3 61.66 3 62.32 3 63 C-0.96 63.99 -0.96 63.99 -5 65 C-5.33 66.32 -5.66 67.64 -6 69 C-8.90625 70.4140625 -8.90625 70.4140625 -12.5 71.625 C-17.08573298 72.79594335 -17.08573298 72.79594335 -20 76 C-20.99 76 -21.98 76 -23 76 C-23 76.99 -23 77.98 -23 79 C-24.485 79.495 -24.485 79.495 -26 80 C-26 78.68 -26 77.36 -26 76 C-23.84790039 74.24829102 -23.84790039 74.24829102 -20.84765625 72.50390625 C-19.21666992 71.54194336 -19.21666992 71.54194336 -17.55273438 70.56054688 C-16.38947547 69.89426483 -15.22606302 69.22825081 -14.0625 68.5625 C-12.38704102 67.57926758 -12.38704102 67.57926758 -10.67773438 66.57617188 C-5.04446508 63.28211352 0.62168544 60.06982135 6.39282227 57.02319336 C8.17236643 56.08387314 8.17236643 56.08387314 9 54 C8.360625 53.773125 7.72125 53.54625 7.0625 53.3125 C2.86679739 51.51434174 -1.03900556 49.26095979 -5 47 C-4.35546875 46.70996094 -3.7109375 46.41992188 -3.046875 46.12109375 C-0.83671669 45.19639757 -0.83671669 45.19639757 -0.25 43.0625 C0.06016568 40.84989915 0.06016568 40.84989915 0 38 C-0.66 37.67 -1.32 37.34 -2 37 C-1.34 37 -0.68 37 0 37 C0 24.79 0 12.58 0 0 Z " fill="#084F84" transform="translate(51,160)"/>
<path d="M0 0 C3.61723118 1.77573167 6.26306889 3.89460334 8.5 7.25 C9.4739837 12.60691036 9.06513017 17.27375456 6.1875 21.9375 C2.87581679 25.05994417 1.14121353 25.89625332 -3.4375 26.3125 C-8.27931055 25.88777978 -10.62998451 24.55898314 -13.8125 20.9375 C-15.92684978 15.70726634 -15.92684978 10.29273366 -13.8125 5.0625 C-9.75696838 0.4475847 -6.11568561 -0.84354284 0 0 Z " fill="#064D82" transform="translate(206,187)"/>
<path d="M0 0 C3.96 0 7.92 0 12 0 C11.98428955 1.31605225 11.98428955 1.31605225 11.96826172 2.65869141 C11.93403785 5.93508568 11.90903236 9.21128807 11.89013672 12.48779297 C11.88012144 13.90188609 11.86650526 15.31595873 11.84912109 16.72998047 C11.82467441 18.77055946 11.81347216 20.81086303 11.8046875 22.8515625 C11.78897705 24.68968506 11.78897705 24.68968506 11.77294922 26.56494141 C12.00253374 30.03833297 12.7488543 32.76606976 14 36 C12.3125 38.0625 12.3125 38.0625 10 40 C6.65110935 39.83255547 3.81896443 38.81219142 1 37 C-0.21077701 33.36766898 -0.12444164 30.04878013 -0.09765625 26.26953125 C-0.0962413 25.51911057 -0.09482635 24.76868988 -0.09336853 23.99552917 C-0.0877756 21.6011454 -0.07522444 19.20685547 -0.0625 16.8125 C-0.05748408 15.18815239 -0.05292134 13.56380332 -0.04882812 11.93945312 C-0.03780848 7.95959931 -0.02054873 3.97981556 0 0 Z " fill="#F8FEFD" transform="translate(286,177)"/>
<path d="M0 0 C13.53 0 27.06 0 41 0 C41 4.29 41 8.58 41 13 C37.37504158 14.81247921 36.4048294 15.24864042 32.671875 15.1953125 C31.87265625 15.18886719 31.0734375 15.18242187 30.25 15.17578125 C29.425 15.15902344 28.6 15.14226562 27.75 15.125 C26.90953125 15.11597656 26.0690625 15.10695312 25.203125 15.09765625 C23.13529396 15.07415817 21.06761005 15.03828908 19 15 C18.67 15.99 18.34 16.98 18 18 C19.16917969 18.06058594 20.33835938 18.12117188 21.54296875 18.18359375 C23.09115614 18.26804034 24.63933268 18.35268625 26.1875 18.4375 C26.95642578 18.47681641 27.72535156 18.51613281 28.51757812 18.55664062 C32.44059046 18.77552114 36.15519433 19.13835805 40 20 C40.66 20 41.32 20 42 20 C42.03867188 19.09507812 42.03867188 19.09507812 42.078125 18.171875 C42.55018669 11.52009664 42.55018669 11.52009664 45 8.6875 C45.66 8.130625 46.32 7.57375 47 7 C47.7872678 4.8618034 47.7872678 4.8618034 48 3 C49.32 3 50.64 3 52 3 C52 3.66 52 4.32 52 5 C52.66 5.33 53.32 5.66 54 6 C53.2575 6.66 52.515 7.32 51.75 8 C47.04886826 12.79488651 44.77354672 17.69315848 44.5 24.4375 C44.78823056 31.85943691 47.63392031 38.78297808 53 44 C58.39488726 47.22817798 63.4038522 49.04502312 69.6875 49.5625 C70.68136719 49.64628906 71.67523438 49.73007813 72.69921875 49.81640625 C73.83810547 49.90728516 73.83810547 49.90728516 75 50 C75 50.99 75 51.98 75 53 C71.04 52.67 67.08 52.34 63 52 C63 51.34 63 50.68 63 50 C62.06027344 49.94392578 62.06027344 49.94392578 61.1015625 49.88671875 C60.28429687 49.82097656 59.46703125 49.75523437 58.625 49.6875 C57.40683594 49.60048828 57.40683594 49.60048828 56.1640625 49.51171875 C54 49 54 49 52 46 C48.94570927 44.78715124 48.94570927 44.78715124 46 44 C45.505 41.03 45.505 41.03 45 38 C44.67 38 44.34 38 44 38 C43.01 31.565 43.01 31.565 42 25 C41.01 25.495 41.01 25.495 40 26 C39.34444881 28.52733235 39.34444881 28.52733235 39 31 C38.34 31 37.68 31 37 31 C37 27.7 37 24.4 37 21 C29.41 21 21.82 21 14 21 C14 18.36 14 15.72 14 13 C22.25 13 30.5 13 39 13 C39 9.04 39 5.08 39 1 C26.46 1 13.92 1 1 1 C1 16.84 1 32.68 1 49 C5.29 49 9.58 49 14 49 C14 43.39 14 37.78 14 32 C14.33 32 14.66 32 15 32 C15 37.94 15 43.88 15 50 C10.05 50 5.1 50 0 50 C0 33.5 0 17 0 0 Z " fill="#1F5479" transform="translate(133,175)"/>
<path d="M0 0 C0.33 0 0.66 0 1 0 C1.90816798 3.86207074 2.11643845 7.43148656 2.09765625 11.39453125 C2.09443359 12.59658203 2.09121094 13.79863281 2.08789062 15.03710938 C2.07951172 16.28298828 2.07113281 17.52886719 2.0625 18.8125 C2.05798828 20.07771484 2.05347656 21.34292969 2.04882812 22.64648438 C2.03706262 25.7643432 2.01912774 28.88217765 2 32 C5.96 31.34 9.92 30.68 14 30 C13.030625 29.608125 12.06125 29.21625 11.0625 28.8125 C8 27 8 27 7.125 24.3125 C7.063125 23.1678125 7.063125 23.1678125 7 22 C6.34 22 5.68 22 5 22 C5 16.06 5 10.12 5 4 C6.32 4 7.64 4 9 4 C9.33 3.01 9.66 2.02 10 1 C10 1.66 10 2.32 10 3 C10.66 3.33 11.32 3.66 12 4 C11.34 4.61875 10.68 5.2375 10 5.875 C7.18720082 10.26999872 7.21739375 13.91305938 8 19 C9.88837516 23.32752641 11.21479992 24.63544282 15.5 26.625 C16.9954429 27.09799046 18.49623565 27.55417243 20 28 C22.16796064 28.72531036 24.33458348 29.45462908 26.5 30.1875 C28.33284233 30.79315458 30.16600694 31.39783895 32 32 C31.67 33.65 31.34 35.3 31 37 C23.63433212 37.47950098 19.13998796 37.18041733 13 33 C12.34 33 11.68 33 11 33 C10.03885609 34.10878951 9.1292946 35.26274351 8.25 36.4375 C5.93526293 39.26535612 5.29092844 39.91918654 1.625 40.9375 C0.75875 40.958125 -0.1075 40.97875 -1 41 C-1.495 39.515 -1.495 39.515 -2 38 C-1.505 37.505 -1.505 37.505 -1 37 C-0.83989519 34.26298822 -0.74053172 31.5483241 -0.68359375 28.80859375 C-0.66281265 27.98875504 -0.64203156 27.16891632 -0.62062073 26.32423401 C-0.55503506 23.69541099 -0.49619874 21.06648496 -0.4375 18.4375 C-0.39432333 16.65949439 -0.35070933 14.88149935 -0.30664062 13.10351562 C-0.19934457 8.73578366 -0.09810296 4.36794773 0 0 Z " fill="#165079" transform="translate(330,176)"/>
<path d="M0 0 C3.3 0 6.6 0 10 0 C10.02469081 4.3782512 10.04285557 8.75646567 10.05493164 13.13476562 C10.05996514 14.62468166 10.06679242 16.11459274 10.07543945 17.60449219 C10.08754805 19.74415304 10.09323807 21.88374868 10.09765625 24.0234375 C10.10289307 25.31169434 10.10812988 26.59995117 10.11352539 27.92724609 C10 31 10 31 9 33 C7.0625 33.5625 7.0625 33.5625 5 34 C4.01 34.495 4.01 34.495 3 35 C2.67 33.35 2.34 31.7 2 30 C1.34 30 0.68 30 0 30 C0 20.1 0 10.2 0 0 Z " fill="#FBFEFD" transform="translate(318,177)"/>
<path d="M0 0 C2.02910711 0.25327449 4.04962145 0.57730068 6.0625 0.9375 C7.16722656 1.13214844 8.27195312 1.32679688 9.41015625 1.52734375 C10.69212891 1.76130859 10.69212891 1.76130859 12 2 C13.31626692 5.61973402 14 8.09567131 14 12 C14.66 12.33 15.32 12.66 16 13 C15.67 14.65 15.34 16.3 15 18 C14.34 18 13.68 18 13 18 C12.67 18.66 12.34 19.32 12 20 C11.34 20 10.68 20 10 20 C10 20.66 10 21.32 10 22 C7.69 22 5.38 22 3 22 C3 21.34 3 20.68 3 20 C2.34 20 1.68 20 1 20 C0.26972015 17.96608008 -0.43337687 15.92238768 -1.125 13.875 C-1.51945313 12.73804688 -1.91390625 11.60109375 -2.3203125 10.4296875 C-3.09422254 6.52455525 -2.60944631 4.5919431 -1 1 C-0.67 0.67 -0.34 0.34 0 0 Z " fill="#054D83" transform="translate(253,189)"/>
<path d="M0 0 C6.13053511 -0.32712342 10.62669111 -0.39366878 16 3 C16 3.66 16 4.32 16 5 C16.7425 5.04125 17.485 5.0825 18.25 5.125 C22.25097924 6.39803885 23.0376156 8.33688244 25 12 C26.12999554 14.96503102 27.1070223 17.95575785 28 21 C27.34 21 26.68 21 26 21 C26.02320313 21.60328125 26.04640625 22.2065625 26.0703125 22.828125 C26.09738281 24.02695313 26.09738281 24.02695313 26.125 25.25 C26.14820313 26.03890625 26.17140625 26.8278125 26.1953125 27.640625 C25.9178741 30.99208091 24.67644048 33.13907575 22.625 35.75 C21 37 21 37 17 37 C18.23448009 33.29655972 20.23334341 31.69749018 23 29 C24.73149437 25.53701126 24.33580307 21.79259936 24 18 C22.96864548 14.90593644 21.98113334 13.58446008 19.18359375 11.91796875 C14.07618687 9.47847387 8.77666579 8.02395666 3.28515625 6.7109375 C1 6 1 6 -1 4 C-0.625 1.875 -0.625 1.875 0 0 Z " fill="#134F7C" transform="translate(351,187)"/>
<path d="M0 0 C4.62 0 9.24 0 14 0 C14.95405337 2.86216011 15.17633121 4.87588639 15.28125 7.859375 C15.31863281 8.81070313 15.35601562 9.76203125 15.39453125 10.7421875 C15.42933594 11.73476562 15.46414063 12.72734375 15.5 13.75 C15.77020605 21.3357846 16.15023873 28.60095493 18 36 C20.97 35.01 23.94 34.02 27 33 C27.33 22.44 27.66 11.88 28 1 C28.66 1 29.32 1 30 1 C30.04961351 5.18089192 30.08582016 9.36162566 30.10986328 13.54272461 C30.11989146 14.96365343 30.13351741 16.38456178 30.15087891 17.80541992 C30.17526821 19.85340444 30.1865149 21.90111498 30.1953125 23.94921875 C30.20578613 25.17987061 30.21625977 26.41052246 30.22705078 27.6784668 C30.00467064 30.93167307 29.47906931 33.11328062 28 36 C24.85251017 38.36061737 21.83994229 38.47999279 18 38 C15.15219381 35.76793569 14.15002334 34.45007001 13 31 C12.91621372 28.7161483 12.89270085 26.429899 12.90234375 24.14453125 C12.9037587 23.48289474 12.90517365 22.82125824 12.90663147 22.13957214 C12.91222004 20.03050172 12.92477035 17.92153823 12.9375 15.8125 C12.94251648 14.38086091 12.94707913 12.94922015 12.95117188 11.51757812 C12.961334 8.01164461 12.98091139 4.50594173 13 1 C8.71 1 4.42 1 0 1 C0 0.67 0 0.34 0 0 Z " fill="#164C70" transform="translate(286,175)"/>
<path d="M0 0 C0.99 0.33 1.98 0.66 3 1 C2.236875 1.804375 1.47375 2.60875 0.6875 3.4375 C-3.85528977 8.93530807 -5.60760363 15.58954666 -5.359375 22.6640625 C-4.41875023 28.77812351 -1.83689406 34.19563695 2 39 C-0.97 38.01 -3.94 37.02 -7 36 C-6.95117188 32.92382812 -6.95117188 32.92382812 -6.90234375 29.84765625 C-6.79438816 27.98267859 -6.79438816 27.98267859 -8 27 C-8.144375 25.845 -8.28875 24.69 -8.4375 23.5 C-8.7159375 21.7675 -8.7159375 21.7675 -9 20 C-9.66 19.67 -10.32 19.34 -11 19 C-11 19.66 -11 20.32 -11 21 C-10.34 21.33 -9.68 21.66 -9 22 C-12.66970387 34.85421412 -12.66970387 34.85421412 -18 39 C-18.66 38.67 -19.32 38.34 -20 38 C-19.57847656 37.39671875 -19.15695313 36.7934375 -18.72265625 36.171875 C-18.17480469 35.37265625 -17.62695312 34.5734375 -17.0625 33.75 C-16.51722656 32.96109375 -15.97195312 32.1721875 -15.41015625 31.359375 C-12.71602472 26.85174218 -12.88925927 22.9599983 -12.9375 17.75 C-12.94652344 16.48671875 -12.95554688 15.2234375 -12.96484375 13.921875 C-12.97644531 12.95765625 -12.98804688 11.9934375 -13 11 C-12.34 11 -11.68 11 -11 11 C-11 12.65 -11 14.3 -11 16 C-10.34 16 -9.68 16 -9 16 C-8.34 14.35 -7.68 12.7 -7 11 C-6.34 11 -5.68 11 -5 11 C-5.020625 10.05125 -5.04125 9.1025 -5.0625 8.125 C-5 5 -5 5 -4 3 C-3.01 3 -2.02 3 -1 3 C-0.67 2.01 -0.34 1.02 0 0 Z " fill="#134F76" transform="translate(240,180)"/>
<path d="M0 0 C1.92578125 0.05078125 1.92578125 0.05078125 4.3125 0.3125 C5.48232422 0.43044922 5.48232422 0.43044922 6.67578125 0.55078125 C9.08207271 1.01586279 10.87133832 1.80658556 13 3 C13 3.66 13 4.32 13 5 C13.639375 5.268125 14.27875 5.53625 14.9375 5.8125 C17 7 17 7 18 10 C12 8 12 8 1 1 C1 15.19 1 29.38 1 44 C4.96 41.525 4.96 41.525 9 39 C9.66 39 10.32 39 11 39 C11 39.66 11 40.32 11 41 C4.64645433 45.11111779 4.64645433 45.11111779 1.3737793 44.54858398 C0.59043213 44.36755127 -0.19291504 44.18651855 -1 44 C-1.02464513 37.8944529 -1.04283371 31.78893449 -1.05493164 25.68334961 C-1.05997288 23.60456844 -1.06680574 21.52579084 -1.07543945 19.44702148 C-1.08751422 16.46597414 -1.09323024 13.48497351 -1.09765625 10.50390625 C-1.10539818 9.10078941 -1.10539818 9.10078941 -1.11329651 7.66932678 C-1.11337204 6.80850998 -1.11344757 5.94769318 -1.11352539 5.06079102 C-1.115746 4.29912125 -1.11796661 3.53745148 -1.12025452 2.75270081 C-1 1 -1 1 0 0 Z " fill="#1B4C4C" transform="translate(68,199)"/>
<path d="M0 0 C0.33 0 0.66 0 1 0 C1.90816798 3.86207074 2.11643845 7.43148656 2.09765625 11.39453125 C2.09443359 12.59658203 2.09121094 13.79863281 2.08789062 15.03710938 C2.07951172 16.28298828 2.07113281 17.52886719 2.0625 18.8125 C2.05798828 20.07771484 2.05347656 21.34292969 2.04882812 22.64648438 C2.03706251 25.7643711 2.02062272 28.88216133 2 32 C3.98 32 5.96 32 8 32 C8.75 33.75 8.75 33.75 9 36 C6.81228945 39.06279477 5.43885938 39.89872476 1.75 40.75 C0.8425 40.8325 -0.065 40.915 -1 41 C-1.495 39.515 -1.495 39.515 -2 38 C-1.505 37.505 -1.505 37.505 -1 37 C-0.83989519 34.26298822 -0.74053172 31.5483241 -0.68359375 28.80859375 C-0.66281265 27.98875504 -0.64203156 27.16891632 -0.62062073 26.32423401 C-0.55503506 23.69541099 -0.49619874 21.06648496 -0.4375 18.4375 C-0.39432333 16.65949439 -0.35070933 14.88149935 -0.30664062 13.10351562 C-0.19934457 8.73578366 -0.09810296 4.36794773 0 0 Z " fill="#0C4C79" transform="translate(330,176)"/>
<path d="M0 0 C2.31 0.33 4.62 0.66 7 1 C7.33 1.99 7.66 2.98 8 4 C9.65 4 11.3 4 13 4 C13.33 4.66 13.66 5.32 14 6 C15.88013106 7.12224855 15.88013106 7.12224855 18.0625 8.125 C18.79597656 8.47820312 19.52945313 8.83140625 20.28515625 9.1953125 C21.13400391 9.59363281 21.13400391 9.59363281 22 10 C22 10.66 22 11.32 22 12 C23.216875 12.061875 24.43375 12.12375 25.6875 12.1875 C30.17747208 12.7368051 32.17925756 14.40996417 35 18 C35.495 19.485 35.495 19.485 36 21 C35.01 21 34.02 21 33 21 C33 21.66 33 22.32 33 23 C31.390625 24.359375 31.390625 24.359375 29.25 25.75 C28.55390625 26.21921875 27.8578125 26.6884375 27.140625 27.171875 C26.08101562 27.58179688 26.08101562 27.58179688 25 28 C23.68 27.34 22.36 26.68 21 26 C24.3 24.02 27.6 22.04 31 20 C27.45204514 17.02855195 23.84022535 14.62298592 19.82421875 12.328125 C19.25419632 12.00084412 18.68417389 11.67356323 18.09687805 11.33636475 C16.29600257 10.3035849 14.49184063 9.27671153 12.6875 8.25 C11.45745925 7.54596245 10.2276393 6.84153899 8.99804688 6.13671875 C6.00123637 4.42001227 3.00145158 2.70858211 0 1 C0 0.67 0 0.34 0 0 Z " fill="#1C5377" transform="translate(56,159)"/>
<path d="M0 0 C2.96609695 1.48304848 5.8579507 3.0088548 8.75 4.625 C9.94882813 5.29402344 9.94882813 5.29402344 11.171875 5.9765625 C11.77515625 6.31429687 12.3784375 6.65203125 13 7 C12.01 7.33 11.02 7.66 10 8 C7.36 6.68 4.72 5.36 2 4 C2 15.55 2 27.1 2 39 C3.98 38.01 5.96 37.02 8 36 C8.99 36.33 9.98 36.66 11 37 C9.54550599 38.0055761 8.08627557 39.00430435 6.625 40 C5.81289062 40.556875 5.00078125 41.11375 4.1640625 41.6875 C2 43 2 43 0 43 C0 28.81 0 14.62 0 0 Z " fill="#BEBD51" transform="translate(69,200)"/>
<path d="M0 0 C-1 2 -2 4 -3 6 C-4.65 6 -6.3 6 -8 6 C-8 6.66 -8 7.32 -8 8 C-10.64 8.66 -13.28 9.32 -16 10 C-16.33 11.32 -16.66 12.64 -17 14 C-19.90625 15.4140625 -19.90625 15.4140625 -23.5 16.625 C-28.08573298 17.79594335 -28.08573298 17.79594335 -31 21 C-31.99 21 -32.98 21 -34 21 C-34 21.99 -34 22.98 -34 24 C-34.99 24.33 -35.98 24.66 -37 25 C-37 23.68 -37 22.36 -37 21 C-34.86376953 19.26416016 -34.86376953 19.26416016 -31.8828125 17.5390625 C-30.8 16.90226562 -29.7171875 16.26546875 -28.6015625 15.609375 C-27.44294838 14.94749629 -26.28409282 14.28604005 -25.125 13.625 C-24.01640625 12.97789062 -22.9078125 12.33078125 -21.765625 11.6640625 C-19.56800146 10.38168453 -17.36653992 9.10585928 -15.16113281 7.83691406 C-11.37453488 5.63654622 -7.6424422 3.35360734 -3.92138672 1.04443359 C-2 0 -2 0 0 0 Z " fill="#1E5175" transform="translate(62,215)"/>
<path d="M0 0 C0.66 0 1.32 0 2 0 C2.33 12.54 2.66 25.08 3 38 C0.234383 33.8515745 -0.14961185 30.90422442 -0.31640625 26.01953125 C-0.37924805 24.27446289 -0.37924805 24.27446289 -0.44335938 22.49414062 C-0.48267578 21.27919922 -0.52199219 20.06425781 -0.5625 18.8125 C-0.62727539 16.97268555 -0.62727539 16.97268555 -0.69335938 15.09570312 C-0.7995309 12.06391619 -0.90157952 9.03204685 -1 6 C-1.66 6 -2.32 6 -3 6 C-3 6.66 -3 7.32 -3 8 C-6.16115776 6.63016497 -6.9927092 6.0109362 -9 3 C-8.01 3 -7.02 3 -6 3 C-3.99690671 2.68578929 -1.99628664 2.3548954 0 2 C0 1.34 0 0.68 0 0 Z " fill="#134B73" transform="translate(283,176)"/>
<path d="M0 0 C5 1 5 1 7 3 C5.0625 3.5625 5.0625 3.5625 3 4 C2.67 3.67 2.34 3.34 2 3 C2.00523682 3.73114014 2.01047363 4.46228027 2.01586914 5.21557617 C2.03670161 8.53954198 2.04968014 11.86349403 2.0625 15.1875 C2.07087891 16.33798828 2.07925781 17.48847656 2.08789062 18.67382812 C2.09111328 19.78564453 2.09433594 20.89746094 2.09765625 22.04296875 C2.10289307 23.06414795 2.10812988 24.08532715 2.11352539 25.13745117 C2.00519467 27.86901616 1.61706868 30.34169374 1 33 C1.54269531 32.7834375 2.08539063 32.566875 2.64453125 32.34375 C3.35996094 32.0653125 4.07539062 31.786875 4.8125 31.5 C5.52019531 31.2215625 6.22789063 30.943125 6.95703125 30.65625 C9 30 9 30 12 30 C12 29.01 12 28.02 12 27 C12.78375 26.731875 13.5675 26.46375 14.375 26.1875 C17.28114923 25.15185568 17.28114923 25.15185568 19 22 C20.65 22.33 22.3 22.66 24 23 C17.68166461 29.89460051 8.94747384 33.21050523 0 35 C0 23.45 0 11.9 0 0 Z " fill="#F3D318" transform="translate(71,204)"/>
<path d="M0 0 C2.64718918 1.32359459 2.78783953 2.53659123 3.875 5.25 C7.08035313 12.6316709 10.66461569 15.92727228 18 19 C21.00778521 20.00259507 23.53820647 20.30314642 26.6875 20.5625 C27.68136719 20.64628906 28.67523438 20.73007813 29.69921875 20.81640625 C30.83810547 20.90728516 30.83810547 20.90728516 32 21 C32 21.99 32 22.98 32 24 C28.04 23.67 24.08 23.34 20 23 C20 22.34 20 21.68 20 21 C19.37351563 20.96261719 18.74703125 20.92523438 18.1015625 20.88671875 C17.28429687 20.82097656 16.46703125 20.75523437 15.625 20.6875 C14.81289062 20.62949219 14.00078125 20.57148438 13.1640625 20.51171875 C11 20 11 20 9 17 C5.94570927 15.78715124 5.94570927 15.78715124 3 15 C2.67 13.02 2.34 11.04 2 9 C1.67 9 1.34 9 1 9 C0.67 6.03 0.34 3.06 0 0 Z " fill="#1F5375" transform="translate(176,204)"/>
<path d="M0 0 C0.8824037 2.6472111 1.46847541 5.14263139 2 7.875 C2.165 8.71804687 2.33 9.56109375 2.5 10.4296875 C2.665 11.27789062 2.83 12.12609375 3 13 C3.33244534 14.66684402 3.66551811 16.33356346 4 18 C4.66 18 5.32 18 6 18 C6 18.66 6 19.32 6 20 C8.31 20 10.62 20 13 20 C13 19.34 13 18.68 13 18 C14.65 17.67 16.3 17.34 18 17 C13.27058824 21.88705882 13.27058824 21.88705882 9.1875 22.25 C4.58049659 21.8886664 2.21019707 20.37712081 -0.8125 16.9375 C-2.53359148 12.68006319 -2.56811094 8.53750945 -2 4 C-0.98046875 1.69140625 -0.98046875 1.69140625 0 0 Z " fill="#0E4E7C" transform="translate(250,191)"/>
<path d="M0 0 C5.28 0.33 10.56 0.66 16 1 C16 1.66 16 2.32 16 3 C16.99 3.33 17.98 3.66 19 4 C16.69887416 6.30112584 10.70081683 5.79322655 7.43359375 6.07421875 C2.85237353 6.5410443 -0.12408034 7.33348384 -4 10 C-4.66 10 -5.32 10 -6 10 C-5.67 9.01 -5.34 8.02 -5 7 C-2.9375 6.3125 -2.9375 6.3125 -1 6 C-0.67 4.02 -0.34 2.04 0 0 Z " fill="#0A4B7B" transform="translate(249,170)"/>
<path d="M0 0 C4.62 0 9.24 0 14 0 C14.06058594 2.11921875 14.12117188 4.2384375 14.18359375 6.421875 C14.24545043 8.48050262 14.30881017 10.53907888 14.37231445 12.59765625 C14.41555318 14.02534388 14.45723585 15.45307954 14.49731445 16.88085938 C14.55528602 18.93634496 14.61890175 20.99159128 14.68359375 23.046875 C14.72025146 24.28276367 14.75690918 25.51865234 14.79467773 26.79199219 C14.95979819 29.37187658 15.2464387 31.54355106 16 34 C15.34 34 14.68 34 14 34 C11.51636273 30.27454409 11.83661197 28.57229631 12.0234375 24.14453125 C12.04846344 23.48289474 12.07348938 22.82125824 12.09927368 22.13957214 C12.18133093 20.03001566 12.2779721 17.92141575 12.375 15.8125 C12.4332544 14.38089823 12.49055737 12.9492574 12.546875 11.51757812 C12.68688655 8.01119864 12.83998213 4.50552988 13 1 C9.04 1 5.08 1 1 1 C1 11.23 1 21.46 1 32 C0.67 32 0.34 32 0 32 C0 21.44 0 10.88 0 0 Z " fill="#B3D3E4" transform="translate(285,176)"/>
<path d="M0 0 C0.33 0 0.66 0 1 0 C1.33 12.87 1.66 25.74 2 39 C5.96 36.69 9.92 34.38 14 32 C14 32.99 14 33.98 14 35 C9.77777778 38 9.77777778 38 7 38 C6.34 39.32 5.68 40.64 5 42 C3.35 41.67 1.7 41.34 0 41 C0 40.01 0 39.02 0 38 C-0.66 37.67 -1.32 37.34 -2 37 C-1.34 37 -0.68 37 0 37 C0 24.79 0 12.58 0 0 Z " fill="#205273" transform="translate(51,160)"/>
<path d="M0 0 C3.125 1.8125 3.125 1.8125 6 4 C6.78375 4.5775 7.5675 5.155 8.375 5.75 C8.91125 6.1625 9.4475 6.575 10 7 C9.33333333 9.66666667 8.66666667 12.33333333 8 15 C6.29115995 13.37660195 4.62553283 11.70680947 3 10 C3 8 3 6 3 4 C-0.63 3.67 -4.26 3.34 -8 3 C-8 2.34 -8 1.68 -8 1 C-5.13391871 -0.43304064 -3.18699217 -0.30644155 0 0 Z " fill="#054C7F" transform="translate(262,187)"/>
<path d="M0 0 C6.31908569 0.60181768 10.77484912 3.30538791 15 8 C13.77946141 11.66161578 12.63217696 12.16270474 9.4375 14.1875 C8.19806641 14.98220703 8.19806641 14.98220703 6.93359375 15.79296875 C6.29550781 16.19128906 5.65742188 16.58960938 5 17 C4.34 16.01 3.68 15.02 3 14 C8.75 10 8.75 10 11 10 C10.34 8.68 9.68 7.36 9 6 C8.01 6.495 8.01 6.495 7 7 C7 6.34 7 5.68 7 5 C6.34 5 5.68 5 5 5 C5 4.34 5 3.68 5 3 C3.35 2.67 1.7 2.34 0 2 C0 1.34 0 0.68 0 0 Z " fill="#D8F0F9" transform="translate(264,176)"/>
<path d="M0 0 C1.03833984 0.63228516 1.03833984 0.63228516 2.09765625 1.27734375 C10.63064047 6.05536522 17.39026326 6.97374389 27 7 C24.32429915 9.67570085 22.27021884 9.70488052 18.5625 10.3125 C17.40878906 10.51488281 16.25507813 10.71726563 15.06640625 10.92578125 C12 11 12 11 10.23828125 9.609375 C9.82964844 9.07828125 9.42101562 8.5471875 9 8 C6.60931266 6.89363605 6.60931266 6.89363605 4 6 C2.33333333 5.33333333 0.66666667 4.66666667 -1 4 C-0.67 2.68 -0.34 1.36 0 0 Z " fill="#0C4B77" transform="translate(289,218)"/>
<path d="M0 0 C1.98 0.66 3.96 1.32 6 2 C6 2.33 6 2.66 6 3 C4.35 3 2.7 3 1 3 C1.33 14.22 1.66 25.44 2 37 C2.99 37.33 3.98 37.66 5 38 C5 37.34 5 36.68 5 36 C6.98 35.505 6.98 35.505 9 35 C9.33 35.66 9.66 36.32 10 37 C5.05 39.475 5.05 39.475 0 42 C0 28.14 0 14.28 0 0 Z " fill="#D2F0FB" transform="translate(52,158)"/>
<path d="M0 0 C15.36541266 7.48848061 15.36541266 7.48848061 22 12 C22 12.33 22 12.66 22 13 C20.35 13 18.7 13 17 13 C16.67 12.01 16.34 11.02 16 10 C14.35 10.33 12.7 10.66 11 11 C10.67 9.68 10.34 8.36 10 7 C9.319375 7.0825 8.63875 7.165 7.9375 7.25 C3.83124335 6.90053135 1.47678105 5.18150968 -2 3 C-1.34 2.67 -0.68 2.34 0 2 C0 1.34 0 0.68 0 0 Z " fill="#E3F5FA" transform="translate(58,161)"/>
<path d="M0 0 C0.33 0 0.66 0 1 0 C1 3.63 1 7.26 1 11 C-2.79185383 11.05374281 -6.58295298 11.09354937 -10.375 11.125 C-11.99535156 11.15013672 -11.99535156 11.15013672 -13.6484375 11.17578125 C-14.6796875 11.18222656 -15.7109375 11.18867188 -16.7734375 11.1953125 C-18.20308838 11.21102295 -18.20308838 11.21102295 -19.66162109 11.22705078 C-22 11 -22 11 -24 9 C-23.34 9 -22.68 9 -22 9 C-22 8.34 -22 7.68 -22 7 C-17.05 7.33 -12.1 7.66 -7 8 C-7 8.66 -7 9.32 -7 10 C-4.69 10 -2.38 10 0 10 C0 6.7 0 3.4 0 0 Z " fill="#D5EEF8" transform="translate(169,196)"/>
<path d="M0 0 C5.44944399 -0.55606571 8.39420971 0.23656469 12.55078125 3.58984375 C14.69710289 5.67831305 15.45989192 7.02940558 16 10 C16.04948288 14.59366051 15.87164796 17.91704345 12.9375 21.5625 C12.298125 22.036875 11.65875 22.51125 11 23 C10.67 22.01 10.34 21.02 10 20 C10.66 19.67 11.32 19.34 12 19 C12.68472665 17.11235097 12.68472665 17.11235097 13.125 14.9375 C13.29257813 14.20402344 13.46015625 13.47054687 13.6328125 12.71484375 C13.75398437 12.14894531 13.87515625 11.58304688 14 11 C13.01 11 12.02 11 11 11 C11 10.34 11 9.68 11 9 C11.66 9 12.32 9 13 9 C13 8.01 13 7.02 13 6 C12.01 6.33 11.02 6.66 10 7 C9.835 6.38125 9.67 5.7625 9.5 5.125 C7.09818625 1.72243051 3.99837866 1.77387974 0 1 C0 0.67 0 0.34 0 0 Z " fill="#2B5D7D" transform="translate(199,187)"/>
<path d="M0 0 C1.32 0.33 2.64 0.66 4 1 C4 1.66 4 2.32 4 3 C4.886875 2.835 5.77375 2.67 6.6875 2.5 C9.53596892 2.07004243 12.13004802 1.91558965 15 2 C15 2.66 15 3.32 15 4 C15.99 4 16.98 4 18 4 C18 4.66 18 5.32 18 6 C17.19175781 6.06058594 16.38351562 6.12117187 15.55078125 6.18359375 C13.94783203 6.30927734 13.94783203 6.30927734 12.3125 6.4375 C11.25675781 6.51871094 10.20101563 6.59992188 9.11328125 6.68359375 C6.34913703 6.96451681 3.71054259 7.40156852 1 8 C0.67 5.36 0.34 2.72 0 0 Z " fill="#0C4B78" transform="translate(344,169)"/>
<path d="M0 0 C2.475 0.99 2.475 0.99 5 2 C3.68 2.33 2.36 2.66 1 3 C1 14.55 1 26.1 1 38 C2.32 38.33 3.64 38.66 5 39 C5 38.34 5 37.68 5 37 C5.66 37 6.32 37 7 37 C6.67 37.99 6.34 38.98 6 40 C4.02 40.66 2.04 41.32 0 42 C0 28.14 0 14.28 0 0 Z " fill="#D4F3FC" transform="translate(24,194)"/>
<path d="M0 0 C1.43088528 2.86177057 0.59991697 4.93375773 0 8 C-0.66 8 -1.32 8 -2 8 C-1.67 14.27 -1.34 20.54 -1 27 C-1.66 27 -2.32 27 -3 27 C-6.53900519 18.37367484 -5.25959964 11.66993455 -1.97265625 3.1875 C-1 1 -1 1 0 0 Z " fill="#D2EAF3" transform="translate(239,184)"/>
<path d="M0 0 C3.465 1.98 3.465 1.98 7 4 C7 4.99 7 5.98 7 7 C0.25 11 0.25 11 -2 11 C-1.67 9.35 -1.34 7.7 -1 6 C-1.66 6 -2.32 6 -3 6 C-3 5.34 -3 4.68 -3 4 C-1.68 3.67 -0.36 3.34 1 3 C0.67 2.01 0.34 1.02 0 0 Z " fill="#DBCA36" transform="translate(97,216)"/>
<path d="M0 0 C2.88437779 1.29299694 4.87219421 2.65941363 7 5 C5.6875 6.5 5.6875 6.5 4 8 C1.66666667 8 -0.66666667 8 -3 8 C-3.33 7.34 -3.66 6.68 -4 6 C-4.99 5.67 -5.98 5.34 -7 5 C-6.030625 4.360625 -5.06125 3.72125 -4.0625 3.0625 C-1.23963731 1.3034741 -1.23963731 1.3034741 0 0 Z " fill="#E0F0F6" transform="translate(269,207)"/>
<path d="M0 0 C0.99 0.66 1.98 1.32 3 2 C1.6062718 6.43458973 -0.60582235 8.87378374 -4 12 C-4.804375 11.525625 -5.60875 11.05125 -6.4375 10.5625 C-10.66939929 8.70640382 -14.43172078 8.29440022 -19 8 C-19 7.67 -19 7.34 -19 7 C-13.39223268 6.07783382 -9.38507834 5.76716264 -4 8 C-3.34 8 -2.68 8 -2 8 C-1.855625 7.4225 -1.71125 6.845 -1.5625 6.25 C-1.04166667 4.16666667 -0.52083333 2.08333333 0 0 Z " fill="#C4E2EC" transform="translate(371,179)"/>
<path d="M0 0 C1.1446875 0.495 1.1446875 0.495 2.3125 1 C8.83107549 2.76774929 15.43571012 2.48379066 22 1 C22 1.66 22 2.32 22 3 C20.02 3.33 18.04 3.66 16 4 C16 4.66 16 5.32 16 6 C14.56589632 6.24954005 13.12739928 6.47392642 11.6875 6.6875 C10.88699219 6.81511719 10.08648437 6.94273437 9.26171875 7.07421875 C7 7 7 7 5.34375 5.59375 C4.9003125 5.0678125 4.456875 4.541875 4 4 C1.90010348 2.82425289 1.90010348 2.82425289 0 2 C0 1.34 0 0.68 0 0 Z " fill="#17517A" transform="translate(247,222)"/>
<path d="M0 0 C0.33 0 0.66 0 1 0 C1.19832847 3.8536886 1.38171343 7.70795178 1.5625 11.5625 C1.61857422 12.64853516 1.67464844 13.73457031 1.73242188 14.85351562 C2.14859934 23.98167477 1.95079188 30.17455477 -3 38 C-3.33 37.34 -3.66 36.68 -4 36 C-4.99 35.67 -5.98 35.34 -7 35 C-5.02 34.505 -5.02 34.505 -3 34 C-0.49693194 27.1521756 -0.55695811 20.29154397 -0.375 13.0625 C-0.31699219 11.17821289 -0.31699219 11.17821289 -0.2578125 9.25585938 C-0.16396783 6.17071574 -0.07827684 3.08557135 0 0 Z " fill="#EEFEFE" transform="translate(317,177)"/>
<path d="M0 0 C0.66 0.33 1.32 0.66 2 1 C0.857329 3.285342 -0.29927995 5.52673271 -1.5625 7.75 C-3.28203116 11.63763567 -3.63628462 14.78090164 -4 19 C-6.49005677 16.50994323 -6.29703766 15.62529268 -6.3125 12.1875 C-6.22761545 7.98571467 -5.78894269 5.30541356 -3 2 C-2.01 1.34 -1.02 0.68 0 0 Z " fill="#1D537A" transform="translate(197,188)"/>
<path d="M0 0 C0.66 1.32 1.32 2.64 2 4 C1.01 5.485 1.01 5.485 0 7 C-5.86513227 8.0759775 -10.94998389 7.18948386 -16 4 C-16 3.34 -16 2.68 -16 2 C-15.45859375 2.16371094 -14.9171875 2.32742187 -14.359375 2.49609375 C-11.59777407 3.08590587 -9.07181861 3.09609308 -6.25 3.0625 C-5.26515625 3.05347656 -4.2803125 3.04445312 -3.265625 3.03515625 C-2.51796875 3.02355469 -1.7703125 3.01195312 -1 3 C-0.67 2.01 -0.34 1.02 0 0 Z " fill="#DFF4F5" transform="translate(362,209)"/>
<path d="M0 0 C-1 2 -2 4 -3 6 C-4.65 6 -6.3 6 -8 6 C-8 6.66 -8 7.32 -8 8 C-9.26607607 8.53229326 -10.53810412 9.05044544 -11.8125 9.5625 C-12.52019531 9.85253906 -13.22789063 10.14257812 -13.95703125 10.44140625 C-16 11 -16 11 -19 10 C-16.21251481 8.32626249 -13.41935573 6.66223733 -10.625 5 C-9.8309375 4.52304688 -9.036875 4.04609375 -8.21875 3.5546875 C-7.45820312 3.10351562 -6.69765625 2.65234375 -5.9140625 2.1875 C-4.8614624 1.55908203 -4.8614624 1.55908203 -3.78759766 0.91796875 C-2 0 -2 0 0 0 Z " fill="#1F547A" transform="translate(62,215)"/>
<path d="M0 0 C10.55808656 -0.55353075 10.55808656 -0.55353075 15 3 C14.67 3.66 14.34 4.32 14 5 C10.7 4.01 7.4 3.02 4 2 C3.67 3.32 3.34 4.64 3 6 C1.68 5.34 0.36 4.68 -1 4 C-0.67 2.68 -0.34 1.36 0 0 Z " fill="#1E5176" transform="translate(351,187)"/>
<path d="M0 0 C0.66 0.99 1.32 1.98 2 3 C-4.59905515 5.73738584 -10.85012485 6.90252522 -18 6 C-18.99 5.34 -19.98 4.68 -21 4 C-19.98679687 3.96261719 -18.97359375 3.92523438 -17.9296875 3.88671875 C-16.57809061 3.82101612 -15.22652971 3.75457029 -13.875 3.6875 C-12.87726563 3.65366211 -12.87726563 3.65366211 -11.859375 3.61914062 C-7.24082629 3.37010123 -3.98624895 2.31599822 0 0 Z " fill="#C8E4F1" transform="translate(319,219)"/>
<path d="M0 0 C0.99 0.33 1.98 0.66 3 1 C2.72162928 4.3404486 2.27974867 5.72025133 -0.125 8.125 C-3.34318136 10.22381393 -6.36612584 11.74466165 -10 13 C-11.32 12.67 -12.64 12.34 -14 12 C-9.05 9.03 -4.1 6.06 1 3 C0.67 2.01 0.34 1.02 0 0 Z " fill="#29545A" transform="translate(103,219)"/>
<path d="M0 0 C2.475 0.495 2.475 0.495 5 1 C1.92575329 4.54720774 -0.40065568 6.01442622 -5 7 C-9.00623807 7.153692 -12.99319094 7.11670318 -17 7 C-17 6.67 -17 6.34 -17 6 C-16.32453125 5.96261719 -15.6490625 5.92523438 -14.953125 5.88671875 C-13.61507813 5.78810547 -13.61507813 5.78810547 -12.25 5.6875 C-10.92742187 5.60048828 -10.92742187 5.60048828 -9.578125 5.51171875 C-6.65624843 4.93177052 -5.31181168 3.81156672 -3 2 C-2.01 2 -1.02 2 0 2 C0 1.34 0 0.68 0 0 Z " fill="#C8E2EE" transform="translate(367,218)"/>
<path d="M0 0 C0.66 0.33 1.32 0.66 2 1 C1.67 1.66 1.34 2.32 1 3 C0.57945897 7.56933999 0.43874466 11.68104995 2.25 15.9375 C4.00661053 18.00779099 5.73262297 19.51447712 8 21 C6 22 6 22 3.5 21.375 C0.27454648 19.60100056 0.04167801 18.49128611 -1 15 C-1.23046875 11.484375 -1.23046875 11.484375 -1.1875 7.75 C-1.18105469 6.50734375 -1.17460937 5.2646875 -1.16796875 3.984375 C-1 1 -1 1 0 0 Z " fill="#DDF3FB" transform="translate(248,192)"/>
<path d="M0 0 C0.33 0.99 0.66 1.98 1 3 C1.66 3.33 2.32 3.66 3 4 C-0.66970387 16.85421412 -0.66970387 16.85421412 -6 21 C-6.66 20.67 -7.32 20.34 -8 20 C-7.59007812 19.47792969 -7.18015625 18.95585937 -6.7578125 18.41796875 C-2.39728741 12.46136629 -0.79197466 7.30528352 0 0 Z " fill="#275C80" transform="translate(228,198)"/>
<path d="M0 0 C4.86831281 0.45286631 7.48559226 1.58321469 11 5 C12.86081634 8.0222224 13.22868687 10.22464644 13.125 13.75 C13.10695313 14.54921875 13.08890625 15.3484375 13.0703125 16.171875 C13.03550781 17.07679688 13.03550781 17.07679688 13 18 C12.67 18 12.34 18 12 18 C11.896875 16.741875 11.79375 15.48375 11.6875 14.1875 C11.30390844 10.86042583 11.30390844 10.86042583 9.4375 8.125 C8.963125 7.75375 8.48875 7.3825 8 7 C8 6.34 8 5.68 8 5 C6.02 4.34 4.04 3.68 2 3 C2 2.34 2 1.68 2 1 C1.34 0.67 0.68 0.34 0 0 Z " fill="#D4EDF3" transform="translate(363,196)"/>
<path d="M0 0 C0.66 0.33 1.32 0.66 2 1 C0.39880782 4.03383782 -0.9023298 5.92325913 -3.625 8.0625 C-6.10589629 10.08638908 -6.66695423 10.89157277 -7 14 C-7.99 13.67 -8.98 13.34 -10 13 C-8.59799333 8.5390697 -6.40216594 6.15322697 -3 3 C-2.401875 2.401875 -1.80375 1.80375 -1.1875 1.1875 C-0.795625 0.795625 -0.40375 0.40375 0 0 Z " fill="#DFF4FA" transform="translate(189,178)"/>
<path d="M0 0 C3.37503669 1.1858237 5.64722731 2.27573689 8 5 C2.25 9 2.25 9 0 9 C0 6.03 0 3.06 0 0 Z " fill="#E9F7F7" transform="translate(80,174)"/>
<path d="M0 0 C0.33 1.65 0.66 3.3 1 5 C0.29875 4.67 -0.4025 4.34 -1.125 4 C-4.37181679 2.87067242 -6.58343898 2.64410823 -10 3 C-12.81780534 4.38885248 -12.81780534 4.38885248 -15 6 C-14.67 4.68 -14.34 3.36 -14 2 C-9.126739 0.4087311 -5.19209404 -0.21192221 0 0 Z " fill="#DCF1F8" transform="translate(266,185)"/>
<path d="M0 0 C2.97 0.495 2.97 0.495 6 1 C3.59888822 3.63884562 0.99444972 5.36413529 -2.0625 7.1875 C-2.94035156 7.71730469 -3.81820312 8.24710938 -4.72265625 8.79296875 C-7 10 -7 10 -9 10 C-9 9.34 -9 8.68 -9 8 C-8.01 8 -7.02 8 -6 8 C-6 7.01 -6 6.02 -6 5 C-5.195625 4.731875 -4.39125 4.46375 -3.5625 4.1875 C-2.716875 3.795625 -1.87125 3.40375 -1 3 C-0.67 2.01 -0.34 1.02 0 0 Z " fill="#D5CD3C" transform="translate(89,226)"/>
<path d="M0 0 C1.98 0.99 3.96 1.98 6 3 C4.77974937 6.6607519 3.873509 6.92339441 0.5625 8.6875 C-0.24058594 9.12449219 -1.04367188 9.56148437 -1.87109375 10.01171875 C-4 11 -4 11 -6 11 C-6 9.68 -6 8.36 -6 7 C-5.43410156 6.86722656 -4.86820313 6.73445312 -4.28515625 6.59765625 C-3.18494141 6.33275391 -3.18494141 6.33275391 -2.0625 6.0625 C-1.33160156 5.88847656 -0.60070313 5.71445313 0.15234375 5.53515625 C1.99969898 5.16112431 1.99969898 5.16112431 3 4 C2.01 3.34 1.02 2.68 0 2 C0 1.34 0 0.68 0 0 Z " fill="#D1ECF7" transform="translate(54,211)"/>
<path d="M0 0 C1.32 0.33 2.64 0.66 4 1 C3.67 2.65 3.34 4.3 3 6 C-0.63 6 -4.26 6 -8 6 C-7.67 5.34 -7.34 4.68 -7 4 C-4.69 4 -2.38 4 0 4 C0 2.68 0 1.36 0 0 Z " fill="#1A4F70" transform="translate(358,207)"/>
<path d="M0 0 C2.97 0.33 5.94 0.66 9 1 C9 1.66 9 2.32 9 3 C9.639375 3.268125 10.27875 3.53625 10.9375 3.8125 C13 5 13 5 14 8 C8.76481294 6.56032356 4.36973991 4.18303389 0 1 C0 0.67 0 0.34 0 0 Z " fill="#31584A" transform="translate(72,201)"/>
<path d="M0 0 C3.375 2 3.375 2 6 4 C2.52487282 5.15837573 0.86329714 4.77265943 -2.6875 4.0625 C-3.68136719 3.86785156 -4.67523438 3.67320312 -5.69921875 3.47265625 C-6.45847656 3.31667969 -7.21773437 3.16070312 -8 3 C-8 2.34 -8 1.68 -8 1 C-5.13391871 -0.43304064 -3.18699217 -0.30644155 0 0 Z " fill="#28597B" transform="translate(262,187)"/>
<path d="M0 0 C2.31 0 4.62 0 7 0 C7.33 0.99 7.66 1.98 8 3 C6.91332031 3.09087891 6.91332031 3.09087891 5.8046875 3.18359375 C0.82883467 3.61483433 -4.08680391 4.07047641 -9 5 C-8.67 4.34 -8.34 3.68 -8 3 C-5.35139573 2.40644386 -2.70802678 2.25790731 0 2 C0 1.34 0 0.68 0 0 Z " fill="#164E75" transform="translate(200,172)"/>
<path d="M0 0 C0 0.66 0 1.32 0 2 C-1.32 2 -2.64 2 -4 2 C-4 2.66 -4 3.32 -4 4 C-5.258125 4.185625 -6.51625 4.37125 -7.8125 4.5625 C-8.87404297 4.71912109 -8.87404297 4.71912109 -9.95703125 4.87890625 C-12 5 -12 5 -15 4 C-15 3.34 -15 2.68 -15 2 C-12.87528825 1.6648342 -10.75022095 1.33192171 -8.625 1 C-7.44164062 0.814375 -6.25828125 0.62875 -5.0390625 0.4375 C-2 0 -2 0 0 0 Z " fill="#134F78" transform="translate(367,223)"/>
<path d="M0 0 C3.63447207 3.27102486 5.71177335 5.99163439 6.1875 10.95703125 C6.30137005 14.79302865 6.15632596 17.76551106 4 21 C2.7505728 18.50114561 3.15350348 17.46803874 3.625 14.75 C4.18412638 10.29132553 3.54348502 7.81522753 1 4 C-0.56102491 2.18445841 -0.56102491 2.18445841 -2 1 C-1.34 0.67 -0.68 0.34 0 0 Z " fill="#D5F0F6" transform="translate(210,187)"/>
<path d="M0 0 C0.99 0.33 1.98 0.66 3 1 C1.8553125 2.2065625 1.8553125 2.2065625 0.6875 3.4375 C-2.48243973 7.19279792 -3.72055873 11.3191173 -5 16 C-5.33 16 -5.66 16 -6 16 C-5.85915204 14.20793453 -5.71216299 12.41635083 -5.5625 10.625 C-5.48128906 9.62726563 -5.40007812 8.62953125 -5.31640625 7.6015625 C-5 5 -5 5 -4 3 C-3.01 3 -2.02 3 -1 3 C-0.67 2.01 -0.34 1.02 0 0 Z " fill="#1F5476" transform="translate(240,180)"/>
<path d="M0 0 C3.96 1.98 7.92 3.96 12 6 C12 6.66 12 7.32 12 8 C5.25 7.25 5.25 7.25 3 5 C1.68252676 4.30251417 0.35085807 3.63040043 -1 3 C-0.67 2.01 -0.34 1.02 0 0 Z " fill="#1D5379" transform="translate(289,218)"/>
<path d="M0 0 C0.99 0.33 1.98 0.66 3 1 C-0.04981981 3.32367223 -2.22776533 4.88968076 -6.0625 5.4375 C-9.34648977 4.94839514 -11.30578494 3.90179887 -14 2 C-11.2780754 0.6390377 -9.8168043 1.29633752 -6.875 1.9375 C-5.96492188 2.13214844 -5.05484375 2.32679688 -4.1171875 2.52734375 C-3.41851562 2.68332031 -2.71984375 2.83929688 -2 3 C-2 2.34 -2 1.68 -2 1 C-1.34 0.67 -0.68 0.34 0 0 Z " fill="#33627E" transform="translate(265,208)"/>
<path d="M0 0 C11.84939759 0.61144578 11.84939759 0.61144578 17 4 C17.33 4.66 17.66 5.32 18 6 C15.37271142 5.38357466 12.74846418 4.75732213 10.125 4.125 C9.37863281 3.95097656 8.63226563 3.77695313 7.86328125 3.59765625 C2.2265625 2.2265625 2.2265625 2.2265625 0 0 Z " fill="#D3EBF4" transform="translate(344,202)"/>
<path d="M0 0 C4.99911924 0.47610659 7.97832683 2.03162219 12 5 C11.34 5.66 10.68 6.32 10 7 C9.01 7 8.02 7 7 7 C7 6.34 7 5.68 7 5 C6.34 5 5.68 5 5 5 C5 4.34 5 3.68 5 3 C3.35 2.67 1.7 2.34 0 2 C0 1.34 0 0.68 0 0 Z " fill="#E1F6FB" transform="translate(264,176)"/>
<path d="M0 0 C2.475 0.99 2.475 0.99 5 2 C2 4 2 4 -1 5 C-1.70211894 6.65204456 -2.36971413 8.31923769 -3 10 C-3.99 10.495 -3.99 10.495 -5 11 C-5.68359375 9.234375 -5.68359375 9.234375 -6 7 C-4.78515625 5.078125 -4.78515625 5.078125 -3.0625 3.25 C-2.49660156 2.63640625 -1.93070312 2.0228125 -1.34765625 1.390625 C-0.90292969 0.93171875 -0.45820313 0.4728125 0 0 Z " fill="#C9E7F1" transform="translate(341,208)"/>
<path d="M0 0 C4.56958375 1.97322935 7.13463296 3.92236229 10 8 C8.02 8.66 6.04 9.32 4 10 C4 8 4 6 4 4 C2.68 3.34 1.36 2.68 0 2 C0 1.34 0 0.68 0 0 Z " fill="#E9FAFD" transform="translate(48,208)"/>
<path d="M0 0 C2.475 0.495 2.475 0.495 5 1 C5 1.66 5 2.32 5 3 C6.98 3 8.96 3 11 3 C10.34 4.32 9.68 5.64 9 7 C7.68176698 6.40844669 6.37052949 5.80128537 5.0625 5.1875 C4.33160156 4.85105469 3.60070313 4.51460937 2.84765625 4.16796875 C1 3 1 3 0 0 Z " fill="#19517B" transform="translate(50,207)"/>
<path d="M0 0 C0.66 0 1.32 0 2 0 C2 4.62 2 9.24 2 14 C1.01 14.495 1.01 14.495 0 15 C-1.30459914 12.39080172 -1.1326594 10.41057385 -1.125 7.5 C-1.12757813 6.5203125 -1.13015625 5.540625 -1.1328125 4.53125 C-1 2 -1 2 0 0 Z " fill="#DDF0F7" transform="translate(190,193)"/>
<path d="M0 0 C0.33 0 0.66 0 1 0 C1.19672365 1.72814161 1.38196799 3.45759197 1.5625 5.1875 C1.66691406 6.15042969 1.77132812 7.11335937 1.87890625 8.10546875 C1.99758751 10.94233377 1.67765639 13.25423671 1 16 C-1.25414782 12.61877827 -1.24544447 11.3935272 -1.1875 7.4375 C-1.18105469 6.46683594 -1.17460937 5.49617187 -1.16796875 4.49609375 C-1 2 -1 2 0 0 Z " fill="#C2DDEA" transform="translate(178,192)"/>
<path d="M0 0 C0.99 0 1.98 0 3 0 C2.82701599 2.33528415 2.29774631 3.69177582 0.66796875 5.37890625 C-3.57211538 9 -3.57211538 9 -6 9 C-5.67 8.01 -5.34 7.02 -5 6 C-4.34 6 -3.68 6 -3 6 C-3 5.34 -3 4.68 -3 4 C-2.34 3.67 -1.68 3.34 -1 3 C-0.67 2.01 -0.34 1.02 0 0 Z " fill="#D3ECF7" transform="translate(276,213)"/>
<path d="M0 0 C1.32 0.33 2.64 0.66 4 1 C4.08121924 2.60332791 4.13929134 4.20784026 4.1875 5.8125 C4.22230469 6.70582031 4.25710938 7.59914062 4.29296875 8.51953125 C3.95081002 11.41647515 3.24606427 12.22555028 1 14 C0.67 13.01 0.34 12.02 0 11 C0.99 10.67 1.98 10.34 3 10 C2.01 6.7 1.02 3.4 0 0 Z " fill="#E5F6FA" transform="translate(371,205)"/>
<path d="M0 0 C1.52519276 0.08937803 3.04681929 0.24537146 4.5625 0.4375 C5.80193359 0.59025391 5.80193359 0.59025391 7.06640625 0.74609375 C7.70449219 0.82988281 8.34257813 0.91367188 9 1 C9.33 1.99 9.66 2.98 10 4 C5.545 3.01 5.545 3.01 1 2 C0.67 4.31 0.34 6.62 0 9 C-0.33 9 -0.66 9 -1 9 C-1.09765625 2.84765625 -1.09765625 2.84765625 -1 1 C-0.67 0.67 -0.34 0.34 0 0 Z " fill="#154A66" transform="translate(68,199)"/>
<path d="M0 0 C0.66 0.66 1.32 1.32 2 2 C1.67 3.32 1.34 4.64 1 6 C3.64 6.99 6.28 7.98 9 9 C3.86057616 10.28485596 2.62164416 9.22194431 -2 7 C-2.125 4.625 -2.125 4.625 -2 2 C-1.34 1.34 -0.68 0.68 0 0 Z " fill="#E0F5FB" transform="translate(350,185)"/>
<path d="M0 0 C2.86623928 2.73595568 4.7271266 5.1813798 6 9 C3.69 8.34 1.38 7.68 -1 7 C-0.67 4.69 -0.34 2.38 0 0 Z " fill="#195683" transform="translate(283,208)"/>
<path d="M0 0 C0.99 0.66 1.98 1.32 3 2 C3 2.99 3 3.98 3 5 C1.35 5.66 -0.3 6.32 -2 7 C-2.66 6.01 -3.32 5.02 -4 4 C-3.67 3.34 -3.34 2.68 -3 2 C-2.01 2 -1.02 2 0 2 C0 1.34 0 0.68 0 0 Z " fill="#F9F7F0" transform="translate(272,181)"/>
<path d="M0 0 C1.32 0.33 2.64 0.66 4 1 C4 1.66 4 2.32 4 3 C4.99 3 5.98 3 7 3 C6.67 3.66 6.34 4.32 6 5 C5.34 5 4.68 5 4 5 C4.66 5.66 5.32 6.32 6 7 C4.35 7.33 2.7 7.66 1 8 C0.67 5.36 0.34 2.72 0 0 Z " fill="#11507F" transform="translate(344,169)"/>
<path d="M0 0 C3.63 0 7.26 0 11 0 C11 0.99 11 1.98 11 3 C7.04 2.67 3.08 2.34 -1 2 C-0.67 1.34 -0.34 0.68 0 0 Z " fill="#0F4973" transform="translate(197,225)"/>
<path d="M0 0 C1.04794275 3.14382824 1.00520947 4.87203439 0.6875 8.125 C0.60886719 9.01445312 0.53023437 9.90390625 0.44921875 10.8203125 C0.22685547 11.89925781 0.22685547 11.89925781 0 13 C-0.99 13.495 -0.99 13.495 -2 14 C-2.05437607 12.41705218 -2.09296271 10.83355744 -2.125 9.25 C-2.14820313 8.36828125 -2.17140625 7.4865625 -2.1953125 6.578125 C-1.99139502 3.8864142 -1.36551721 2.30095026 0 0 Z " fill="#2B5C7E" transform="translate(250,191)"/>
<path d="M0 0 C2.31 0.33 4.62 0.66 7 1 C7 1.66 7 2.32 7 3 C4.69 3.33 2.38 3.66 0 4 C0 2.68 0 1.36 0 0 Z " fill="#034C8A" transform="translate(151,190)"/>
<path d="M0 0 C1.32 0 2.64 0 4 0 C4 3.3 4 6.6 4 10 C2.68 9.67 1.36 9.34 0 9 C0.33 8.67 0.66 8.34 1 8 C1.36760731 5.67182036 1.70241581 3.3381615 2 1 C1.34 0.67 0.68 0.34 0 0 Z " fill="#E8FDFE" transform="translate(168,177)"/>
<path d="M0 0 C2.8326134 1.4163067 3.01707833 3.14497293 4.125 6.0625 C4.47820312 6.98160156 4.83140625 7.90070313 5.1953125 8.84765625 C5.46085938 9.55792969 5.72640625 10.26820313 6 11 C5.01 11 4.02 11 3 11 C0.60236815 8.60236815 0.65719414 7.66726502 0.375 4.375 C0.30023438 3.55773437 0.22546875 2.74046875 0.1484375 1.8984375 C0.09945312 1.27195313 0.05046875 0.64546875 0 0 Z " fill="#23577E" transform="translate(176,204)"/>
<path d="M0 0 C8.19256018 -0.63019694 8.19256018 -0.63019694 11.5625 2 C12.036875 2.66 12.51125 3.32 13 4 C9.90124328 4 7.75578485 3.41738748 4.8125 2.5 C3.91144531 2.2215625 3.01039063 1.943125 2.08203125 1.65625 C1.39496094 1.4396875 0.70789063 1.223125 0 1 C0 0.67 0 0.34 0 0 Z " fill="#2F5D7A" transform="translate(359,194)"/>
<path d="M0 0 C5.75 0.75 5.75 0.75 8 3 C8 3.99 8 4.98 8 6 C4.08597051 4.73058503 2.20927127 3.48832306 0 0 Z " fill="#DEF6FC" transform="translate(240,216)"/>
<path d="M0 0 C1.5778125 0.2475 1.5778125 0.2475 3.1875 0.5 C6.20468796 0.89569678 8.97093972 1.09178971 12 1 C9.44931155 3.35448165 8.28982642 3.98327924 4.75 4.1875 C3.8425 4.125625 2.935 4.06375 2 4 C1.34 2.68 0.68 1.36 0 0 Z " fill="#325D7C" transform="translate(302,209)"/>
<path d="M0 0 C2.475 0.99 2.475 0.99 5 2 C5.33 4.31 5.66 6.62 6 9 C2.91910327 6.22719294 1.31224548 3.93673644 0 0 Z " fill="#D6EDF5" transform="translate(179,209)"/>
<path d="M0 0 C3.71368887 1.23789629 4.77354181 2.85224877 7 6 C7 6.66 7 7.32 7 8 C5.125 7.75 5.125 7.75 3 7 C1.55852701 4.72399002 0.85554578 2.56663734 0 0 Z " fill="#0C4974" transform="translate(370,194)"/>
<path d="M0 0 C1.11375 0.598125 2.2275 1.19625 3.375 1.8125 C4.00148437 2.14894531 4.62796875 2.48539063 5.2734375 2.83203125 C7 4 7 4 9 7 C4.59885603 6.49701212 2.28804981 4.91227269 -1 2 C-0.67 1.34 -0.34 0.68 0 0 Z " fill="#DDF3F9" transform="translate(213,177)"/>
<path d="M0 0 C0.66 0.33 1.32 0.66 2 1 C0.35 1.66 -1.3 2.32 -3 3 C-3 3.66 -3 4.32 -3 5 C-6 7 -6 7 -8.1875 6.625 C-8.785625 6.41875 -9.38375 6.2125 -10 6 C-8.3811004 4.96951963 -6.75467511 3.95085322 -5.125 2.9375 C-4.22007813 2.36902344 -3.31515625 1.80054688 -2.3828125 1.21484375 C-1.20332031 0.61349609 -1.20332031 0.61349609 0 0 Z " fill="#385738" transform="translate(99,225)"/>
<path d="M0 0 C0.33 0.66 0.66 1.32 1 2 C0.34 1.67 -0.32 1.34 -1 1 C-0.67 0.67 -0.34 0.34 0 0 Z M-3 2 C-1 3 -1 3 -1 3 Z M-6 4 C-5.34 4.33 -4.68 4.66 -4 5 C-6.25 7.0625 -6.25 7.0625 -9 9 C-11.3125 8.75 -11.3125 8.75 -13 8 C-7.7265625 4.77734375 -7.7265625 4.77734375 -6 4 Z " fill="#11507C" transform="translate(229,213)"/>
<path d="M0 0 C7.50769231 0.61538462 7.50769231 0.61538462 10 2.5625 C10.33 3.036875 10.66 3.51125 11 4 C10.01 4.495 10.01 4.495 9 5 C6.8359375 4.22265625 6.8359375 4.22265625 4.375 3.0625 C3.55773437 2.68222656 2.74046875 2.30195313 1.8984375 1.91015625 C1.27195312 1.60980469 0.64546875 1.30945313 0 1 C0 0.67 0 0.34 0 0 Z " fill="#1E557D" transform="translate(363,175)"/>
<path d="M0 0 C0 0.66 0 1.32 0 2 C-0.99 2.33 -1.98 2.66 -3 3 C-3.99 4.485 -3.99 4.485 -5 6 C-7.625 6.1875 -7.625 6.1875 -10 6 C-7.35570758 3.077361 -4.105808 0 0 0 Z " fill="#2E5041" transform="translate(89,232)"/>
<path d="M0 0 C6.75 0.75 6.75 0.75 9 3 C8.67 3.66 8.34 4.32 8 5 C4.62496331 3.8141763 2.35277269 2.72426311 0 0 Z " fill="#CFEAF2" transform="translate(185,218)"/>
<path d="M0 0 C1.875 0.25 1.875 0.25 4 1 C5.25 3.0625 5.25 3.0625 6 5 C3.03 4.505 3.03 4.505 0 4 C0 2.68 0 1.36 0 0 Z " fill="#104C6F" transform="translate(179,215)"/>
<path d="M0 0 C4.7517398 0.43197635 6.92000054 1.32769295 10 5 C5.75354935 5 3.61475228 3.18249194 0 1 C0 0.67 0 0.34 0 0 Z " fill="#2F5144" transform="translate(93,213)"/>
<path d="M0 0 C1.258125 0.12375 2.51625 0.2475 3.8125 0.375 C4.87404297 0.47941406 4.87404297 0.47941406 5.95703125 0.5859375 C8 1 8 1 11 3 C7.7 3 4.4 3 1 3 C0.67 2.01 0.34 1.02 0 0 Z " fill="#215679" transform="translate(346,204)"/>
<path d="M0 0 C0.33 0 0.66 0 1 0 C1.125 2.875 1.125 2.875 1 6 C0.34 6.66 -0.32 7.32 -1 8 C-3.125 7.625 -3.125 7.625 -5 7 C-4.19152271 5.83054208 -3.37810888 4.66449539 -2.5625 3.5 C-2.11003906 2.8503125 -1.65757812 2.200625 -1.19140625 1.53125 C-0.79824219 1.0259375 -0.40507812 0.520625 0 0 Z " fill="#1F597E" transform="translate(373,183)"/>
<path d="M0 0 C0.66 0.33 1.32 0.66 2 1 C-0.44680851 4.79255319 -0.44680851 4.79255319 -3 5.75 C-5 6 -5 6 -8 6 C-5.36 4.02 -2.72 2.04 0 0 Z " fill="#D1EBF6" transform="translate(248,177)"/>
<path d="M0 0 C2.97 0.495 2.97 0.495 6 1 C6 2.65 6 4.3 6 6 C5.01 6 4.02 6 3 6 C3 5.01 3 4.02 3 3 C1.56249809 1.31201173 1.56249809 1.31201173 0 0 Z " fill="#0D4973" transform="translate(102,217)"/>
<path d="M0 0 C1.69141656 0.08963062 3.37959602 0.24577676 5.0625 0.4375 C6.44115234 0.59025391 6.44115234 0.59025391 7.84765625 0.74609375 C8.55792969 0.82988281 9.26820313 0.91367188 10 1 C8 3 8 3 4.5 3.25 C1 3 1 3 -1 1 C-0.67 0.67 -0.34 0.34 0 0 Z " fill="#37627F" transform="translate(198,210)"/>
<path d="M0 0 C3.875 1.75 3.875 1.75 5 4 C5.06950541 5.54023996 5.08452357 7.08334988 5.0625 8.625 C5.05347656 9.44226563 5.04445313 10.25953125 5.03515625 11.1015625 C5.02355469 11.72804687 5.01195312 12.35453125 5 13 C4.67 13 4.34 13 4 13 C3.896875 11.741875 3.79375 10.48375 3.6875 9.1875 C3.30390844 5.86042583 3.30390844 5.86042583 1.4375 3.125 C0.963125 2.75375 0.48875 2.3825 0 2 C0 1.34 0 0.68 0 0 Z " fill="#C2E0EB" transform="translate(371,201)"/>
<path d="M0 0 C0 0.99 0 1.98 0 3 C-2.25 4.75 -2.25 4.75 -5 6 C-6.32 5.67 -7.64 5.34 -9 5 C-6.03 3.35 -3.06 1.7 0 0 Z " fill="#285B7C" transform="translate(65,192)"/>
<path d="M0 0 C0.66 0.66 1.32 1.32 2 2 C0.8125 4 0.8125 4 -1 6 C-3.6875 6.25 -3.6875 6.25 -6 6 C-2.25 1.125 -2.25 1.125 0 0 Z " fill="#164C72" transform="translate(278,186)"/>
<path d="M0 0 C-5.75 4 -5.75 4 -8 4 C-7.6875 2.0625 -7.6875 2.0625 -7 0 C-3.86650268 -1.04449911 -3.01031744 -0.93423645 0 0 Z " fill="#D9F2F7" transform="translate(80,184)"/>
<path d="M0 0 C0 0.33 0 0.66 0 1 C-1.57925975 1.39180108 -3.16368794 1.76280736 -4.75 2.125 C-5.63171875 2.33382812 -6.5134375 2.54265625 -7.421875 2.7578125 C-10.32875493 3.03088304 -11.56661348 2.53508028 -14 1 C-9.32798795 -0.20568053 -4.78503708 -0.09382426 0 0 Z " fill="#CAE5F5" transform="translate(264,175)"/>
<path d="M0 0 C0 0.33 0 0.66 0 1 C-4 2.33333333 -8 3.66666667 -12 5 C-11 2 -11 2 -9.375 0.8125 C-6.19617272 -0.27499354 -3.33338467 -0.1282071 0 0 Z " fill="#2A5B7F" transform="translate(255,175)"/>
<path d="M0 0 C2.97 1.65 5.94 3.3 9 5 C9 5.33 9 5.66 9 6 C7.35 6 5.7 6 4 6 C3.67 5.01 3.34 4.02 3 3 C2.01 2.67 1.02 2.34 0 2 C0 1.34 0 0.68 0 0 Z " fill="#CEE6F0" transform="translate(71,168)"/>
<path d="M0 0 C3.26954202 0.56371414 4.82575883 1.49962266 7 4 C6.67 4.99 6.34 5.98 6 7 C1.125 3.375 1.125 3.375 0 0 Z " fill="#CEEAF4" transform="translate(288,215)"/>
<path d="M0 0 C4.62 0.66 9.24 1.32 14 2 C14 2.33 14 2.66 14 3 C9.71 3 5.42 3 1 3 C0.67 2.01 0.34 1.02 0 0 Z " fill="#B5D8E4" transform="translate(346,211)"/>
<path d="M0 0 C2.475 0.99 2.475 0.99 5 2 C5 2.99 5 3.98 5 5 C3.35 5 1.7 5 0 5 C0 3.35 0 1.7 0 0 Z " fill="#E6F6FA" transform="translate(299,210)"/>
<path d="M0 0 C1.67542976 0.28604898 3.34385343 0.61781233 5 1 C4.67 1.99 4.34 2.98 4 4 C4.66 4.33 5.32 4.66 6 5 C3 5 3 5 0.8125 3 C0.214375 2.34 -0.38375 1.68 -1 1 C-0.67 0.67 -0.34 0.34 0 0 Z " fill="#1F547D" transform="translate(218,178)"/>
<path d="M0 0 C0 0.66 0 1.32 0 2 C-1.75 3.6875 -1.75 3.6875 -4 5 C-6.25 4.6875 -6.25 4.6875 -8 4 C-2.25 0 -2.25 0 0 0 Z " fill="#2B5249" transform="translate(79,238)"/>
<path d="M0 0 C0 0.66 0 1.32 0 2 C-0.66 2 -1.32 2 -2 2 C-2 2.99 -2 3.98 -2 5 C-2.99 5.33 -3.98 5.66 -5 6 C-5 4.68 -5 3.36 -5 2 C-2 0 -2 0 0 0 Z " fill="#12496D" transform="translate(30,234)"/>
<path d="M0 0 C0.66 0.99 1.32 1.98 2 3 C1 4 1 4 -2.5625 4.0625 C-3.696875 4.041875 -4.83125 4.02125 -6 4 C-3.94766315 1.7522025 -2.99332739 0.9977758 0 0 Z " fill="#DCEFF5" transform="translate(319,219)"/>
<path d="M0 0 C0.66 0.99 1.32 1.98 2 3 C1.01 4.98 0.02 6.96 -1 9 C-1.33 8.34 -1.66 7.68 -2 7 C-2.99 6.67 -3.98 6.34 -5 6 C-3.68 5.67 -2.36 5.34 -1 5 C-0.67 3.35 -0.34 1.7 0 0 Z " fill="#C8E1ED" transform="translate(315,206)"/>
<path d="M0 0 C0.33 0 0.66 0 1 0 C1.66 3.63 2.32 7.26 3 11 C2.01 11.495 2.01 11.495 1 12 C-0.26237731 9.47524538 -0.09856404 7.68799534 -0.0625 4.875 C-0.05347656 3.96492187 -0.04445313 3.05484375 -0.03515625 2.1171875 C-0.02355469 1.41851562 -0.01195312 0.71984375 0 0 Z " fill="#D9F1F8" transform="translate(337,185)"/>
<path d="M0 0 C1.60031344 3.20062687 0.03173691 5.72271806 -1 9 C-1.99 8.67 -2.98 8.34 -4 8 C-2.87548273 5.0280615 -1.77706209 2.66559313 0 0 Z " fill="#CEE9F2" transform="translate(183,183)"/>
<path d="M0 0 C-2.68841859 2.25245881 -4.64641875 3.88213958 -8 5 C-7.625 3.0625 -7.625 3.0625 -7 1 C-4.53721199 -0.231394 -2.7204945 -0.07159196 0 0 Z " fill="#D9F0F6" transform="translate(72,188)"/>
<path d="M0 0 C0.99 0.66 1.98 1.32 3 2 C2.34 3.65 1.68 5.3 1 7 C0.01 6.67 -0.98 6.34 -2 6 C-1.34 4.02 -0.68 2.04 0 0 Z " fill="#D8F0F8" transform="translate(371,179)"/>
<path d="M0 0 C0.66 0.33 1.32 0.66 2 1 C1.67 1.66 1.34 2.32 1 3 C0.34 3 -0.32 3 -1 3 C-1.33 3.99 -1.66 4.98 -2 6 C-4.0625 7.1875 -4.0625 7.1875 -6 8 C-4.55746343 4.63408134 -2.66735273 2.48952921 0 0 Z " fill="#D0ECF4" transform="translate(344,177)"/>
<path d="M0 0 C1.32 0.33 2.64 0.66 4 1 C2.8125 2.5 2.8125 2.5 1 4 C-1.6875 4.1875 -1.6875 4.1875 -4 4 C-3.67 3.34 -3.34 2.68 -3 2 C-2.01 2 -1.02 2 0 2 C0 1.34 0 0.68 0 0 Z " fill="#0F4A77" transform="translate(89,232)"/>
<path d="M0 0 C0.33 0.66 0.66 1.32 1 2 C-0.65 3.65 -2.3 5.3 -4 7 C-4.66 6.67 -5.32 6.34 -6 6 C-2.25 1.125 -2.25 1.125 0 0 Z " fill="#1F5678" transform="translate(226,212)"/>
<path d="M0 0 C1.32 0.66 2.64 1.32 4 2 C2.71034824 3.37562854 1.37310707 4.70766393 0 6 C-0.66 6 -1.32 6 -2 6 C-1.34 4.02 -0.68 2.04 0 0 Z " fill="#CCEBF5" transform="translate(84,176)"/>
<path d="M0 0 C2.64 0 5.28 0 8 0 C8.33 1.32 8.66 2.64 9 4 C6.03 3.01 3.06 2.02 0 1 C0 0.67 0 0.34 0 0 Z " fill="#306184" transform="translate(264,175)"/>
</svg>
