<svg xmlns="http://www.w3.org/2000/svg" width="114" height="14" viewBox="0 0 114 14" fill="none"><path d="M109.028 11.3361C109.02 10.9268 109.135 10.5245 109.357 10.1805C109.579 9.83646 109.898 9.56623 110.274 9.40422C110.65 9.24221 111.066 9.19575 111.469 9.27076C111.872 9.34576 112.243 9.53885 112.535 9.82541C112.828 10.112 113.029 10.4791 113.112 10.8799C113.195 11.2807 113.156 11.6972 113.002 12.0762C112.847 12.4553 112.583 12.7798 112.243 13.0083C111.903 13.2369 111.503 13.3592 111.093 13.3598C110.551 13.3646 110.029 13.1543 109.642 12.7749C109.254 12.3954 109.034 11.878 109.028 11.3361ZM112.844 11.3361C112.852 10.9878 112.755 10.6451 112.567 10.3518C112.379 10.0585 112.108 9.82791 111.788 9.68941C111.468 9.55091 111.114 9.51082 110.771 9.57426C110.429 9.63769 110.113 9.80178 109.863 10.0456C109.614 10.2893 109.444 10.6018 109.373 10.9429C109.303 11.2841 109.336 11.6385 109.468 11.9609C109.6 12.2833 109.825 12.5591 110.114 12.753C110.404 12.947 110.745 13.0503 111.093 13.0498C111.553 13.0537 111.995 12.8755 112.323 12.5543C112.651 12.2331 112.838 11.795 112.844 11.3361ZM110.029 11.3418C110.013 11.1843 110.029 11.025 110.077 10.874C110.125 10.723 110.203 10.5836 110.308 10.4645C110.412 10.3454 110.54 10.2492 110.684 10.182C110.828 10.1147 110.983 10.0779 111.142 10.0738C111.361 10.0662 111.577 10.1288 111.759 10.2525C111.94 10.3762 112.077 10.5545 112.15 10.7614L111.767 10.9082C111.726 10.7742 111.644 10.6567 111.532 10.5726C111.42 10.4885 111.284 10.4421 111.144 10.4403C110.659 10.4403 110.44 10.8797 110.44 11.3423C110.44 11.8048 110.654 12.2269 111.15 12.2269C111.287 12.2296 111.422 12.1861 111.532 12.1034C111.642 12.0207 111.722 11.9036 111.758 11.7706L112.123 11.904C112.059 12.1101 111.929 12.2896 111.753 12.4147C111.578 12.5399 111.365 12.6039 111.15 12.597C110.991 12.5948 110.835 12.5598 110.691 12.4941C110.547 12.4285 110.418 12.3336 110.313 12.2156C110.208 12.0976 110.128 11.959 110.079 11.8085C110.03 11.6581 110.013 11.4992 110.029 11.3418Z" fill="#0F0F0F"></path><path d="M6.70333 5.5276H12.8573L12.7808 7.1399C12.7541 8.00748 12.5691 8.86289 12.2346 9.66398C11.9305 10.3919 11.4915 11.0559 10.9407 11.621C10.3966 12.1696 9.74789 12.6036 9.03301 12.8975C8.26993 13.2101 7.4519 13.3668 6.62722 13.3583C5.73174 13.3658 4.84426 13.1894 4.0198 12.8401C3.23829 12.5111 2.53095 12.0284 1.93983 11.4208C0.732373 10.1609 0.0620651 8.48141 0.0703891 6.73694C0.0662231 5.8536 0.232459 4.97774 0.560004 4.15726C0.871261 3.36795 1.32985 2.64496 1.91134 2.02681C2.50745 1.39736 3.22708 0.897551 4.02526 0.558607C4.82343 0.219663 5.68299 0.048873 6.55022 0.0569118C7.16277 0.0551525 7.77255 0.139141 8.36179 0.306429C8.93455 0.468963 9.48029 0.714731 9.98153 1.03585C10.482 1.35787 10.9313 1.75324 11.3142 2.20872C11.7136 2.68573 12.034 3.2236 12.2631 3.80189H8.60126C8.27474 3.53558 7.891 3.34834 7.48004 3.25482C7.16241 3.18052 6.83804 3.13865 6.51194 3.12984C6.05606 3.1263 5.6048 3.22128 5.18909 3.40827C4.78431 3.59033 4.41959 3.85063 4.11594 4.17416C3.80581 4.50582 3.5617 4.89345 3.39665 5.31634C3.22313 5.75632 3.13521 6.22534 3.1376 6.69824C3.13391 7.17762 3.22183 7.65329 3.39665 8.09972C3.56156 8.52268 3.80569 8.91033 4.11594 9.24189C4.41933 9.5663 4.78408 9.82737 5.18909 10.01C5.60481 10.1969 6.05608 10.2918 6.51194 10.288C6.72078 10.2842 6.92906 10.265 7.13508 10.2306C7.40549 10.186 7.66945 10.1086 7.92114 10.0002C8.21441 9.87354 8.48608 9.70187 8.72633 9.49141C9.00447 9.24554 9.22395 8.94051 9.36862 8.59875H6.70333V5.5276Z" fill="#0F0F0F"></path><path d="M84.1483 6.73795C84.1581 8.03581 83.784 9.30765 83.0729 10.3937C82.3617 11.4798 81.3453 12.3317 80.1512 12.8424C79.3367 13.191 78.4588 13.3675 77.5727 13.3606C76.6961 13.3669 75.8277 13.1904 75.0232 12.8424C74.245 12.5067 73.5388 12.0244 72.9432 11.4218C72.3458 10.8157 71.8679 10.1026 71.5344 9.31985C71.1863 8.50464 71.0101 7.62648 71.0168 6.74018C71.0114 5.85698 71.1841 4.98175 71.5247 4.16673C71.8509 3.37891 72.3225 2.65939 72.9147 2.04561C73.5084 1.43371 74.2144 0.941733 74.9942 0.596545C75.8055 0.235726 76.6847 0.0525312 77.5727 0.0592609H84.1483V6.73795ZM81.081 6.73795V3.12907H77.5727C77.1129 3.12942 76.6579 3.22221 76.2347 3.40193C75.8115 3.58165 75.4289 3.84462 75.1095 4.17518C74.7909 4.5095 74.5374 4.90013 74.3617 5.32714C74.1752 5.77398 74.0806 6.25379 74.0836 6.73795C74.0794 7.21812 74.1701 7.69439 74.3506 8.13943C74.5192 8.55922 74.7701 8.94107 75.0886 9.26247C75.4083 9.58073 75.786 9.83483 76.2014 10.011C76.6366 10.1946 77.1043 10.2892 77.5767 10.2892C78.0492 10.2892 78.5168 10.1946 78.9521 10.011C79.3657 9.83153 79.7428 9.57782 80.0649 9.26247C80.3882 8.94302 80.6427 8.56083 80.8126 8.13943C80.993 7.69434 81.0837 7.21811 81.0797 6.73795" fill="#E50914"></path><path d="M31.5924 0.0581055L35.925 9.48281L40.2386 0.0581055H43.4593V13.3608H40.3921V7.08372L37.5933 13.3608H34.2381L31.4393 7.08372V13.3608H28.3721V0.0581055H31.5924Z" fill="#0F0F0F"></path><path d="M47.9481 0.0615041L51.0149 5.13724L54.0256 0.0392656L57.6104 0.0263672L52.5612 8.56954L52.5776 13.3624L49.5104 13.3735L49.4935 8.58066L44.3828 0.0744025L47.9481 0.0615041Z" fill="#0F0F0F"></path><path d="M69.7853 9.0784C69.5482 9.70795 69.2152 10.2971 68.7981 10.825C68.3901 11.3429 67.9089 11.7988 67.3697 12.1785C66.269 12.9498 64.9566 13.3622 63.6122 13.3589C62.7324 13.3645 61.861 13.1881 61.0528 12.8407C60.2729 12.5081 59.5662 12.0254 58.9728 11.4201C58.3796 10.8108 57.908 10.0941 57.5832 9.30835C57.2428 8.49374 57.0701 7.61898 57.0754 6.73623C57.0692 5.84624 57.2453 4.9644 57.593 4.14499C57.9265 3.35649 58.4045 2.63712 59.0022 2.02388C59.5974 1.41571 60.3036 0.927003 61.0826 0.584153C62.5172 -0.0373435 64.1299 -0.11234 65.616 0.373331C66.2393 0.57984 66.8299 0.873969 67.3702 1.24686C67.9088 1.61986 68.3872 2.07299 68.7887 2.59052C69.2009 3.12051 69.531 3.70946 69.7679 4.33758H66.2405C65.9215 3.96689 65.5293 3.66602 65.0886 3.45382C64.6345 3.23475 64.136 3.12305 63.6317 3.12736C63.1719 3.1277 62.7169 3.22049 62.2937 3.40021C61.8705 3.57993 61.4879 3.8429 61.1685 4.17346C60.8499 4.50778 60.5964 4.89841 60.4208 5.32542C60.2342 5.77227 60.1396 6.25207 60.1426 6.73623C60.1383 7.21641 60.2291 7.6927 60.4096 8.13771C60.5782 8.55751 60.8291 8.93935 61.1476 9.26076C61.4673 9.57901 61.845 9.83311 62.2604 10.0093C62.7135 10.2007 63.2017 10.2953 63.6936 10.287C64.1855 10.2788 64.6702 10.1678 65.1166 9.96127C65.5607 9.7511 65.9558 9.45036 66.2765 9.0784H69.7853Z" fill="#0F0F0F"></path><path d="M90.0464 13.3577H85.2549V0.0567729H90.0464C90.9877 0.0514584 91.9231 0.206378 92.8123 0.514888C93.6563 0.805809 94.4365 1.25608 95.1104 1.8412C95.7747 2.42224 96.309 3.13665 96.6785 3.93785C97.0708 4.80075 97.267 5.73975 97.2531 6.68743C97.2671 7.63525 97.0708 8.5744 96.6785 9.43745C96.3099 10.2368 95.7831 10.9534 95.13 11.5439C94.4635 12.139 93.6856 12.5963 92.8412 12.8893C91.9436 13.2051 90.9981 13.3636 90.0464 13.3577ZM88.3715 10.2372H90.0464C90.6701 10.2505 91.2909 10.1481 91.8771 9.93515C92.3539 9.76056 92.7887 9.4878 93.1533 9.13456C93.4772 8.81406 93.7295 8.42857 93.8935 8.00351C94.2183 7.16919 94.2183 6.24347 93.8935 5.40915C93.7294 4.98412 93.4772 4.59864 93.1533 4.2781C92.7886 3.92495 92.3539 3.65221 91.8771 3.47751C91.2908 3.26479 90.6701 3.16239 90.0464 3.17551H88.3715V10.2372Z" fill="#0F0F0F"></path><path d="M98.3623 13.3608V0.0581055H107.968V3.17907H101.479V5.14896H107.968V8.26948H101.479V10.2398H107.968V13.3603L98.3623 13.3608Z" fill="#0F0F0F"></path><path d="M20.6024 1.15635e-05C19.2739 -0.0024526 17.9745 0.388969 16.8687 1.12474C15.763 1.8605 14.9005 2.90754 14.3905 4.13332C13.8804 5.3591 13.7458 6.70853 14.0036 8.0108C14.2614 9.31307 14.9 10.5097 15.8387 11.4491C16.7773 12.3885 17.9738 13.0286 19.2766 13.2883C20.5794 13.5479 21.9301 13.4156 23.1576 12.9079C24.3851 12.4002 25.4343 11.54 26.1724 10.4362C26.9105 9.33245 27.3042 8.03467 27.3039 6.70717C27.3046 5.82707 27.1318 4.95546 26.7954 4.14209C26.459 3.32872 25.9656 2.58952 25.3433 1.9667C24.721 1.34389 23.982 0.849644 23.1686 0.512199C22.3551 0.174754 21.4832 0.000712183 20.6024 1.15635e-05ZM20.6024 10.2111C19.9091 10.2121 19.231 10.0077 18.654 9.62358C18.077 9.23948 17.6269 8.693 17.3608 8.05327C17.0947 7.41353 17.0244 6.7093 17.1589 6.02965C17.2934 5.35 17.6265 4.72547 18.1163 4.23509C18.6061 3.7447 19.2304 3.41049 19.9103 3.27472C20.5901 3.13896 21.295 3.20774 21.9358 3.47238C22.5765 3.73702 23.1244 4.18562 23.5099 4.76142C23.8955 5.33722 24.1015 6.01436 24.1018 6.70717C24.1026 7.1669 24.0126 7.62228 23.8371 8.04724C23.6616 8.47221 23.404 8.85844 23.079 9.18383C22.7539 9.50922 22.3679 9.76739 21.943 9.94358C21.518 10.1198 21.0625 10.2105 20.6024 10.2106V10.2111Z" fill="#0F0F0F"></path></svg>