<?xml version="1.0" encoding="UTF-8"?>
<svg version="1.1" xmlns="http://www.w3.org/2000/svg" width="1200" height="675">
<path d="M0 0 C396 0 792 0 1200 0 C1200 222.75 1200 445.5 1200 675 C804 675 408 675 0 675 C0 452.25 0 229.5 0 0 Z " fill="#FEFEFE" transform="translate(0,0)"/>
<path d="M0 0 C3.0859375 1.5390625 3.0859375 1.5390625 6.375 3.625 C7.70122076 4.45148786 9.02809299 5.27693089 10.35546875 6.1015625 C11.45640869 6.79233887 11.45640869 6.79233887 12.57958984 7.49707031 C17.24445965 10.39367496 21.97289874 13.18537311 26.6875 16 C37.1046959 22.24269579 47.49000843 28.53678036 57.86523438 34.84887695 C65.72694728 39.63013473 73.60629405 44.38078864 81.52270508 49.07104492 C85.36870754 51.3629953 89.18361538 53.70358849 92.95703125 56.11328125 C93.69542236 56.58161377 94.43381348 57.04994629 95.19458008 57.5324707 C97 59 97 59 98.5 62.5 C97.96812581 66.22311931 97.75805418 66.69522359 95.125 69.0625 C93.7720158 70.07186917 92.39511121 71.04970685 91 72 C90.2884375 72.5053125 89.576875 73.010625 88.84375 73.53125 C84.45927275 76.55715683 79.92684575 79.18124528 75.25 81.72265625 C71.35727598 83.93258812 67.69354962 86.47586142 64 89 C62.46031852 90.04459872 60.91866482 91.08629673 59.375 92.125 C58.70210938 92.58132813 58.02921875 93.03765625 57.3359375 93.5078125 C55.55700519 94.64418732 53.73590317 95.71483561 51.8984375 96.75390625 C46.89785949 99.58422002 42.08744276 102.71454864 37.25 105.8125 C35.38020833 107.00651042 33.51041667 108.20052083 31.640625 109.39453125 C30.70855225 109.99056152 29.77647949 110.5865918 28.81616211 111.20068359 C25.11760569 113.56378379 21.41391113 115.91876815 17.71044922 118.27416992 C15.05352692 119.96591769 12.39942655 121.66200421 9.74609375 123.359375 C0.31893883 129.38393814 -9.13874835 135.34302289 -18.7019043 141.14941406 C-30.26827027 147.98903379 -30.26827027 147.98903379 -41.1953125 155.75 C-43 157 -43 157 -46 157 C-49.97988729 155.6733709 -50.88055548 154.65072387 -53 151 C-53.60593972 147.04648014 -53.5564343 143.1221586 -53.53344727 139.12890625 C-53.54206284 137.92676483 -53.55067841 136.72462341 -53.55955505 135.48605347 C-53.5783474 132.19665865 -53.5791169 128.90789966 -53.57023358 125.61848068 C-53.56511692 122.86989495 -53.5724216 120.12139922 -53.57970566 117.37282276 C-53.59669486 110.88811662 -53.59314836 104.40364586 -53.57641602 97.91894531 C-53.55948851 91.23346899 -53.57533927 84.54864531 -53.6076389 77.86324024 C-53.63434329 72.11783683 -53.64160881 66.37263647 -53.63312382 60.62717724 C-53.62819778 57.19801023 -53.63039211 53.76923602 -53.65091133 50.34011841 C-53.66829765 46.5166237 -53.65386112 42.69453157 -53.63110352 38.87109375 C-53.64279572 37.73743378 -53.65448792 36.6037738 -53.66653442 35.4357605 C-53.57360823 27.7763198 -53.57360823 27.7763198 -50.63633728 23.80102539 C-48 22 -48 22 -45.1875 21.3125 C-40.50570442 22.32229905 -37.58034847 24.92673951 -34 28 C-32.88625 28.86625 -32.88625 28.86625 -31.75 29.75 C-25.59433596 37.66442519 -25.43395969 46.53487587 -25.49609375 56.1796875 C-25.48871055 57.52346109 -25.47915381 58.8672243 -25.46754456 60.21096802 C-25.44106066 63.71765378 -25.43524139 67.22399897 -25.43664551 70.73077393 C-25.43888998 76.36296726 -25.42471406 81.99474434 -25.38105965 87.62677383 C-25.37125261 89.58545987 -25.38034846 91.54421117 -25.38975525 93.50289917 C-25.38287186 94.691586 -25.37598846 95.88027283 -25.36889648 97.10498047 C-25.37033913 98.6719014 -25.37033913 98.6719014 -25.37181091 100.27047729 C-24.94612119 103.39553286 -24.20389148 104.77083796 -22 107 C-17.16874917 107.95509576 -14.28059846 106.3309984 -10.3425293 103.80004883 C-9.67261963 103.35040771 -9.00270996 102.9007666 -8.3125 102.4375 C-7.60843018 101.98076904 -6.90436035 101.52403809 -6.17895508 101.0534668 C-4.76455056 100.13511242 -3.35357972 99.21144554 -1.94628906 98.28222656 C0.61901145 96.59219166 3.21470557 94.9520302 5.8125 93.3125 C7.54189267 92.20868734 9.27106278 91.1045259 11 90 C12.83311733 88.83299397 14.66645372 87.66633198 16.5 86.5 C17.40878906 85.92121094 18.31757813 85.34242188 19.25390625 84.74609375 C21.07250322 83.58974546 22.89279678 82.43606074 24.71484375 81.28515625 C38.10697234 74.45974978 38.10697234 74.45974978 46.75 63.875 C46.41019236 60.03152089 46.41019236 60.03152089 44.14453125 58.33203125 C41.7437154 56.80291858 39.3096814 55.37327378 36.81445312 54.00390625 C33.43932592 52.1365054 30.13359412 50.14884751 26.8125 48.1875 C25.73270874 47.5538855 25.73270874 47.5538855 24.63110352 46.9074707 C-6.82045603 28.45017886 -6.82045603 28.45017886 -10.41015625 17.796875 C-11.50542727 12.60340447 -11.99843887 7.23446263 -11 2 C-7.76362609 -1.94234763 -4.64012891 -1.16251624 0 0 Z " fill="#599ECE" transform="translate(146,273)"/>
<path d="M0 0 C12.00375 -0.1546875 12.00375 -0.1546875 24.25 -0.3125 C28.00165527 -0.38078003 28.00165527 -0.38078003 31.82910156 -0.45043945 C52.88752699 -0.6743407 52.88752699 -0.6743407 62 5 C62.8461084 5.49717529 63.6922168 5.99435059 64.56396484 6.5065918 C66.82894488 7.88500798 68.90755214 9.37299025 71 11 C71.61488281 11.47695313 72.22976563 11.95390625 72.86328125 12.4453125 C79.81965019 18.5841924 85.54013134 29.42387811 86.19287109 38.75805664 C86.28066485 42.19292097 86.33455779 45.62675059 86.375 49.0625 C86.43107422 50.82883789 86.43107422 50.82883789 86.48828125 52.63085938 C86.61234497 65.08547876 81.69339792 75.82953484 73.19140625 84.9375 C68.35483743 89.45292843 63.03975896 92.36930564 57 95 C55.79923828 95.53173828 55.79923828 95.53173828 54.57421875 96.07421875 C38.75551665 101.76319052 8.78468843 98 0 98 C0 65.66 0 33.32 0 0 Z " fill="#435157" transform="translate(638,274)"/>
<path d="M0 0 C7.23014907 5.05795624 13.49810601 11.38563561 16 20 C17.5976842 32.8193206 16.39782609 44.06139407 8.93359375 54.8203125 C3.12407401 61.36922566 -5.09776379 65.5517289 -13.77734375 66.2109375 C-23.03696827 66.51453175 -30.67932526 64.81899787 -38 59 C-38 58.34 -38 57.68 -38 57 C-38.66 57 -39.32 57 -40 57 C-40 69.54 -40 82.08 -40 95 C-44.29 95 -48.58 95 -53 95 C-53 62.99 -53 30.98 -53 -2 C-48.71 -2 -44.42 -2 -40 -2 C-40 -0.02 -40 1.96 -40 4 C-39.01 3.236875 -38.02 2.47375 -37 1.6875 C-25.97300672 -6.02920305 -11.84083554 -6.58813406 0 0 Z " fill="#445257" transform="translate(991,308)"/>
<path d="M0 0 C39.01958225 0 39.01958225 0 48.50390625 9.05859375 C56.55565376 19.50694495 57.89448571 30.30327232 57 43 C55.62550346 51.4086847 53.02944654 58.84776808 46.1875 64.25 C31.76401586 74.29301859 18.06530392 72 0 72 C0 48.24 0 24.48 0 0 Z " fill="#FCFDFD" transform="translate(652,287)"/>
<path d="M0 0 C8.18916565 4.37964872 12.90488155 10.68915536 16.21484375 19.25 C18.06821906 25.41087517 17.46875 30.5835788 17.46875 37.3203125 C0.63875 37.3203125 -16.19125 37.3203125 -33.53125 37.3203125 C-29.19332284 47.52808549 -29.19332284 47.52808549 -20.53125 53.3203125 C-13.80861469 54.14623627 -8.08700902 53.86429664 -2.25 50.29296875 C-0.22494219 49.14697012 1.13134257 48.49605742 3.46875 48.3203125 C5.828125 49.75390625 5.828125 49.75390625 8.21875 51.7578125 C9.01796875 52.41652344 9.8171875 53.07523437 10.640625 53.75390625 C11.24390625 54.27082031 11.8471875 54.78773438 12.46875 55.3203125 C7.68262752 61.90123091 1.95694414 65.2864717 -6.08203125 66.9921875 C-17.34428137 68.5010057 -25.95390556 67.69504176 -35.53125 61.3203125 C-41.53169109 56.49387076 -47.83395221 48.09559485 -48.78198242 40.24365234 C-49.60011037 27.80348384 -48.70067954 18.39611078 -40.92578125 8.21875 C-30.60364749 -3.30477225 -13.978218 -5.87907404 0 0 Z " fill="#475358" transform="translate(800.53125,306.6796875)"/>
<path d="M0 0 C8.00277334 5.05182657 11.32806675 11.03609489 14 20 C14 25.28 14 30.56 14 36 C-2.83 36 -19.66 36 -37 36 C-32.48027878 46.01295205 -32.48027878 46.01295205 -24.14453125 51.56640625 C-16.27301289 53.15791543 -9.94719931 51.89270473 -3 48 C-2.01 47.34 -1.02 46.68 0 46 C3.3 48.64 6.6 51.28 10 54 C5.56182103 60.58074813 -0.4357104 63.2069337 -7.87890625 65.60546875 C-18.61737991 67.6028644 -27.46393521 66.53878351 -36.92578125 61.1875 C-43.2890981 56.65959982 -48.51087319 50.46013163 -50.59765625 42.80859375 C-52.24952011 31.27762177 -52.5114538 19.47050136 -45.3515625 9.765625 C-33.46848301 -4.45255745 -16.96409504 -8.35155448 0 0 Z " fill="#465358" transform="translate(896,308)"/>
<path d="M0 0 C5.21745168 4.79648369 8.53247933 10.42686745 9.26271057 17.56974792 C9.34522062 20.47816643 9.33762862 23.37201152 9.29296875 26.28125 C9.28872391 27.33534058 9.28447906 28.38943115 9.28010559 29.47546387 C9.26341405 32.81724405 9.22577909 36.1584044 9.1875 39.5 C9.17244088 41.77603291 9.15875463 44.05207535 9.14648438 46.328125 C9.11354165 51.88565275 9.06182504 57.44272155 9 63 C4.71 63 0.42 63 -4 63 C-4 61.02 -4 59.04 -4 57 C-4.66 57 -5.32 57 -6 57 C-6.33 57.99 -6.66 58.98 -7 60 C-8.7421875 61.1328125 -8.7421875 61.1328125 -10.875 62.125 C-11.57367187 62.45757812 -12.27234375 62.79015625 -12.9921875 63.1328125 C-19.79102616 66.06927589 -27.8467828 66.23324559 -34.93359375 64.12890625 C-41.11884779 61.25751739 -45.92245227 57.15509546 -49 51 C-49.93462979 39.04899609 -49.93462979 39.04899609 -47.375 33.4375 C-40.45173468 26.33204348 -32.79467012 21.36815862 -22.59643555 20.88647461 C-21.784729 20.89171143 -20.97302246 20.89694824 -20.13671875 20.90234375 C-18.80737305 20.90717773 -18.80737305 20.90717773 -17.45117188 20.91210938 C-16.53916016 20.92048828 -15.62714844 20.92886719 -14.6875 20.9375 C-13.75615234 20.94201172 -12.82480469 20.94652344 -11.86523438 20.95117188 C-9.57675627 20.96290766 -7.28841192 20.97932637 -5 21 C-6.3586436 15.60316572 -7.24913225 13.08806404 -12 10 C-16.54384055 7.72807973 -22.215489 8.50391064 -26.96484375 9.82421875 C-31.12859381 11.32763991 -35.03713034 13.01856517 -39 15 C-41.64 12.36 -44.28 9.72 -47 7 C-44.11041517 2.91568298 -41.50515434 0.88994831 -37 -1.25 C-35.96875 -1.75015625 -34.9375 -2.2503125 -33.875 -2.765625 C-23.35628769 -7.28181126 -9.67435713 -6.09905123 0 0 Z " fill="#475459" transform="translate(602,309)"/>
<path d="M0 0 C5.55603183 3.93180862 9.27257004 8.97937327 11.19140625 15.55078125 C11.59047891 19.42941683 11.54141095 23.27627341 11.484375 27.171875 C11.48013016 28.27177261 11.47588531 29.37167023 11.47151184 30.50489807 C11.45479027 33.9996137 11.4171492 37.49374146 11.37890625 40.98828125 C11.36385103 43.36522602 11.35016409 45.74217987 11.33789062 48.11914062 C11.30490795 53.92991218 11.2531699 59.74024722 11.19140625 65.55078125 C6.57140625 65.55078125 1.95140625 65.55078125 -2.80859375 65.55078125 C-2.82317627 64.1531958 -2.83775879 62.75561035 -2.8527832 61.31567383 C-2.91080206 56.12514803 -2.98803538 50.9350544 -3.07104492 45.74487305 C-3.10427726 43.49950175 -3.13231444 41.25404725 -3.1550293 39.00854492 C-3.18860577 35.77877382 -3.24092448 32.54976398 -3.296875 29.3203125 C-3.30326492 28.3180513 -3.30965485 27.3157901 -3.3162384 26.28315735 C-3.44700664 20.06918793 -4.1957482 16.46510898 -8.43359375 11.73828125 C-13.35686667 9.27664479 -18.39912728 10.17492353 -23.55859375 11.55078125 C-28.11942365 14.3574458 -30.84902872 18.25696887 -32.35484314 23.42584229 C-32.80435141 25.53091413 -32.96506766 27.43563344 -33.01391602 29.58496094 C-33.03386124 30.36546814 -33.05380646 31.14597534 -33.07435608 31.95013428 C-33.09942482 33.19878265 -33.09942482 33.19878265 -33.125 34.47265625 C-33.1457811 35.33264221 -33.16656219 36.19262817 -33.18797302 37.07867432 C-33.25323114 39.81929723 -33.31224292 42.560014 -33.37109375 45.30078125 C-33.41430156 47.16146795 -33.45791657 49.02214523 -33.50195312 50.8828125 C-33.60888817 55.43870648 -33.71022226 59.99469465 -33.80859375 64.55078125 C-38.09859375 64.55078125 -42.38859375 64.55078125 -46.80859375 64.55078125 C-46.80859375 42.77078125 -46.80859375 20.99078125 -46.80859375 -1.44921875 C-42.84859375 -1.44921875 -38.88859375 -1.44921875 -34.80859375 -1.44921875 C-34.80859375 0.53078125 -34.80859375 2.51078125 -34.80859375 4.55078125 C-34.22851562 4.14085937 -33.6484375 3.7309375 -33.05078125 3.30859375 C-22.54181713 -3.94016368 -11.70392455 -6.66917049 0 0 Z " fill="#465359" transform="translate(359.80859375,307.44921875)"/>
<path d="M0 0 C2.76230352 2.39175061 5.11182162 4.86162842 7 8 C7 8.99 7 9.98 7 11 C4.8828125 12.60546875 4.8828125 12.60546875 2.125 14.1875 C1.22007812 14.71730469 0.31515625 15.24710937 -0.6171875 15.79296875 C-3 17 -3 17 -5 17 C-5.598125 16.21625 -6.19625 15.4325 -6.8125 14.625 C-9.60278271 11.27666075 -11.63431425 10.31253978 -15.921875 9.74609375 C-19.9016627 9.51418883 -21.58144585 9.7209639 -25 12 C-25.66 12.66 -26.32 13.32 -27 14 C-26.88658466 16.40877257 -26.88658466 16.40877257 -26 19 C-22.07732738 21.94200446 -17.89043641 22.91237419 -13.1875 23.9375 C2.16113418 27.55559104 2.16113418 27.55559104 7 35 C9.92149298 40.14436808 9.75263102 44.96243527 8.34765625 50.6328125 C6.2270663 56.73064627 3.7464105 60.06718468 -2 63 C-3.11375 63.598125 -4.2275 64.19625 -5.375 64.8125 C-13.21736339 67.4828938 -24.47631242 67.53860909 -32.1875 64.3125 C-37.85949992 61.19673989 -41.76463375 57.66662101 -45 52 C-43.37982158 50.66081194 -41.75370657 49.3288031 -40.125 48 C-39.22007812 47.2575 -38.31515625 46.515 -37.3828125 45.75 C-35 44 -35 44 -33 44 C-32.236875 44.94875 -31.47375 45.8975 -30.6875 46.875 C-27.71055006 50.52305426 -25.423786 51.73972768 -20.671875 52.25 C-16.26589295 52.46106501 -13.45241712 52.20280768 -9.375 50.375 C-6.74357776 48.18012889 -6.74357776 48.18012889 -6.375 44.9375 C-6.71299832 41.9523004 -6.71299832 41.9523004 -8.74511719 40.40136719 C-11.10418967 38.93524808 -13.00929641 38.277817 -15.703125 37.640625 C-16.60160156 37.41117187 -17.50007813 37.18171875 -18.42578125 36.9453125 C-20.29026779 36.48628262 -22.15746999 36.03812937 -24.02734375 35.6015625 C-31.51230759 33.65824807 -37.2894821 30.29165334 -41.5 23.625 C-42.4784425 18.48817688 -42.60321346 13.88504206 -41 8.875 C-31.41272033 -4.90671452 -14.71444536 -8.32588523 0 0 Z " fill="#485359" transform="translate(443,308)"/>
<path d="M0 0 C4.29 0 8.58 0 13 0 C13 5.94 13 11.88 13 18 C19.27 18 25.54 18 32 18 C32 21.96 32 25.92 32 30 C25.73 30 19.46 30 13 30 C13.07409001 35.1786362 13.15699647 40.3555732 13.26245117 45.53344727 C13.29564654 47.29377355 13.32369524 49.05420488 13.34643555 50.81469727 C13.3800812 53.34957525 13.4324006 55.88349523 13.48828125 58.41796875 C13.49467117 59.20149216 13.5010611 59.98501556 13.50764465 60.7922821 C13.62836025 65.30758582 14.05436251 68.48240244 17 72 C22.30203656 72.72773051 26.9295371 71.42328783 32 70 C32 74.62 32 79.24 32 84 C25.19587684 86.59204692 18.20510293 86.70061625 11 86 C6.49805267 83.9042659 3.72664548 81.14046165 1 77 C-0.39835378 72.20458636 -0.12625989 67.27259328 -0.09765625 62.32421875 C-0.0962413 61.3990596 -0.09482635 60.47390045 -0.09336853 59.52070618 C-0.08778715 56.57627073 -0.07523805 53.63191233 -0.0625 50.6875 C-0.05748259 48.68685006 -0.05292011 46.68619892 -0.04882812 44.68554688 C-0.03782381 39.79033506 -0.02057198 34.89518058 0 30 C-4.62 30 -9.24 30 -14 30 C-14 26.04 -14 22.08 -14 18 C-9.38 18 -4.76 18 0 18 C0 12.06 0 6.12 0 0 Z " fill="#445156" transform="translate(493,288)"/>
<path d="M0 0 C5.56734907 3.22142981 9.17510295 6.94155099 11.1796875 13.08203125 C12.99004495 21.03367819 11.76132238 28.25538616 7.6875 35.3125 C4.0082677 39.61669779 -0.60159109 42.03155789 -6.21484375 42.61328125 C-13.1386532 42.64001411 -17.9440566 42.55221308 -23.15234375 37.54296875 C-28.92098298 31.37323804 -30.77287304 26.18554078 -30.55859375 17.765625 C-29.88507259 11.05179498 -26.18403709 5.75892654 -21.3125 1.3125 C-14.64988998 -2.65944059 -7.08140015 -3.28683856 0 0 Z " fill="#FAFBFC" transform="translate(981.3125,318.6875)"/>
<path d="M0 0 C4.62 0 9.24 0 14 0 C14 32.34 14 64.68 14 98 C9.38 98 4.76 98 0 98 C0 65.66 0 33.32 0 0 Z " fill="#415054" transform="translate(271,274)"/>
<path d="M0 0 C3.96 0 7.92 0 12 0 C12.64715133 2.0829243 13.29267166 4.16635539 13.9375 6.25 C14.29714844 7.41015625 14.65679688 8.5703125 15.02734375 9.765625 C15.75066637 12.17089058 16.42542411 14.55654044 17 17 C17.66 17 18.32 17 19 17 C19.103125 16.030625 19.20625 15.06125 19.3125 14.0625 C20.85267857 3.14732143 20.85267857 3.14732143 24 0 C27.96 0 31.92 0 36 0 C36 10.56 36 21.12 36 32 C33.03 32 30.06 32 27 32 C26.505 22.1 26.505 22.1 26 12 C24.72571094 17.8331036 24.72571094 17.8331036 23.45727539 23.66748047 C23.21738892 24.75633545 23.21738892 24.75633545 22.97265625 25.8671875 C22.72914429 26.98262939 22.72914429 26.98262939 22.48071289 28.12060547 C22 30 22 30 21 32 C18.69 32 16.38 32 14 32 C12.35 25.07 10.7 18.14 9 11 C8.67 17.93 8.34 24.86 8 32 C5.36 32 2.72 32 0 32 C0 21.44 0 10.88 0 0 Z " fill="#4E585E" transform="translate(1072,273)"/>
<path d="M0 0 C0 0.66 0 1.32 0 2 C0.72960937 2.27070313 1.45921875 2.54140625 2.2109375 2.8203125 C4.91160136 3.9626101 7.18527542 5.25690088 9.625 6.875 C10.38039063 7.36742187 11.13578125 7.85984375 11.9140625 8.3671875 C14.77199189 10.60429327 16.75458837 12.58232338 17.38818359 16.24243164 C17.39156738 17.04028076 17.39495117 17.83812988 17.3984375 18.66015625 C17.40423828 19.9740332 17.40423828 19.9740332 17.41015625 21.31445312 C17.39855469 22.22130859 17.38695313 23.12816406 17.375 24.0625 C17.38660156 24.97322266 17.39820312 25.88394531 17.41015625 26.82226562 C17.40628906 27.69689453 17.40242188 28.57152344 17.3984375 29.47265625 C17.39505371 30.26937744 17.39166992 31.06609863 17.38818359 31.88696289 C16.90175062 34.53481031 16.14124011 35.40350474 14 37 C7.9486718 38.21026564 4.89240812 36.64030989 -0.25 33.3125 C-9.38326397 27.03042336 -9.38326397 27.03042336 -10.40429688 22.01342773 C-10.61070331 19.68190351 -10.64410367 17.40269922 -10.625 15.0625 C-10.65722656 14.27681641 -10.68945312 13.49113281 -10.72265625 12.68164062 C-10.72998763 8.30113902 -10.25094082 5.69676052 -7.2109375 2.43359375 C-4.50085919 -0.1168901 -4.06061851 0 0 0 Z " fill="#5091C6" transform="translate(103,246)"/>
<path d="M0 0 C0.83144531 0.00902344 1.66289063 0.01804687 2.51953125 0.02734375 C4.55481337 0.0507378 6.58994564 0.08660275 8.625 0.125 C8.11192091 7.31989174 7.25573722 11.95683747 1.625 16.875 C-3.45734684 20.68676013 -8.22643762 20.67503114 -14.375 20.125 C-17.3984078 18.86524675 -18.78829191 17.93521593 -20.6875 15.3125 C-21.64237863 12.27424982 -21.89278138 10.29641095 -21.375 7.125 C-15.1424251 0.59563582 -8.69736996 -0.18032824 0 0 Z " fill="#F8FAFA" transform="translate(588.375,341.875)"/>
<path d="M0 0 C3.18309159 1.88863434 4.73498916 3.91678723 6.7578125 7.04296875 C7.2528125 10.01296875 7.2528125 10.01296875 7.7578125 13.04296875 C-4.1221875 13.04296875 -16.0021875 13.04296875 -28.2421875 13.04296875 C-27.06512491 5.9805932 -25.73822122 3.8900337 -20.1171875 -0.26953125 C-13.8341948 -3.57920192 -6.36679339 -2.74519634 0 0 Z " fill="#F2F5F6" transform="translate(795.2421875,318.95703125)"/>
<path d="M0 0 C3.48688555 2.25753488 5.96203615 5.50089568 7.828125 9.18359375 C7.828125 10.50359375 7.828125 11.82359375 7.828125 13.18359375 C-4.381875 13.18359375 -16.591875 13.18359375 -29.171875 13.18359375 C-26.89107633 6.34119773 -24.74113695 2.34387414 -18.22265625 -1.08984375 C-12.37571544 -3.16133135 -5.64650605 -2.39861741 0 0 Z " fill="#F2F5F6" transform="translate(888.171875,318.81640625)"/>
<path d="M0 0 C8.58 0 17.16 0 26 0 C26 2.64 26 5.28 26 8 C23.03 8 20.06 8 17 8 C17 15.92 17 23.84 17 32 C14.36 32 11.72 32 9 32 C9 24.08 9 16.16 9 8 C6.03 8 3.06 8 0 8 C0 5.36 0 2.72 0 0 Z " fill="#4F5A5F" transform="translate(1034,273)"/>
<path d="M0 0 C0 3 0 3 -1 5 C-1.09694016 6.61501175 -1.13067967 8.23399777 -1.13371277 9.85191345 C-1.13797775 10.8768541 -1.14224274 11.90179474 -1.14663696 12.95779419 C-1.14618378 14.0866806 -1.14573059 15.21556702 -1.14526367 16.37866211 C-1.14862228 17.56407089 -1.1519809 18.74947968 -1.15544128 19.97080994 C-1.16332857 23.22699737 -1.16661973 26.48314659 -1.16725707 29.73934245 C-1.16820561 32.45562664 -1.17188326 35.17190469 -1.17542917 37.88818651 C-1.18357671 44.29549664 -1.18601312 50.70279271 -1.18530273 57.11010742 C-1.18470179 63.72434904 -1.19525626 70.33850914 -1.2110464 76.95273012 C-1.22411212 82.62750888 -1.22948704 88.30226096 -1.22884732 93.97705466 C-1.22859206 97.36807815 -1.23145888 100.75902922 -1.24202538 104.15003777 C-1.25177908 107.93074257 -1.24896551 111.71123543 -1.24291992 115.49194336 C-1.24853943 116.61880554 -1.25415894 117.74566772 -1.25994873 118.90667725 C-1.25575424 119.93443771 -1.25155975 120.96219818 -1.24723816 122.02110291 C-1.24778293 122.91540984 -1.24832769 123.80971678 -1.24888897 124.73112392 C-1.14548931 127.280818 -1.14548931 127.280818 1 130 C0.01 130 -0.98 130 -2 130 C-4.18784064 126.71823904 -4.25337188 125.75813507 -4.26742554 121.9519043 C-4.27595551 120.90876068 -4.28448547 119.86561707 -4.29327393 118.79086304 C-4.29236755 117.64687042 -4.29146118 116.50287781 -4.29052734 115.32421875 C-4.29724457 114.1191568 -4.30396179 112.91409485 -4.31088257 111.67251587 C-4.32664076 108.36673542 -4.33323838 105.06120616 -4.33451414 101.75540543 C-4.33641291 98.99681217 -4.34376992 96.23824305 -4.35085833 93.47965908 C-4.36714376 86.9730806 -4.37202704 80.46655746 -4.37060547 73.95996094 C-4.36940302 67.24391982 -4.39052464 60.52819954 -4.4220928 53.81223965 C-4.44822251 48.04825799 -4.45897421 42.28438137 -4.45769465 36.52034092 C-4.45718416 33.07670882 -4.46291499 29.63336201 -4.48405075 26.18978882 C-4.5069655 22.35165797 -4.49793252 18.51396947 -4.48583984 14.67578125 C-4.49707886 13.53178864 -4.50831787 12.38779602 -4.51989746 11.20913696 C-4.51150848 10.16599335 -4.50311951 9.12284973 -4.49447632 8.0480957 C-4.49556585 7.1403389 -4.49665539 6.23258209 -4.49777794 5.2973175 C-4 3 -4 3 -1.96909523 1.18449402 C-1.3192938 0.79361099 -0.66949238 0.40272797 0 0 Z " fill="#6F9DC4" transform="translate(97,297)"/>
<path d="M0 0 C14.04501608 6.48231511 14.04501608 6.48231511 16.375 12.625 C16 16 16 16 13.5625 18.4375 C12.716875 18.953125 11.87125 19.46875 11 20 C11.165 19.484375 11.33 18.96875 11.5 18.4375 C12.15049 15.26636124 12.0620734 12.22781666 12 9 C10.68 8.67 9.36 8.34 8 8 C8 7.34 8 6.68 8 6 C6.68 5.67 5.36 5.34 4 5 C4 4.34 4 3.68 4 3 C2.68 2.67 1.36 2.34 0 2 C0 1.34 0 0.68 0 0 Z " fill="#84BBD9" transform="translate(228,323)"/>
<path d="M0 0 C-0.65484375 0.4125 -1.3096875 0.825 -1.984375 1.25 C-2.89703125 1.8275 -3.8096875 2.405 -4.75 3 C-5.74515625 3.6290625 -6.7403125 4.258125 -7.765625 4.90625 C-9.97325498 6.3353438 -12.1419011 7.77813653 -14.296875 9.28125 C-15.35390625 10.0134375 -16.4109375 10.745625 -17.5 11.5 C-18.4796875 12.1909375 -19.459375 12.881875 -20.46875 13.59375 C-21.3040625 14.0578125 -22.139375 14.521875 -23 15 C-23.99 14.67 -24.98 14.34 -26 14 C-25.34 14 -24.68 14 -24 14 C-24 13.34 -24 12.68 -24 12 C-22.02 11.34 -20.04 10.68 -18 10 C-18 9.34 -18 8.68 -18 8 C-16.04402816 6.60287726 -14.0340906 5.28072371 -12 4 C-10.96875 3.278125 -9.9375 2.55625 -8.875 1.8125 C-3.34615385 -1.67307692 -3.34615385 -1.67307692 0 0 Z " fill="#7CB4D1" transform="translate(224,353)"/>
<path d="M0 0 C-0.99 0.33 -1.98 0.66 -3 1 C-3.99 1.495 -3.99 1.495 -5 2 C-7 3 -7 3 -10 4 C-9.84402344 4.97582031 -9.68804687 5.95164062 -9.52734375 6.95703125 C-9.33269531 8.22933594 -9.13804687 9.50164062 -8.9375 10.8125 C-8.74027344 12.07707031 -8.54304687 13.34164063 -8.33984375 14.64453125 C-8 18 -8 18 -9 21 C-10.64218633 16.65805934 -11.32111733 12.95179802 -11.375 8.3125 C-11.40335938 7.19488281 -11.43171875 6.07726562 -11.4609375 4.92578125 C-11 2 -11 2 -9.2109375 0.0859375 C-5.95372005 -1.51389722 -3.46142467 -0.73222445 0 0 Z " fill="#6BA0C5" transform="translate(146,273)"/>
<path d="M0 0 C0.99 0.33 1.98 0.66 3 1 C-7.37357631 8.48291572 -7.37357631 8.48291572 -13 11 C-11.125 6.25 -11.125 6.25 -10 4 C-7.35139573 3.40644386 -4.70802678 3.25790731 -2 3 C-2 2.34 -2 1.68 -2 1 C-1.34 0.67 -0.68 0.34 0 0 Z " fill="#7AAECE" transform="translate(195,368)"/>
<path d="M0 0 C3.36230209 0.60041109 5.64499209 1.47677724 8 4 C8.5 7.5 8.5 7.5 8 11 C6 12.9375 6 12.9375 4 14 C3.34 13.67 2.68 13.34 2 13 C2.66 12.34 3.32 11.68 4 11 C4.50031206 7.58428147 4.50031206 7.58428147 4 4 C2.14579161 1.55901182 2.14579161 1.55901182 0 0 Z " fill="#76AECF" transform="translate(188,329)"/>
<path d="M0 0 C0 0.66 0 1.32 0 2 C-2.07828493 3.50312477 -4.12791551 4.85724824 -6.3125 6.1875 C-6.90740234 6.56841797 -7.50230469 6.94933594 -8.11523438 7.34179688 C-9.69380094 8.31362948 -11.34486531 9.16521849 -13 10 C-13.99 9.67 -14.98 9.34 -16 9 C-14.75 7.5 -14.75 7.5 -13 6 C-11.68 6 -10.36 6 -9 6 C-8.67 5.01 -8.34 4.02 -8 3 C-7.34 3.33 -6.68 3.66 -6 4 C-5.67 3.01 -5.34 2.02 -5 1 C-3 0 -3 0 0 0 Z " fill="#5D95C0" transform="translate(117,419)"/>
<path d="M0 0 C11.70615034 6.15034169 11.70615034 6.15034169 16 10 C14.68 10 13.36 10 12 10 C12 9.34 12 8.68 12 8 C11.01 8 10.02 8 9 8 C9 7.34 9 6.68 9 6 C6.69 5.67 4.38 5.34 2 5 C2 4.01 2 3.02 2 2 C1.34 2 0.68 2 0 2 C0 1.34 0 0.68 0 0 Z " fill="#7EB3D4" transform="translate(208,311)"/>
<path d="M0 0 C-1.20381448 2.49361571 -2.45428722 4.68143083 -4 7 C-4.99 6.67 -5.98 6.34 -7 6 C-9.6569191 6.87914688 -9.6569191 6.87914688 -12 8 C-4.57142857 0 -4.57142857 0 0 0 Z " fill="#7CB2D4" transform="translate(190,343)"/>
<path d="M0 0 C3.37503669 1.1858237 5.64722731 2.27573689 8 5 C7.67 5.66 7.34 6.32 7 7 C6.01 6.67 5.02 6.34 4 6 C4 5.34 4 4.68 4 4 C2.68 3.34 1.36 2.68 0 2 C0 1.34 0 0.68 0 0 Z " fill="#5E94C0" transform="translate(105,297)"/>
<path d="M0 0 C3.96 1.98 3.96 1.98 8 4 C8 4.99 8 5.98 8 7 C6.02 6.01 4.04 5.02 2 4 C2 3.34 2 2.68 2 2 C1.34 2 0.68 2 0 2 C0 1.34 0 0.68 0 0 Z " fill="#76AFCF" transform="translate(193,302)"/>
<path d="M0 0 C1.3921875 0.0928125 1.3921875 0.0928125 2.8125 0.1875 C3.1425 0.8475 3.4725 1.5075 3.8125 2.1875 C0.5125 2.5175 -2.7875 2.8475 -6.1875 3.1875 C-3.1875 0.1875 -3.1875 0.1875 0 0 Z " fill="#6899C5" transform="translate(101.1875,294.8125)"/>
<path d="M0 0 C0.99 0.33 1.98 0.66 3 1 C0.375 5.875 0.375 5.875 -3 7 C-1.125 2.25 -1.125 2.25 0 0 Z " fill="#6DADD1" transform="translate(185,372)"/>
<path d="M0 0 C0.99 0.33 1.98 0.66 3 1 C1.02579865 3.52259061 0.03254358 3.9929808 -3.1875 4.6875 C-4.5796875 4.8421875 -4.5796875 4.8421875 -6 5 C-2.25 1.125 -2.25 1.125 0 0 Z " fill="#73A4CD" transform="translate(149,368)"/>
<path d="M0 0 C0.66 0.33 1.32 0.66 2 1 C1.04882866 2.1725131 0.08882991 3.33787015 -0.875 4.5 C-1.40867187 5.1496875 -1.94234375 5.799375 -2.4921875 6.46875 C-2.98976563 6.9740625 -3.48734375 7.479375 -4 8 C-4.66 8 -5.32 8 -6 8 C-4.55746343 4.63408134 -2.66735273 2.48952921 0 0 Z " fill="#556063" transform="translate(561,336)"/>
<path d="M0 0 C3.51005335 1.6380249 6.45543849 3.03134491 9 6 C6.03 5.505 6.03 5.505 3 5 C3 4.34 3 3.68 3 3 C2.01 2.67 1.02 2.34 0 2 C0 1.34 0 0.68 0 0 Z " fill="#6EA2C7" transform="translate(155,279)"/>
<path d="M0 0 C0.33 0.66 0.66 1.32 1 2 C0.34 2 -0.32 2 -1 2 C-1.33 2.99 -1.66 3.98 -2 5 C-4.31 5 -6.62 5 -9 5 C-8.443125 4.731875 -7.88625 4.46375 -7.3125 4.1875 C-4.80287477 2.89877353 -2.40665764 1.47073522 0 0 Z " fill="#6DA0C6" transform="translate(135,377)"/>
</svg>
