<?xml version="1.0" encoding="UTF-8"?><svg id="Layer_2" xmlns="http://www.w3.org/2000/svg" viewBox="0 0 2906.41 785.84"><defs><style>.cls-1{fill:#00263a;}.cls-2{fill:#00a3e0;}</style></defs><g id="Layer_1-2"><g><path class="cls-1" d="M1518.51,334.47c-8.86-10.33-19.73-18.4-32.62-24.2-12.89-5.8-27.7-8.7-44.43-8.7-17.9,0-33.31,2.9-46.19,8.7-12.73,5.73-24.55,13.26-35.46,22.55V172.26h-.41v-1.76h-91.51v441.89h91.92v-217.56c4.65-4.09,9.38-7.65,14.19-10.78,3.7-2.41,7.44-4.59,11.24-6.42,8.72-4.21,18.08-6.32,28.08-6.32,6.98,0,13.06,1.18,18.27,3.46,4.73,2.08,8.75,5.07,12.01,9.03,6.77,8.23,10.17,19.68,10.25,34.31v194.28h91.51v-194.53c0-16.72-2.26-32.22-6.79-46.49-4.53-14.27-11.21-26.57-20.07-36.9Z"/><polygon class="cls-1" points="1594.67 307.51 1594.14 307.51 1594.13 307.51 1594.13 612.39 1594.14 612.39 1685.28 612.39 1685.28 612.39 1685.28 612.39 1686.18 612.39 1686.18 306.28 1594.67 306.28 1594.67 307.51"/><path class="cls-1" d="M1679.09,184.37c-5.12-4.92-11.07-8.75-17.85-11.51-6.79-2.75-14.02-4.14-21.7-4.14s-14.46,1.38-20.96,4.14c-6.49,2.76-12.25,6.59-17.27,11.51-5.02,4.92-8.96,10.63-11.81,17.12-.84,1.9-1.51,3.87-2.1,5.85-1.76,5.26-2.67,10.8-2.67,16.66,0,7.25,1.41,14.07,4.26,20.44,2.84,6.37,6.76,11.96,11.76,16.76,5,4.8,10.74,8.63,17.2,11.46,6.47,2.84,13.43,4.26,20.87,4.26h0c7.65,0,14.85-1.42,21.61-4.26,6.76-2.84,12.7-6.66,17.79-11.46,3.89-3.67,7.15-7.81,9.78-12.39,1.16-1.88,2.25-3.81,3.19-5.84,2.95-6.4,4.43-13.24,4.43-20.52s-1.48-14.47-4.43-20.96c-2.95-6.5-6.98-12.2-12.11-17.12Z"/><path class="cls-1" d="M1989.04,334.47c-8.86-10.33-19.73-18.4-32.61-24.2-12.9-5.8-27.71-8.7-44.43-8.7-9.84,0-18.95,.94-27.31,2.8-8.37,1.88-16.15,4.43-23.33,7.68-7.18,3.25-13.92,7.23-20.22,11.95-.38,.29-.75,.61-1.13,.9-.13,.09-.26,.17-.39,.26-5.79,4.33-11.37,9.04-16.82,14.05l-5.27-17.56c-3.55-10.23-11.02-15.35-22.43-15.35h-56.68v1.22h-1.1v304.89h92.62v-218.44c5.85-5.16,11.84-9.51,17.94-13.13,1.99-1.14,4-2.22,6.02-3.19,8.72-4.21,18.08-6.32,28.08-6.32,13.33,0,23.41,4.16,30.28,12.49,6.86,8.34,10.29,19.95,10.29,34.84v193.76h93.36v-194.53c0-16.72-2.27-32.22-6.79-46.49-4.53-14.27-11.22-26.57-20.08-36.9Z"/><path class="cls-1" d="M2651.96,184.37c-5.13-4.92-11.07-8.75-17.86-11.51-6.79-2.75-14.02-4.14-21.69-4.14s-14.47,1.38-20.96,4.14c-6.5,2.76-12.25,6.59-17.27,11.51-5.02,4.92-8.96,10.63-11.81,17.12-2.86,6.49-4.28,13.48-4.28,20.96s1.43,14.12,4.28,20.52c2.85,6.4,6.79,12,11.81,16.82,5.02,4.83,10.77,8.66,17.27,11.51,6.5,2.85,13.48,4.28,20.96,4.28s14.9-1.43,21.69-4.28c6.79-2.85,12.74-6.69,17.86-11.51,5.11-4.82,9.15-10.43,12.1-16.82,2.95-6.4,4.43-13.24,4.43-20.52s-1.47-14.47-4.43-20.96c-2.95-6.5-6.98-12.2-12.1-17.12Z"/><rect class="cls-1" x="2567.53" y="306.28" width="91.5" height="306.11"/><path class="cls-1" d="M2878.66,547.16c-1.77-2.75-3.5-4.77-5.17-6.05-1.67-1.28-3.88-1.91-6.63-1.91-1.97,0-3.7,.35-5.17,1.03-1.47,.69-3.05,1.48-4.72,2.36-1.67,.88-3.65,1.67-5.9,2.36-2.27,.69-5.07,1.03-8.41,1.03-6.5,0-11.47-2.31-14.91-6.93-3.44-4.63-5.16-10.48-5.16-17.57v-152.02h75.87v-62.58h-75.87v-89.44h-64.19l-3.7,14.17-18.01,74.68h-48.71v45.16c0,5.91,1.67,10.39,5.01,13.43,3.35,3.06,7.38,4.58,12.11,4.58h25.97v158.22c0,13.58,1.96,25.88,5.9,36.9,3.94,11.02,9.69,20.42,17.27,28.19,7.57,7.78,16.92,13.77,28.04,18.01,11.11,4.23,23.96,6.35,38.52,6.35,15.74,0,30.99-2.22,45.75-6.65,14.76-4.43,28.05-11.07,39.85-19.92l-27.75-43.39Z"/><polygon class="cls-1" points="2358.03 306.28 2243.97 306.51 2159.72 429.97 2154.63 429.97 2154.63 170.5 2063.13 170.5 2063.13 612.39 2154.63 612.39 2154.63 459.72 2159.78 459.72 2244.56 612.01 2361.71 611.78 2257.07 446.52 2358.03 306.28"/><polygon class="cls-1" points="900.28 249.3 1020.82 249.3 1020.82 612.39 1120.2 612.39 1120.2 249.3 1240.75 249.3 1240.75 170.5 900.28 170.5 900.28 249.3"/><polygon class="cls-2" points="680.7 270.81 785.29 350.97 698.1 140.46 680.7 270.81"/><polygon class="cls-2" points="763.05 388.24 763.05 388.24 763.05 388.25 763.06 388.24 763.06 388.24 763.06 388.24 763.05 388.23 763.05 388.24"/><polygon class="cls-2" points="8.45 421.97 98.58 639.56 116.58 504.83 8.45 421.97 8.45 421.97"/><polygon class="cls-2" points="107.03 116.51 0 374.92 0 374.92 128.41 276.52 107.03 116.51"/><path class="cls-2" d="M397.6,22.79h0Z"/><polygon class="cls-2" points="524.9 79.7 426.49 118.85 566.79 176.97 524.9 79.7"/><polygon class="cls-2" points="584.4 548.01 680 501.93 642.52 407.71 584.4 548.01"/><polygon class="cls-2" points="244.52 215.78 383.78 157.66 285.38 118.52 244.52 215.78"/><polygon class="cls-2" points="182.34 395.44 143.19 493.85 240.46 535.74 182.34 395.44"/><polygon class="cls-2" points="538.45 528.55 398.14 586.66 496.54 625.81 538.45 528.55"/><polygon class="cls-2" points="361.67 0 361.66 0 148.48 88.31 280.07 105.51 361.67 0"/><path class="cls-2" d="M397.61,22.79h0Z"/><polygon class="cls-2" points="428.49 778.57 651.77 686.08 513.98 668.07 428.49 778.57"/><polygon class="cls-2" points="125.88 678.8 384.29 785.84 286.42 657.96 125.88 678.8"/><polygon class="cls-2" points="2409.01 516.38 2490.55 446.52 2364.78 446.52 2409.01 516.38"/></g></g></svg>